ISO-10303-21;
HEADER;
/* Generated by software containing ST-Developer
 * from STEP Tools, Inc. (www.steptools.com) 
 */
/* OPTION: using custom renumber hook */

FILE_DESCRIPTION(
/* description */ ('STEP AP242',
'CAx-IF Rec.Pracs.---Representation and Presentation of Product Manufa
cturing Information (PMI)---4.0---2014-10-13',
'CAx-IF Rec.Pracs.---3D Tessellated Geometry---0.4---2014-09-14','2;1'),

/* implementation_level */ '2;1');

FILE_NAME(
/* name */ '68dff39e4ef02431c98943c8',
/* time_stamp */ '2025-10-03T16:02:39Z',
/* author */ (''),
/* organization */ (''),
/* preprocessor_version */ 'ST-DEVELOPER v20',
/* originating_system */ 'ONSHAPE BY PTC INC, 1.204',
/* authorisation */ '  ');

FILE_SCHEMA (('AP242_MANAGED_MODEL_BASED_3D_ENGINEERING_MIM_LF { 1 0 10303 442 1 1 4 }'));
ENDSEC;

DATA;
#10=SHAPE_REPRESENTATION_RELATIONSHIP('','',#1371,#12);
#11=SHAPE_REPRESENTATION_RELATIONSHIP('','',#1372,#13);
#12=ADVANCED_BREP_SHAPE_REPRESENTATION('',(#1367),#2231);
#13=ADVANCED_BREP_SHAPE_REPRESENTATION('',(#1368),#2232);
#14=CONICAL_SURFACE('',#1460,0.00297,0.785398163397448);
#15=CONICAL_SURFACE('',#1461,0.0017,0.785398163397448);
#16=CONICAL_SURFACE('',#1462,0.00297,0.785398163397448);
#17=CONICAL_SURFACE('',#1463,0.0017,0.785398163397448);
#18=CYLINDRICAL_SURFACE('',#1388,0.0027);
#19=CYLINDRICAL_SURFACE('',#1393,0.0027);
#20=CYLINDRICAL_SURFACE('',#1397,0.004);
#21=CYLINDRICAL_SURFACE('',#1403,0.004);
#22=CYLINDRICAL_SURFACE('',#1408,0.0027);
#23=CYLINDRICAL_SURFACE('',#1413,0.0027);
#24=CYLINDRICAL_SURFACE('',#1417,0.004);
#25=CYLINDRICAL_SURFACE('',#1423,0.0017);
#26=CYLINDRICAL_SURFACE('',#1425,0.0017);
#27=CYLINDRICAL_SURFACE('',#1427,0.0017);
#28=CYLINDRICAL_SURFACE('',#1429,0.0017);
#29=CYLINDRICAL_SURFACE('',#1431,0.0017);
#30=CYLINDRICAL_SURFACE('',#1434,0.0017);
#31=CYLINDRICAL_SURFACE('',#1437,0.0017);
#32=CYLINDRICAL_SURFACE('',#1440,0.0017);
#33=CYLINDRICAL_SURFACE('',#1443,0.004);
#34=CYLINDRICAL_SURFACE('',#1477,0.0017);
#35=CYLINDRICAL_SURFACE('',#1480,0.0027);
#36=LINE('',#1859,#176);
#37=LINE('',#1862,#177);
#38=LINE('',#1864,#178);
#39=LINE('',#1866,#179);
#40=LINE('',#1867,#180);
#41=LINE('',#1870,#181);
#42=LINE('',#1872,#182);
#43=LINE('',#1874,#183);
#44=LINE('',#1876,#184);
#45=LINE('',#1878,#185);
#46=LINE('',#1880,#186);
#47=LINE('',#1882,#187);
#48=LINE('',#1884,#188);
#49=LINE('',#1886,#189);
#50=LINE('',#1890,#190);
#51=LINE('',#1892,#191);
#52=LINE('',#1894,#192);
#53=LINE('',#1896,#193);
#54=LINE('',#1898,#194);
#55=LINE('',#1902,#195);
#56=LINE('',#1904,#196);
#57=LINE('',#1906,#197);
#58=LINE('',#1908,#198);
#59=LINE('',#1910,#199);
#60=LINE('',#1912,#200);
#61=LINE('',#1914,#201);
#62=LINE('',#1916,#202);
#63=LINE('',#1918,#203);
#64=LINE('',#1920,#204);
#65=LINE('',#1922,#205);
#66=LINE('',#1924,#206);
#67=LINE('',#1926,#207);
#68=LINE('',#1930,#208);
#69=LINE('',#1932,#209);
#70=LINE('',#1934,#210);
#71=LINE('',#1936,#211);
#72=LINE('',#1938,#212);
#73=LINE('',#1942,#213);
#74=LINE('',#1944,#214);
#75=LINE('',#1946,#215);
#76=LINE('',#1948,#216);
#77=LINE('',#1950,#217);
#78=LINE('',#1952,#218);
#79=LINE('',#1954,#219);
#80=LINE('',#1956,#220);
#81=LINE('',#1958,#221);
#82=LINE('',#1960,#222);
#83=LINE('',#1962,#223);
#84=LINE('',#1964,#224);
#85=LINE('',#1966,#225);
#86=LINE('',#1968,#226);
#87=LINE('',#1970,#227);
#88=LINE('',#1972,#228);
#89=LINE('',#1975,#229);
#90=LINE('',#1976,#230);
#91=LINE('',#1978,#231);
#92=LINE('',#1982,#232);
#93=LINE('',#1984,#233);
#94=LINE('',#1986,#234);
#95=LINE('',#1988,#235);
#96=LINE('',#1990,#236);
#97=LINE('',#1992,#237);
#98=LINE('',#1995,#238);
#99=LINE('',#1996,#239);
#100=LINE('',#1998,#240);
#101=LINE('',#2002,#241);
#102=LINE('',#2004,#242);
#103=LINE('',#2006,#243);
#104=LINE('',#2009,#244);
#105=LINE('',#2010,#245);
#106=LINE('',#2012,#246);
#107=LINE('',#2014,#247);
#108=LINE('',#2018,#248);
#109=LINE('',#2022,#249);
#110=LINE('',#2024,#250);
#111=LINE('',#2026,#251);
#112=LINE('',#2027,#252);
#113=LINE('',#2029,#253);
#114=LINE('',#2032,#254);
#115=LINE('',#2033,#255);
#116=LINE('',#2035,#256);
#117=LINE('',#2038,#257);
#118=LINE('',#2039,#258);
#119=LINE('',#2041,#259);
#120=LINE('',#2043,#260);
#121=LINE('',#2047,#261);
#122=LINE('',#2051,#262);
#123=LINE('',#2053,#263);
#124=LINE('',#2054,#264);
#125=LINE('',#2056,#265);
#126=LINE('',#2058,#266);
#127=LINE('',#2061,#267);
#128=LINE('',#2062,#268);
#129=LINE('',#2064,#269);
#130=LINE('',#2068,#270);
#131=LINE('',#2070,#271);
#132=LINE('',#2072,#272);
#133=LINE('',#2075,#273);
#134=LINE('',#2076,#274);
#135=LINE('',#2078,#275);
#136=LINE('',#2081,#276);
#137=LINE('',#2082,#277);
#138=LINE('',#2084,#278);
#139=LINE('',#2088,#279);
#140=LINE('',#2090,#280);
#141=LINE('',#2092,#281);
#142=LINE('',#2095,#282);
#143=LINE('',#2096,#283);
#144=LINE('',#2098,#284);
#145=LINE('',#2100,#285);
#146=LINE('',#2104,#286);
#147=LINE('',#2108,#287);
#148=LINE('',#2110,#288);
#149=LINE('',#2112,#289);
#150=LINE('',#2113,#290);
#151=LINE('',#2115,#291);
#152=LINE('',#2118,#292);
#153=LINE('',#2119,#293);
#154=LINE('',#2121,#294);
#155=LINE('',#2124,#295);
#156=LINE('',#2125,#296);
#157=LINE('',#2127,#297);
#158=LINE('',#2129,#298);
#159=LINE('',#2166,#299);
#160=LINE('',#2176,#300);
#161=LINE('',#2177,#301);
#162=LINE('',#2178,#302);
#163=LINE('',#2179,#303);
#164=LINE('',#2180,#304);
#165=LINE('',#2181,#305);
#166=LINE('',#2182,#306);
#167=LINE('',#2183,#307);
#168=LINE('',#2184,#308);
#169=LINE('',#2185,#309);
#170=LINE('',#2186,#310);
#171=LINE('',#2187,#311);
#172=LINE('',#2189,#312);
#173=LINE('',#2192,#313);
#174=LINE('',#2195,#314);
#175=LINE('',#2198,#315);
#176=VECTOR('',#1497,1.);
#177=VECTOR('',#1498,1.);
#178=VECTOR('',#1499,1.);
#179=VECTOR('',#1500,1.);
#180=VECTOR('',#1501,1.);
#181=VECTOR('',#1502,1.);
#182=VECTOR('',#1503,1.);
#183=VECTOR('',#1504,1.);
#184=VECTOR('',#1505,1.);
#185=VECTOR('',#1506,1.);
#186=VECTOR('',#1507,1.);
#187=VECTOR('',#1508,1.);
#188=VECTOR('',#1509,1.);
#189=VECTOR('',#1510,1.);
#190=VECTOR('',#1513,1.);
#191=VECTOR('',#1514,1.);
#192=VECTOR('',#1515,1.);
#193=VECTOR('',#1516,1.);
#194=VECTOR('',#1517,1.);
#195=VECTOR('',#1520,1.);
#196=VECTOR('',#1521,1.);
#197=VECTOR('',#1522,1.);
#198=VECTOR('',#1523,1.);
#199=VECTOR('',#1524,1.);
#200=VECTOR('',#1525,1.);
#201=VECTOR('',#1526,1.);
#202=VECTOR('',#1527,1.);
#203=VECTOR('',#1528,1.);
#204=VECTOR('',#1529,1.);
#205=VECTOR('',#1530,1.);
#206=VECTOR('',#1531,1.);
#207=VECTOR('',#1532,1.);
#208=VECTOR('',#1535,1.);
#209=VECTOR('',#1536,1.);
#210=VECTOR('',#1537,1.);
#211=VECTOR('',#1538,1.);
#212=VECTOR('',#1539,1.);
#213=VECTOR('',#1542,1.);
#214=VECTOR('',#1543,1.);
#215=VECTOR('',#1544,1.);
#216=VECTOR('',#1547,1.);
#217=VECTOR('',#1548,1.);
#218=VECTOR('',#1549,1.);
#219=VECTOR('',#1552,1.);
#220=VECTOR('',#1553,1.);
#221=VECTOR('',#1556,1.);
#222=VECTOR('',#1557,1.);
#223=VECTOR('',#1560,1.);
#224=VECTOR('',#1561,1.);
#225=VECTOR('',#1562,1.);
#226=VECTOR('',#1563,1.);
#227=VECTOR('',#1564,1.);
#228=VECTOR('',#1567,1.);
#229=VECTOR('',#1568,1.);
#230=VECTOR('',#1569,1.);
#231=VECTOR('',#1572,1.);
#232=VECTOR('',#1577,1.);
#233=VECTOR('',#1578,1.);
#234=VECTOR('',#1581,1.);
#235=VECTOR('',#1582,1.);
#236=VECTOR('',#1583,1.);
#237=VECTOR('',#1586,1.);
#238=VECTOR('',#1587,1.);
#239=VECTOR('',#1588,1.);
#240=VECTOR('',#1591,1.);
#241=VECTOR('',#1596,1.);
#242=VECTOR('',#1597,1.);
#243=VECTOR('',#1600,1.);
#244=VECTOR('',#1601,1.);
#245=VECTOR('',#1602,1.);
#246=VECTOR('',#1603,1.);
#247=VECTOR('',#1604,1.);
#248=VECTOR('',#1609,1.);
#249=VECTOR('',#1614,1.);
#250=VECTOR('',#1615,1.);
#251=VECTOR('',#1616,1.);
#252=VECTOR('',#1617,1.);
#253=VECTOR('',#1620,1.);
#254=VECTOR('',#1621,1.);
#255=VECTOR('',#1622,1.);
#256=VECTOR('',#1625,1.);
#257=VECTOR('',#1626,1.);
#258=VECTOR('',#1627,1.);
#259=VECTOR('',#1628,1.);
#260=VECTOR('',#1629,1.);
#261=VECTOR('',#1634,1.);
#262=VECTOR('',#1639,1.);
#263=VECTOR('',#1640,1.);
#264=VECTOR('',#1641,1.);
#265=VECTOR('',#1642,1.);
#266=VECTOR('',#1645,1.);
#267=VECTOR('',#1646,1.);
#268=VECTOR('',#1647,1.);
#269=VECTOR('',#1650,1.);
#270=VECTOR('',#1655,1.);
#271=VECTOR('',#1656,1.);
#272=VECTOR('',#1659,1.);
#273=VECTOR('',#1660,1.);
#274=VECTOR('',#1661,1.);
#275=VECTOR('',#1664,1.);
#276=VECTOR('',#1665,1.);
#277=VECTOR('',#1666,1.);
#278=VECTOR('',#1669,1.);
#279=VECTOR('',#1674,1.);
#280=VECTOR('',#1675,1.);
#281=VECTOR('',#1678,1.);
#282=VECTOR('',#1679,1.);
#283=VECTOR('',#1680,1.);
#284=VECTOR('',#1681,1.);
#285=VECTOR('',#1682,1.);
#286=VECTOR('',#1687,1.);
#287=VECTOR('',#1692,1.);
#288=VECTOR('',#1693,1.);
#289=VECTOR('',#1694,1.);
#290=VECTOR('',#1695,1.);
#291=VECTOR('',#1698,1.);
#292=VECTOR('',#1699,1.);
#293=VECTOR('',#1700,1.);
#294=VECTOR('',#1703,1.);
#295=VECTOR('',#1704,1.);
#296=VECTOR('',#1705,1.);
#297=VECTOR('',#1706,1.);
#298=VECTOR('',#1707,1.);
#299=VECTOR('',#1756,1.);
#300=VECTOR('',#1767,1.);
#301=VECTOR('',#1768,1.);
#302=VECTOR('',#1769,1.);
#303=VECTOR('',#1770,1.);
#304=VECTOR('',#1771,1.);
#305=VECTOR('',#1772,1.);
#306=VECTOR('',#1773,1.);
#307=VECTOR('',#1774,1.);
#308=VECTOR('',#1775,1.);
#309=VECTOR('',#1776,1.);
#310=VECTOR('',#1777,1.);
#311=VECTOR('',#1778,1.);
#312=VECTOR('',#1781,1.);
#313=VECTOR('',#1786,1.);
#314=VECTOR('',#1791,1.);
#315=VECTOR('',#1796,1.);
#316=ORIENTED_EDGE('',*,*,#676,.T.);
#317=ORIENTED_EDGE('',*,*,#677,.F.);
#318=ORIENTED_EDGE('',*,*,#678,.T.);
#319=ORIENTED_EDGE('',*,*,#679,.F.);
#320=ORIENTED_EDGE('',*,*,#680,.T.);
#321=ORIENTED_EDGE('',*,*,#681,.T.);
#322=ORIENTED_EDGE('',*,*,#682,.F.);
#323=ORIENTED_EDGE('',*,*,#683,.F.);
#324=ORIENTED_EDGE('',*,*,#684,.T.);
#325=ORIENTED_EDGE('',*,*,#685,.F.);
#326=ORIENTED_EDGE('',*,*,#686,.T.);
#327=ORIENTED_EDGE('',*,*,#687,.T.);
#328=ORIENTED_EDGE('',*,*,#688,.T.);
#329=ORIENTED_EDGE('',*,*,#689,.F.);
#330=ORIENTED_EDGE('',*,*,#690,.T.);
#331=ORIENTED_EDGE('',*,*,#691,.F.);
#332=ORIENTED_EDGE('',*,*,#692,.T.);
#333=ORIENTED_EDGE('',*,*,#693,.T.);
#334=ORIENTED_EDGE('',*,*,#694,.F.);
#335=ORIENTED_EDGE('',*,*,#695,.F.);
#336=ORIENTED_EDGE('',*,*,#696,.T.);
#337=ORIENTED_EDGE('',*,*,#697,.T.);
#338=ORIENTED_EDGE('',*,*,#698,.T.);
#339=ORIENTED_EDGE('',*,*,#699,.T.);
#340=ORIENTED_EDGE('',*,*,#700,.T.);
#341=ORIENTED_EDGE('',*,*,#701,.F.);
#342=ORIENTED_EDGE('',*,*,#702,.T.);
#343=ORIENTED_EDGE('',*,*,#703,.T.);
#344=ORIENTED_EDGE('',*,*,#704,.F.);
#345=ORIENTED_EDGE('',*,*,#705,.F.);
#346=ORIENTED_EDGE('',*,*,#706,.T.);
#347=ORIENTED_EDGE('',*,*,#707,.F.);
#348=ORIENTED_EDGE('',*,*,#708,.T.);
#349=ORIENTED_EDGE('',*,*,#709,.F.);
#350=ORIENTED_EDGE('',*,*,#710,.F.);
#351=ORIENTED_EDGE('',*,*,#711,.F.);
#352=ORIENTED_EDGE('',*,*,#712,.T.);
#353=ORIENTED_EDGE('',*,*,#713,.T.);
#354=ORIENTED_EDGE('',*,*,#714,.T.);
#355=ORIENTED_EDGE('',*,*,#715,.F.);
#356=ORIENTED_EDGE('',*,*,#716,.T.);
#357=ORIENTED_EDGE('',*,*,#717,.F.);
#358=ORIENTED_EDGE('',*,*,#718,.T.);
#359=ORIENTED_EDGE('',*,*,#719,.T.);
#360=ORIENTED_EDGE('',*,*,#720,.F.);
#361=ORIENTED_EDGE('',*,*,#721,.F.);
#362=ORIENTED_EDGE('',*,*,#722,.T.);
#363=ORIENTED_EDGE('',*,*,#723,.T.);
#364=ORIENTED_EDGE('',*,*,#680,.F.);
#365=ORIENTED_EDGE('',*,*,#724,.F.);
#366=ORIENTED_EDGE('',*,*,#725,.T.);
#367=ORIENTED_EDGE('',*,*,#726,.T.);
#368=ORIENTED_EDGE('',*,*,#683,.T.);
#369=ORIENTED_EDGE('',*,*,#727,.F.);
#370=ORIENTED_EDGE('',*,*,#728,.F.);
#371=ORIENTED_EDGE('',*,*,#724,.T.);
#372=ORIENTED_EDGE('',*,*,#682,.T.);
#373=ORIENTED_EDGE('',*,*,#729,.F.);
#374=ORIENTED_EDGE('',*,*,#730,.F.);
#375=ORIENTED_EDGE('',*,*,#727,.T.);
#376=ORIENTED_EDGE('',*,*,#723,.F.);
#377=ORIENTED_EDGE('',*,*,#731,.T.);
#378=ORIENTED_EDGE('',*,*,#732,.T.);
#379=ORIENTED_EDGE('',*,*,#733,.T.);
#380=ORIENTED_EDGE('',*,*,#734,.F.);
#381=ORIENTED_EDGE('',*,*,#735,.T.);
#382=ORIENTED_EDGE('',*,*,#736,.F.);
#383=ORIENTED_EDGE('',*,*,#737,.T.);
#384=ORIENTED_EDGE('',*,*,#721,.T.);
#385=ORIENTED_EDGE('',*,*,#738,.F.);
#386=ORIENTED_EDGE('',*,*,#720,.T.);
#387=ORIENTED_EDGE('',*,*,#739,.F.);
#388=ORIENTED_EDGE('',*,*,#740,.F.);
#389=ORIENTED_EDGE('',*,*,#738,.T.);
#390=ORIENTED_EDGE('',*,*,#719,.F.);
#391=ORIENTED_EDGE('',*,*,#741,.T.);
#392=ORIENTED_EDGE('',*,*,#742,.T.);
#393=ORIENTED_EDGE('',*,*,#739,.T.);
#394=ORIENTED_EDGE('',*,*,#717,.T.);
#395=ORIENTED_EDGE('',*,*,#743,.T.);
#396=ORIENTED_EDGE('',*,*,#744,.F.);
#397=ORIENTED_EDGE('',*,*,#745,.T.);
#398=ORIENTED_EDGE('',*,*,#746,.F.);
#399=ORIENTED_EDGE('',*,*,#747,.T.);
#400=ORIENTED_EDGE('',*,*,#715,.T.);
#401=ORIENTED_EDGE('',*,*,#748,.F.);
#402=ORIENTED_EDGE('',*,*,#714,.F.);
#403=ORIENTED_EDGE('',*,*,#749,.F.);
#404=ORIENTED_EDGE('',*,*,#750,.T.);
#405=ORIENTED_EDGE('',*,*,#748,.T.);
#406=ORIENTED_EDGE('',*,*,#713,.F.);
#407=ORIENTED_EDGE('',*,*,#751,.T.);
#408=ORIENTED_EDGE('',*,*,#752,.T.);
#409=ORIENTED_EDGE('',*,*,#749,.T.);
#410=ORIENTED_EDGE('',*,*,#753,.F.);
#411=ORIENTED_EDGE('',*,*,#754,.T.);
#412=ORIENTED_EDGE('',*,*,#711,.T.);
#413=ORIENTED_EDGE('',*,*,#755,.F.);
#414=ORIENTED_EDGE('',*,*,#756,.T.);
#415=ORIENTED_EDGE('',*,*,#757,.F.);
#416=ORIENTED_EDGE('',*,*,#757,.T.);
#417=ORIENTED_EDGE('',*,*,#758,.F.);
#418=ORIENTED_EDGE('',*,*,#759,.F.);
#419=ORIENTED_EDGE('',*,*,#760,.T.);
#420=ORIENTED_EDGE('',*,*,#761,.T.);
#421=ORIENTED_EDGE('',*,*,#709,.T.);
#422=ORIENTED_EDGE('',*,*,#762,.T.);
#423=ORIENTED_EDGE('',*,*,#763,.T.);
#424=ORIENTED_EDGE('',*,*,#759,.T.);
#425=ORIENTED_EDGE('',*,*,#764,.F.);
#426=ORIENTED_EDGE('',*,*,#765,.F.);
#427=ORIENTED_EDGE('',*,*,#766,.T.);
#428=ORIENTED_EDGE('',*,*,#707,.T.);
#429=ORIENTED_EDGE('',*,*,#767,.T.);
#430=ORIENTED_EDGE('',*,*,#768,.F.);
#431=ORIENTED_EDGE('',*,*,#769,.T.);
#432=ORIENTED_EDGE('',*,*,#705,.T.);
#433=ORIENTED_EDGE('',*,*,#770,.F.);
#434=ORIENTED_EDGE('',*,*,#771,.T.);
#435=ORIENTED_EDGE('',*,*,#772,.F.);
#436=ORIENTED_EDGE('',*,*,#772,.T.);
#437=ORIENTED_EDGE('',*,*,#773,.T.);
#438=ORIENTED_EDGE('',*,*,#774,.F.);
#439=ORIENTED_EDGE('',*,*,#775,.F.);
#440=ORIENTED_EDGE('',*,*,#703,.F.);
#441=ORIENTED_EDGE('',*,*,#776,.T.);
#442=ORIENTED_EDGE('',*,*,#777,.T.);
#443=ORIENTED_EDGE('',*,*,#774,.T.);
#444=ORIENTED_EDGE('',*,*,#778,.F.);
#445=ORIENTED_EDGE('',*,*,#779,.T.);
#446=ORIENTED_EDGE('',*,*,#780,.F.);
#447=ORIENTED_EDGE('',*,*,#781,.T.);
#448=ORIENTED_EDGE('',*,*,#701,.T.);
#449=ORIENTED_EDGE('',*,*,#782,.F.);
#450=ORIENTED_EDGE('',*,*,#700,.F.);
#451=ORIENTED_EDGE('',*,*,#783,.F.);
#452=ORIENTED_EDGE('',*,*,#784,.T.);
#453=ORIENTED_EDGE('',*,*,#782,.T.);
#454=ORIENTED_EDGE('',*,*,#699,.F.);
#455=ORIENTED_EDGE('',*,*,#785,.T.);
#456=ORIENTED_EDGE('',*,*,#786,.T.);
#457=ORIENTED_EDGE('',*,*,#783,.T.);
#458=ORIENTED_EDGE('',*,*,#787,.T.);
#459=ORIENTED_EDGE('',*,*,#788,.T.);
#460=ORIENTED_EDGE('',*,*,#697,.F.);
#461=ORIENTED_EDGE('',*,*,#789,.T.);
#462=ORIENTED_EDGE('',*,*,#790,.F.);
#463=ORIENTED_EDGE('',*,*,#791,.T.);
#464=ORIENTED_EDGE('',*,*,#695,.T.);
#465=ORIENTED_EDGE('',*,*,#792,.F.);
#466=ORIENTED_EDGE('',*,*,#694,.T.);
#467=ORIENTED_EDGE('',*,*,#793,.F.);
#468=ORIENTED_EDGE('',*,*,#794,.F.);
#469=ORIENTED_EDGE('',*,*,#792,.T.);
#470=ORIENTED_EDGE('',*,*,#693,.F.);
#471=ORIENTED_EDGE('',*,*,#795,.T.);
#472=ORIENTED_EDGE('',*,*,#796,.T.);
#473=ORIENTED_EDGE('',*,*,#793,.T.);
#474=ORIENTED_EDGE('',*,*,#797,.F.);
#475=ORIENTED_EDGE('',*,*,#798,.T.);
#476=ORIENTED_EDGE('',*,*,#691,.T.);
#477=ORIENTED_EDGE('',*,*,#799,.F.);
#478=ORIENTED_EDGE('',*,*,#800,.T.);
#479=ORIENTED_EDGE('',*,*,#801,.F.);
#480=ORIENTED_EDGE('',*,*,#801,.T.);
#481=ORIENTED_EDGE('',*,*,#802,.F.);
#482=ORIENTED_EDGE('',*,*,#803,.F.);
#483=ORIENTED_EDGE('',*,*,#804,.T.);
#484=ORIENTED_EDGE('',*,*,#805,.T.);
#485=ORIENTED_EDGE('',*,*,#689,.T.);
#486=ORIENTED_EDGE('',*,*,#806,.T.);
#487=ORIENTED_EDGE('',*,*,#807,.T.);
#488=ORIENTED_EDGE('',*,*,#803,.T.);
#489=ORIENTED_EDGE('',*,*,#808,.F.);
#490=ORIENTED_EDGE('',*,*,#809,.T.);
#491=ORIENTED_EDGE('',*,*,#810,.T.);
#492=ORIENTED_EDGE('',*,*,#687,.F.);
#493=ORIENTED_EDGE('',*,*,#811,.T.);
#494=ORIENTED_EDGE('',*,*,#812,.F.);
#495=ORIENTED_EDGE('',*,*,#813,.T.);
#496=ORIENTED_EDGE('',*,*,#685,.T.);
#497=ORIENTED_EDGE('',*,*,#814,.F.);
#498=ORIENTED_EDGE('',*,*,#815,.T.);
#499=ORIENTED_EDGE('',*,*,#816,.F.);
#500=ORIENTED_EDGE('',*,*,#817,.F.);
#501=ORIENTED_EDGE('',*,*,#679,.T.);
#502=ORIENTED_EDGE('',*,*,#818,.T.);
#503=ORIENTED_EDGE('',*,*,#678,.F.);
#504=ORIENTED_EDGE('',*,*,#819,.F.);
#505=ORIENTED_EDGE('',*,*,#677,.T.);
#506=ORIENTED_EDGE('',*,*,#820,.T.);
#507=ORIENTED_EDGE('',*,*,#676,.F.);
#508=ORIENTED_EDGE('',*,*,#821,.T.);
#509=ORIENTED_EDGE('',*,*,#822,.F.);
#510=ORIENTED_EDGE('',*,*,#823,.T.);
#511=ORIENTED_EDGE('',*,*,#824,.T.);
#512=ORIENTED_EDGE('',*,*,#825,.T.);
#513=ORIENTED_EDGE('',*,*,#826,.T.);
#514=ORIENTED_EDGE('',*,*,#827,.T.);
#515=ORIENTED_EDGE('',*,*,#828,.F.);
#516=ORIENTED_EDGE('',*,*,#816,.T.);
#517=ORIENTED_EDGE('',*,*,#829,.T.);
#518=ORIENTED_EDGE('',*,*,#733,.F.);
#519=ORIENTED_EDGE('',*,*,#830,.F.);
#520=ORIENTED_EDGE('',*,*,#681,.F.);
#521=ORIENTED_EDGE('',*,*,#726,.F.);
#522=ORIENTED_EDGE('',*,*,#831,.T.);
#523=ORIENTED_EDGE('',*,*,#729,.T.);
#524=ORIENTED_EDGE('',*,*,#832,.T.);
#525=ORIENTED_EDGE('',*,*,#833,.T.);
#526=ORIENTED_EDGE('',*,*,#834,.T.);
#527=ORIENTED_EDGE('',*,*,#835,.T.);
#528=ORIENTED_EDGE('',*,*,#732,.F.);
#529=ORIENTED_EDGE('',*,*,#836,.T.);
#530=ORIENTED_EDGE('',*,*,#736,.T.);
#531=ORIENTED_EDGE('',*,*,#740,.T.);
#532=ORIENTED_EDGE('',*,*,#742,.F.);
#533=ORIENTED_EDGE('',*,*,#837,.T.);
#534=ORIENTED_EDGE('',*,*,#744,.T.);
#535=ORIENTED_EDGE('',*,*,#838,.T.);
#536=ORIENTED_EDGE('',*,*,#746,.T.);
#537=ORIENTED_EDGE('',*,*,#750,.F.);
#538=ORIENTED_EDGE('',*,*,#752,.F.);
#539=ORIENTED_EDGE('',*,*,#839,.T.);
#540=ORIENTED_EDGE('',*,*,#753,.T.);
#541=ORIENTED_EDGE('',*,*,#760,.F.);
#542=ORIENTED_EDGE('',*,*,#763,.F.);
#543=ORIENTED_EDGE('',*,*,#840,.T.);
#544=ORIENTED_EDGE('',*,*,#765,.T.);
#545=ORIENTED_EDGE('',*,*,#841,.T.);
#546=ORIENTED_EDGE('',*,*,#768,.T.);
#547=ORIENTED_EDGE('',*,*,#775,.T.);
#548=ORIENTED_EDGE('',*,*,#777,.F.);
#549=ORIENTED_EDGE('',*,*,#842,.T.);
#550=ORIENTED_EDGE('',*,*,#780,.T.);
#551=ORIENTED_EDGE('',*,*,#784,.F.);
#552=ORIENTED_EDGE('',*,*,#786,.F.);
#553=ORIENTED_EDGE('',*,*,#843,.T.);
#554=ORIENTED_EDGE('',*,*,#787,.F.);
#555=ORIENTED_EDGE('',*,*,#844,.T.);
#556=ORIENTED_EDGE('',*,*,#790,.T.);
#557=ORIENTED_EDGE('',*,*,#794,.T.);
#558=ORIENTED_EDGE('',*,*,#796,.F.);
#559=ORIENTED_EDGE('',*,*,#845,.T.);
#560=ORIENTED_EDGE('',*,*,#797,.T.);
#561=ORIENTED_EDGE('',*,*,#804,.F.);
#562=ORIENTED_EDGE('',*,*,#807,.F.);
#563=ORIENTED_EDGE('',*,*,#846,.T.);
#564=ORIENTED_EDGE('',*,*,#809,.F.);
#565=ORIENTED_EDGE('',*,*,#847,.T.);
#566=ORIENTED_EDGE('',*,*,#812,.T.);
#567=ORIENTED_EDGE('',*,*,#830,.T.);
#568=ORIENTED_EDGE('',*,*,#820,.F.);
#569=ORIENTED_EDGE('',*,*,#819,.T.);
#570=ORIENTED_EDGE('',*,*,#818,.F.);
#571=ORIENTED_EDGE('',*,*,#817,.T.);
#572=ORIENTED_EDGE('',*,*,#725,.F.);
#573=ORIENTED_EDGE('',*,*,#728,.T.);
#574=ORIENTED_EDGE('',*,*,#730,.T.);
#575=ORIENTED_EDGE('',*,*,#831,.F.);
#576=ORIENTED_EDGE('',*,*,#684,.F.);
#577=ORIENTED_EDGE('',*,*,#735,.F.);
#578=ORIENTED_EDGE('',*,*,#848,.T.);
#579=ORIENTED_EDGE('',*,*,#814,.T.);
#580=ORIENTED_EDGE('',*,*,#734,.T.);
#581=ORIENTED_EDGE('',*,*,#829,.F.);
#582=ORIENTED_EDGE('',*,*,#815,.F.);
#583=ORIENTED_EDGE('',*,*,#848,.F.);
#584=ORIENTED_EDGE('',*,*,#828,.T.);
#585=ORIENTED_EDGE('',*,*,#704,.T.);
#586=ORIENTED_EDGE('',*,*,#779,.F.);
#587=ORIENTED_EDGE('',*,*,#849,.F.);
#588=ORIENTED_EDGE('',*,*,#770,.T.);
#589=ORIENTED_EDGE('',*,*,#849,.T.);
#590=ORIENTED_EDGE('',*,*,#778,.T.);
#591=ORIENTED_EDGE('',*,*,#773,.F.);
#592=ORIENTED_EDGE('',*,*,#771,.F.);
#593=ORIENTED_EDGE('',*,*,#822,.T.);
#594=ORIENTED_EDGE('',*,*,#710,.T.);
#595=ORIENTED_EDGE('',*,*,#761,.F.);
#596=ORIENTED_EDGE('',*,*,#850,.F.);
#597=ORIENTED_EDGE('',*,*,#755,.T.);
#598=ORIENTED_EDGE('',*,*,#850,.T.);
#599=ORIENTED_EDGE('',*,*,#764,.T.);
#600=ORIENTED_EDGE('',*,*,#758,.T.);
#601=ORIENTED_EDGE('',*,*,#756,.F.);
#602=ORIENTED_EDGE('',*,*,#824,.F.);
#603=ORIENTED_EDGE('',*,*,#690,.F.);
#604=ORIENTED_EDGE('',*,*,#805,.F.);
#605=ORIENTED_EDGE('',*,*,#851,.T.);
#606=ORIENTED_EDGE('',*,*,#799,.T.);
#607=ORIENTED_EDGE('',*,*,#808,.T.);
#608=ORIENTED_EDGE('',*,*,#802,.T.);
#609=ORIENTED_EDGE('',*,*,#800,.F.);
#610=ORIENTED_EDGE('',*,*,#851,.F.);
#611=ORIENTED_EDGE('',*,*,#826,.F.);
#612=ORIENTED_EDGE('',*,*,#823,.F.);
#613=ORIENTED_EDGE('',*,*,#832,.F.);
#614=ORIENTED_EDGE('',*,*,#833,.F.);
#615=ORIENTED_EDGE('',*,*,#821,.F.);
#616=ORIENTED_EDGE('',*,*,#825,.F.);
#617=ORIENTED_EDGE('',*,*,#834,.F.);
#618=ORIENTED_EDGE('',*,*,#835,.F.);
#619=ORIENTED_EDGE('',*,*,#827,.F.);
#620=ORIENTED_EDGE('',*,*,#838,.F.);
#621=ORIENTED_EDGE('',*,*,#743,.F.);
#622=ORIENTED_EDGE('',*,*,#716,.F.);
#623=ORIENTED_EDGE('',*,*,#747,.F.);
#624=ORIENTED_EDGE('',*,*,#839,.F.);
#625=ORIENTED_EDGE('',*,*,#751,.F.);
#626=ORIENTED_EDGE('',*,*,#712,.F.);
#627=ORIENTED_EDGE('',*,*,#754,.F.);
#628=ORIENTED_EDGE('',*,*,#842,.F.);
#629=ORIENTED_EDGE('',*,*,#776,.F.);
#630=ORIENTED_EDGE('',*,*,#702,.F.);
#631=ORIENTED_EDGE('',*,*,#781,.F.);
#632=ORIENTED_EDGE('',*,*,#843,.F.);
#633=ORIENTED_EDGE('',*,*,#785,.F.);
#634=ORIENTED_EDGE('',*,*,#698,.F.);
#635=ORIENTED_EDGE('',*,*,#788,.F.);
#636=ORIENTED_EDGE('',*,*,#844,.F.);
#637=ORIENTED_EDGE('',*,*,#789,.F.);
#638=ORIENTED_EDGE('',*,*,#696,.F.);
#639=ORIENTED_EDGE('',*,*,#791,.F.);
#640=ORIENTED_EDGE('',*,*,#845,.F.);
#641=ORIENTED_EDGE('',*,*,#795,.F.);
#642=ORIENTED_EDGE('',*,*,#692,.F.);
#643=ORIENTED_EDGE('',*,*,#798,.F.);
#644=ORIENTED_EDGE('',*,*,#837,.F.);
#645=ORIENTED_EDGE('',*,*,#741,.F.);
#646=ORIENTED_EDGE('',*,*,#718,.F.);
#647=ORIENTED_EDGE('',*,*,#745,.F.);
#648=ORIENTED_EDGE('',*,*,#836,.F.);
#649=ORIENTED_EDGE('',*,*,#731,.F.);
#650=ORIENTED_EDGE('',*,*,#722,.F.);
#651=ORIENTED_EDGE('',*,*,#737,.F.);
#652=ORIENTED_EDGE('',*,*,#840,.F.);
#653=ORIENTED_EDGE('',*,*,#762,.F.);
#654=ORIENTED_EDGE('',*,*,#708,.F.);
#655=ORIENTED_EDGE('',*,*,#766,.F.);
#656=ORIENTED_EDGE('',*,*,#841,.F.);
#657=ORIENTED_EDGE('',*,*,#767,.F.);
#658=ORIENTED_EDGE('',*,*,#706,.F.);
#659=ORIENTED_EDGE('',*,*,#769,.F.);
#660=ORIENTED_EDGE('',*,*,#846,.F.);
#661=ORIENTED_EDGE('',*,*,#806,.F.);
#662=ORIENTED_EDGE('',*,*,#688,.F.);
#663=ORIENTED_EDGE('',*,*,#810,.F.);
#664=ORIENTED_EDGE('',*,*,#847,.F.);
#665=ORIENTED_EDGE('',*,*,#811,.F.);
#666=ORIENTED_EDGE('',*,*,#686,.F.);
#667=ORIENTED_EDGE('',*,*,#813,.F.);
#668=ORIENTED_EDGE('',*,*,#852,.T.);
#669=ORIENTED_EDGE('',*,*,#853,.F.);
#670=ORIENTED_EDGE('',*,*,#854,.F.);
#671=ORIENTED_EDGE('',*,*,#855,.T.);
#672=ORIENTED_EDGE('',*,*,#852,.F.);
#673=ORIENTED_EDGE('',*,*,#854,.T.);
#674=ORIENTED_EDGE('',*,*,#853,.T.);
#675=ORIENTED_EDGE('',*,*,#855,.F.);
#676=EDGE_CURVE('',#856,#856,#984,.T.);
#677=EDGE_CURVE('',#857,#857,#985,.T.);
#678=EDGE_CURVE('',#858,#858,#986,.T.);
#679=EDGE_CURVE('',#859,#859,#987,.T.);
#680=EDGE_CURVE('',#860,#861,#36,.T.);
#681=EDGE_CURVE('',#861,#862,#37,.T.);
#682=EDGE_CURVE('',#863,#862,#38,.T.);
#683=EDGE_CURVE('',#860,#863,#39,.T.);
#684=EDGE_CURVE('',#864,#865,#40,.T.);
#685=EDGE_CURVE('',#866,#865,#41,.T.);
#686=EDGE_CURVE('',#866,#867,#42,.T.);
#687=EDGE_CURVE('',#867,#868,#43,.T.);
#688=EDGE_CURVE('',#868,#869,#44,.F.);
#689=EDGE_CURVE('',#870,#869,#45,.T.);
#690=EDGE_CURVE('',#870,#871,#46,.T.);
#691=EDGE_CURVE('',#872,#871,#47,.T.);
#692=EDGE_CURVE('',#872,#873,#48,.T.);
#693=EDGE_CURVE('',#873,#874,#49,.T.);
#694=EDGE_CURVE('',#875,#874,#988,.T.);
#695=EDGE_CURVE('',#876,#875,#50,.T.);
#696=EDGE_CURVE('',#876,#877,#51,.T.);
#697=EDGE_CURVE('',#877,#878,#52,.T.);
#698=EDGE_CURVE('',#878,#879,#53,.F.);
#699=EDGE_CURVE('',#879,#880,#54,.T.);
#700=EDGE_CURVE('',#880,#881,#989,.T.);
#701=EDGE_CURVE('',#882,#881,#55,.T.);
#702=EDGE_CURVE('',#882,#883,#56,.T.);
#703=EDGE_CURVE('',#883,#884,#57,.T.);
#704=EDGE_CURVE('',#885,#884,#58,.T.);
#705=EDGE_CURVE('',#886,#885,#59,.T.);
#706=EDGE_CURVE('',#886,#887,#60,.F.);
#707=EDGE_CURVE('',#888,#887,#61,.T.);
#708=EDGE_CURVE('',#888,#889,#62,.T.);
#709=EDGE_CURVE('',#890,#889,#63,.T.);
#710=EDGE_CURVE('',#891,#890,#64,.T.);
#711=EDGE_CURVE('',#892,#891,#65,.T.);
#712=EDGE_CURVE('',#892,#893,#66,.T.);
#713=EDGE_CURVE('',#893,#894,#67,.T.);
#714=EDGE_CURVE('',#894,#895,#990,.T.);
#715=EDGE_CURVE('',#896,#895,#68,.T.);
#716=EDGE_CURVE('',#896,#897,#69,.F.);
#717=EDGE_CURVE('',#898,#897,#70,.T.);
#718=EDGE_CURVE('',#898,#899,#71,.T.);
#719=EDGE_CURVE('',#899,#900,#72,.T.);
#720=EDGE_CURVE('',#901,#900,#991,.T.);
#721=EDGE_CURVE('',#902,#901,#73,.T.);
#722=EDGE_CURVE('',#902,#903,#74,.T.);
#723=EDGE_CURVE('',#903,#864,#75,.T.);
#724=EDGE_CURVE('',#904,#860,#76,.T.);
#725=EDGE_CURVE('',#904,#905,#77,.T.);
#726=EDGE_CURVE('',#905,#861,#78,.T.);
#727=EDGE_CURVE('',#906,#863,#79,.T.);
#728=EDGE_CURVE('',#904,#906,#80,.T.);
#729=EDGE_CURVE('',#907,#862,#81,.T.);
#730=EDGE_CURVE('',#906,#907,#82,.T.);
#731=EDGE_CURVE('',#903,#908,#83,.T.);
#732=EDGE_CURVE('',#908,#909,#84,.T.);
#733=EDGE_CURVE('',#909,#910,#85,.T.);
#734=EDGE_CURVE('',#911,#910,#86,.T.);
#735=EDGE_CURVE('',#911,#864,#87,.T.);
#736=EDGE_CURVE('',#912,#913,#88,.T.);
#737=EDGE_CURVE('',#912,#902,#89,.T.);
#738=EDGE_CURVE('',#913,#901,#90,.T.);
#739=EDGE_CURVE('',#914,#900,#91,.T.);
#740=EDGE_CURVE('',#913,#914,#992,.T.);
#741=EDGE_CURVE('',#899,#915,#92,.T.);
#742=EDGE_CURVE('',#915,#914,#93,.T.);
#743=EDGE_CURVE('',#897,#916,#94,.T.);
#744=EDGE_CURVE('',#917,#916,#95,.T.);
#745=EDGE_CURVE('',#917,#898,#96,.T.);
#746=EDGE_CURVE('',#918,#919,#97,.T.);
#747=EDGE_CURVE('',#918,#896,#98,.T.);
#748=EDGE_CURVE('',#919,#895,#99,.T.);
#749=EDGE_CURVE('',#920,#894,#100,.T.);
#750=EDGE_CURVE('',#920,#919,#993,.T.);
#751=EDGE_CURVE('',#893,#921,#101,.T.);
#752=EDGE_CURVE('',#921,#920,#102,.T.);
#753=EDGE_CURVE('',#922,#923,#103,.T.);
#754=EDGE_CURVE('',#922,#892,#104,.T.);
#755=EDGE_CURVE('',#924,#891,#105,.T.);
#756=EDGE_CURVE('',#924,#925,#106,.T.);
#757=EDGE_CURVE('',#923,#925,#107,.T.);
#758=EDGE_CURVE('',#926,#925,#994,.T.);
#759=EDGE_CURVE('',#927,#926,#108,.T.);
#760=EDGE_CURVE('',#927,#923,#995,.T.);
#761=EDGE_CURVE('',#928,#890,#109,.T.);
#762=EDGE_CURVE('',#889,#929,#110,.T.);
#763=EDGE_CURVE('',#929,#927,#111,.T.);
#764=EDGE_CURVE('',#928,#926,#112,.T.);
#765=EDGE_CURVE('',#930,#931,#113,.T.);
#766=EDGE_CURVE('',#930,#888,#114,.T.);
#767=EDGE_CURVE('',#887,#931,#115,.T.);
#768=EDGE_CURVE('',#932,#933,#116,.T.);
#769=EDGE_CURVE('',#932,#886,#117,.T.);
#770=EDGE_CURVE('',#934,#885,#118,.T.);
#771=EDGE_CURVE('',#934,#935,#119,.T.);
#772=EDGE_CURVE('',#933,#935,#120,.T.);
#773=EDGE_CURVE('',#935,#936,#996,.T.);
#774=EDGE_CURVE('',#937,#936,#121,.T.);
#775=EDGE_CURVE('',#933,#937,#997,.T.);
#776=EDGE_CURVE('',#883,#938,#122,.T.);
#777=EDGE_CURVE('',#938,#937,#123,.T.);
#778=EDGE_CURVE('',#939,#936,#124,.T.);
#779=EDGE_CURVE('',#939,#884,#125,.T.);
#780=EDGE_CURVE('',#940,#941,#126,.T.);
#781=EDGE_CURVE('',#940,#882,#127,.T.);
#782=EDGE_CURVE('',#941,#881,#128,.T.);
#783=EDGE_CURVE('',#942,#880,#129,.T.);
#784=EDGE_CURVE('',#942,#941,#998,.T.);
#785=EDGE_CURVE('',#879,#943,#130,.T.);
#786=EDGE_CURVE('',#943,#942,#131,.T.);
#787=EDGE_CURVE('',#944,#945,#132,.T.);
#788=EDGE_CURVE('',#945,#878,#133,.T.);
#789=EDGE_CURVE('',#877,#944,#134,.T.);
#790=EDGE_CURVE('',#946,#947,#135,.T.);
#791=EDGE_CURVE('',#946,#876,#136,.T.);
#792=EDGE_CURVE('',#947,#875,#137,.T.);
#793=EDGE_CURVE('',#948,#874,#138,.T.);
#794=EDGE_CURVE('',#947,#948,#999,.T.);
#795=EDGE_CURVE('',#873,#949,#139,.T.);
#796=EDGE_CURVE('',#949,#948,#140,.T.);
#797=EDGE_CURVE('',#950,#951,#141,.T.);
#798=EDGE_CURVE('',#950,#872,#142,.T.);
#799=EDGE_CURVE('',#952,#871,#143,.T.);
#800=EDGE_CURVE('',#952,#953,#144,.T.);
#801=EDGE_CURVE('',#951,#953,#145,.T.);
#802=EDGE_CURVE('',#954,#953,#1000,.T.);
#803=EDGE_CURVE('',#955,#954,#146,.T.);
#804=EDGE_CURVE('',#955,#951,#1001,.T.);
#805=EDGE_CURVE('',#956,#870,#147,.T.);
#806=EDGE_CURVE('',#869,#957,#148,.T.);
#807=EDGE_CURVE('',#957,#955,#149,.T.);
#808=EDGE_CURVE('',#956,#954,#150,.T.);
#809=EDGE_CURVE('',#958,#959,#151,.T.);
#810=EDGE_CURVE('',#959,#868,#152,.T.);
#811=EDGE_CURVE('',#867,#958,#153,.T.);
#812=EDGE_CURVE('',#960,#961,#154,.T.);
#813=EDGE_CURVE('',#960,#866,#155,.T.);
#814=EDGE_CURVE('',#962,#865,#156,.T.);
#815=EDGE_CURVE('',#962,#963,#157,.T.);
#816=EDGE_CURVE('',#961,#963,#158,.T.);
#817=EDGE_CURVE('',#964,#964,#1002,.T.);
#818=EDGE_CURVE('',#965,#965,#1003,.T.);
#819=EDGE_CURVE('',#966,#966,#1004,.T.);
#820=EDGE_CURVE('',#967,#967,#1005,.T.);
#821=EDGE_CURVE('',#968,#968,#1006,.T.);
#822=EDGE_CURVE('',#969,#969,#1007,.T.);
#823=EDGE_CURVE('',#970,#970,#1008,.T.);
#824=EDGE_CURVE('',#971,#971,#1009,.T.);
#825=EDGE_CURVE('',#972,#972,#1010,.T.);
#826=EDGE_CURVE('',#973,#973,#1011,.T.);
#827=EDGE_CURVE('',#974,#974,#1012,.T.);
#828=EDGE_CURVE('',#975,#975,#1013,.T.);
#829=EDGE_CURVE('',#963,#910,#1014,.T.);
#830=EDGE_CURVE('',#961,#909,#1015,.T.);
#831=EDGE_CURVE('',#905,#907,#159,.T.);
#832=EDGE_CURVE('',#976,#976,#1016,.F.);
#833=EDGE_CURVE('',#977,#977,#1017,.F.);
#834=EDGE_CURVE('',#978,#978,#1018,.F.);
#835=EDGE_CURVE('',#979,#979,#1019,.F.);
#836=EDGE_CURVE('',#908,#912,#160,.T.);
#837=EDGE_CURVE('',#915,#917,#161,.T.);
#838=EDGE_CURVE('',#916,#918,#162,.F.);
#839=EDGE_CURVE('',#921,#922,#163,.T.);
#840=EDGE_CURVE('',#929,#930,#164,.T.);
#841=EDGE_CURVE('',#931,#932,#165,.F.);
#842=EDGE_CURVE('',#938,#940,#166,.T.);
#843=EDGE_CURVE('',#943,#945,#167,.F.);
#844=EDGE_CURVE('',#944,#946,#168,.T.);
#845=EDGE_CURVE('',#949,#950,#169,.T.);
#846=EDGE_CURVE('',#957,#959,#170,.F.);
#847=EDGE_CURVE('',#958,#960,#171,.T.);
#848=EDGE_CURVE('',#911,#962,#172,.T.);
#849=EDGE_CURVE('',#934,#939,#173,.T.);
#850=EDGE_CURVE('',#924,#928,#174,.T.);
#851=EDGE_CURVE('',#956,#952,#175,.T.);
#852=EDGE_CURVE('',#980,#980,#1020,.T.);
#853=EDGE_CURVE('',#981,#981,#1021,.T.);
#854=EDGE_CURVE('',#982,#982,#1022,.T.);
#855=EDGE_CURVE('',#983,#983,#1023,.T.);
#856=VERTEX_POINT('',#1852);
#857=VERTEX_POINT('',#1854);
#858=VERTEX_POINT('',#1856);
#859=VERTEX_POINT('',#1858);
#860=VERTEX_POINT('',#1860);
#861=VERTEX_POINT('',#1861);
#862=VERTEX_POINT('',#1863);
#863=VERTEX_POINT('',#1865);
#864=VERTEX_POINT('',#1868);
#865=VERTEX_POINT('',#1869);
#866=VERTEX_POINT('',#1871);
#867=VERTEX_POINT('',#1873);
#868=VERTEX_POINT('',#1875);
#869=VERTEX_POINT('',#1877);
#870=VERTEX_POINT('',#1879);
#871=VERTEX_POINT('',#1881);
#872=VERTEX_POINT('',#1883);
#873=VERTEX_POINT('',#1885);
#874=VERTEX_POINT('',#1887);
#875=VERTEX_POINT('',#1889);
#876=VERTEX_POINT('',#1891);
#877=VERTEX_POINT('',#1893);
#878=VERTEX_POINT('',#1895);
#879=VERTEX_POINT('',#1897);
#880=VERTEX_POINT('',#1899);
#881=VERTEX_POINT('',#1901);
#882=VERTEX_POINT('',#1903);
#883=VERTEX_POINT('',#1905);
#884=VERTEX_POINT('',#1907);
#885=VERTEX_POINT('',#1909);
#886=VERTEX_POINT('',#1911);
#887=VERTEX_POINT('',#1913);
#888=VERTEX_POINT('',#1915);
#889=VERTEX_POINT('',#1917);
#890=VERTEX_POINT('',#1919);
#891=VERTEX_POINT('',#1921);
#892=VERTEX_POINT('',#1923);
#893=VERTEX_POINT('',#1925);
#894=VERTEX_POINT('',#1927);
#895=VERTEX_POINT('',#1929);
#896=VERTEX_POINT('',#1931);
#897=VERTEX_POINT('',#1933);
#898=VERTEX_POINT('',#1935);
#899=VERTEX_POINT('',#1937);
#900=VERTEX_POINT('',#1939);
#901=VERTEX_POINT('',#1941);
#902=VERTEX_POINT('',#1943);
#903=VERTEX_POINT('',#1945);
#904=VERTEX_POINT('',#1949);
#905=VERTEX_POINT('',#1951);
#906=VERTEX_POINT('',#1955);
#907=VERTEX_POINT('',#1959);
#908=VERTEX_POINT('',#1963);
#909=VERTEX_POINT('',#1965);
#910=VERTEX_POINT('',#1967);
#911=VERTEX_POINT('',#1969);
#912=VERTEX_POINT('',#1973);
#913=VERTEX_POINT('',#1974);
#914=VERTEX_POINT('',#1979);
#915=VERTEX_POINT('',#1983);
#916=VERTEX_POINT('',#1987);
#917=VERTEX_POINT('',#1989);
#918=VERTEX_POINT('',#1993);
#919=VERTEX_POINT('',#1994);
#920=VERTEX_POINT('',#1999);
#921=VERTEX_POINT('',#2003);
#922=VERTEX_POINT('',#2007);
#923=VERTEX_POINT('',#2008);
#924=VERTEX_POINT('',#2011);
#925=VERTEX_POINT('',#2013);
#926=VERTEX_POINT('',#2017);
#927=VERTEX_POINT('',#2019);
#928=VERTEX_POINT('',#2023);
#929=VERTEX_POINT('',#2025);
#930=VERTEX_POINT('',#2030);
#931=VERTEX_POINT('',#2031);
#932=VERTEX_POINT('',#2036);
#933=VERTEX_POINT('',#2037);
#934=VERTEX_POINT('',#2040);
#935=VERTEX_POINT('',#2042);
#936=VERTEX_POINT('',#2046);
#937=VERTEX_POINT('',#2048);
#938=VERTEX_POINT('',#2052);
#939=VERTEX_POINT('',#2055);
#940=VERTEX_POINT('',#2059);
#941=VERTEX_POINT('',#2060);
#942=VERTEX_POINT('',#2065);
#943=VERTEX_POINT('',#2069);
#944=VERTEX_POINT('',#2073);
#945=VERTEX_POINT('',#2074);
#946=VERTEX_POINT('',#2079);
#947=VERTEX_POINT('',#2080);
#948=VERTEX_POINT('',#2085);
#949=VERTEX_POINT('',#2089);
#950=VERTEX_POINT('',#2093);
#951=VERTEX_POINT('',#2094);
#952=VERTEX_POINT('',#2097);
#953=VERTEX_POINT('',#2099);
#954=VERTEX_POINT('',#2103);
#955=VERTEX_POINT('',#2105);
#956=VERTEX_POINT('',#2109);
#957=VERTEX_POINT('',#2111);
#958=VERTEX_POINT('',#2116);
#959=VERTEX_POINT('',#2117);
#960=VERTEX_POINT('',#2122);
#961=VERTEX_POINT('',#2123);
#962=VERTEX_POINT('',#2126);
#963=VERTEX_POINT('',#2128);
#964=VERTEX_POINT('',#2132);
#965=VERTEX_POINT('',#2135);
#966=VERTEX_POINT('',#2138);
#967=VERTEX_POINT('',#2141);
#968=VERTEX_POINT('',#2144);
#969=VERTEX_POINT('',#2146);
#970=VERTEX_POINT('',#2149);
#971=VERTEX_POINT('',#2151);
#972=VERTEX_POINT('',#2154);
#973=VERTEX_POINT('',#2156);
#974=VERTEX_POINT('',#2159);
#975=VERTEX_POINT('',#2161);
#976=VERTEX_POINT('',#2169);
#977=VERTEX_POINT('',#2171);
#978=VERTEX_POINT('',#2173);
#979=VERTEX_POINT('',#2175);
#980=VERTEX_POINT('',#2219);
#981=VERTEX_POINT('',#2221);
#982=VERTEX_POINT('',#2224);
#983=VERTEX_POINT('',#2226);
#984=CIRCLE('',#1375,0.0017);
#985=CIRCLE('',#1376,0.0017);
#986=CIRCLE('',#1377,0.0017);
#987=CIRCLE('',#1378,0.0017);
#988=CIRCLE('',#1379,0.0027);
#989=CIRCLE('',#1380,0.0027);
#990=CIRCLE('',#1381,0.0027);
#991=CIRCLE('',#1382,0.0027);
#992=CIRCLE('',#1389,0.0027);
#993=CIRCLE('',#1394,0.0027);
#994=CIRCLE('',#1398,0.004);
#995=CIRCLE('',#1399,0.004);
#996=CIRCLE('',#1404,0.004);
#997=CIRCLE('',#1405,0.004);
#998=CIRCLE('',#1409,0.0027);
#999=CIRCLE('',#1414,0.0027);
#1000=CIRCLE('',#1418,0.004);
#1001=CIRCLE('',#1419,0.004);
#1002=CIRCLE('',#1424,0.0017);
#1003=CIRCLE('',#1426,0.0017);
#1004=CIRCLE('',#1428,0.0017);
#1005=CIRCLE('',#1430,0.0017);
#1006=CIRCLE('',#1432,0.0017);
#1007=CIRCLE('',#1433,0.0017);
#1008=CIRCLE('',#1435,0.0017);
#1009=CIRCLE('',#1436,0.0017);
#1010=CIRCLE('',#1438,0.0017);
#1011=CIRCLE('',#1439,0.0017);
#1012=CIRCLE('',#1441,0.0017);
#1013=CIRCLE('',#1442,0.0017);
#1014=CIRCLE('',#1444,0.004);
#1015=CIRCLE('',#1445,0.004);
#1016=CIRCLE('',#1448,0.00297);
#1017=CIRCLE('',#1449,0.00297);
#1018=CIRCLE('',#1450,0.00297);
#1019=CIRCLE('',#1451,0.00297);
#1020=CIRCLE('',#1478,0.0017);
#1021=CIRCLE('',#1479,0.0017);
#1022=CIRCLE('',#1481,0.0027);
#1023=CIRCLE('',#1482,0.0027);
#1024=EDGE_LOOP('',(#316));
#1025=EDGE_LOOP('',(#317));
#1026=EDGE_LOOP('',(#318));
#1027=EDGE_LOOP('',(#319));
#1028=EDGE_LOOP('',(#320,#321,#322,#323));
#1029=EDGE_LOOP('',(#324,#325,#326,#327,#328,#329,#330,#331,#332,#333,#334,
#335,#336,#337,#338,#339,#340,#341,#342,#343,#344,#345,#346,#347,#348,#349,
#350,#351,#352,#353,#354,#355,#356,#357,#358,#359,#360,#361,#362,#363));
#1030=EDGE_LOOP('',(#364,#365,#366,#367));
#1031=EDGE_LOOP('',(#368,#369,#370,#371));
#1032=EDGE_LOOP('',(#372,#373,#374,#375));
#1033=EDGE_LOOP('',(#376,#377,#378,#379,#380,#381));
#1034=EDGE_LOOP('',(#382,#383,#384,#385));
#1035=EDGE_LOOP('',(#386,#387,#388,#389));
#1036=EDGE_LOOP('',(#390,#391,#392,#393));
#1037=EDGE_LOOP('',(#394,#395,#396,#397));
#1038=EDGE_LOOP('',(#398,#399,#400,#401));
#1039=EDGE_LOOP('',(#402,#403,#404,#405));
#1040=EDGE_LOOP('',(#406,#407,#408,#409));
#1041=EDGE_LOOP('',(#410,#411,#412,#413,#414,#415));
#1042=EDGE_LOOP('',(#416,#417,#418,#419));
#1043=EDGE_LOOP('',(#420,#421,#422,#423,#424,#425));
#1044=EDGE_LOOP('',(#426,#427,#428,#429));
#1045=EDGE_LOOP('',(#430,#431,#432,#433,#434,#435));
#1046=EDGE_LOOP('',(#436,#437,#438,#439));
#1047=EDGE_LOOP('',(#440,#441,#442,#443,#444,#445));
#1048=EDGE_LOOP('',(#446,#447,#448,#449));
#1049=EDGE_LOOP('',(#450,#451,#452,#453));
#1050=EDGE_LOOP('',(#454,#455,#456,#457));
#1051=EDGE_LOOP('',(#458,#459,#460,#461));
#1052=EDGE_LOOP('',(#462,#463,#464,#465));
#1053=EDGE_LOOP('',(#466,#467,#468,#469));
#1054=EDGE_LOOP('',(#470,#471,#472,#473));
#1055=EDGE_LOOP('',(#474,#475,#476,#477,#478,#479));
#1056=EDGE_LOOP('',(#480,#481,#482,#483));
#1057=EDGE_LOOP('',(#484,#485,#486,#487,#488,#489));
#1058=EDGE_LOOP('',(#490,#491,#492,#493));
#1059=EDGE_LOOP('',(#494,#495,#496,#497,#498,#499));
#1060=EDGE_LOOP('',(#500));
#1061=EDGE_LOOP('',(#501));
#1062=EDGE_LOOP('',(#502));
#1063=EDGE_LOOP('',(#503));
#1064=EDGE_LOOP('',(#504));
#1065=EDGE_LOOP('',(#505));
#1066=EDGE_LOOP('',(#506));
#1067=EDGE_LOOP('',(#507));
#1068=EDGE_LOOP('',(#508));
#1069=EDGE_LOOP('',(#509));
#1070=EDGE_LOOP('',(#510));
#1071=EDGE_LOOP('',(#511));
#1072=EDGE_LOOP('',(#512));
#1073=EDGE_LOOP('',(#513));
#1074=EDGE_LOOP('',(#514));
#1075=EDGE_LOOP('',(#515));
#1076=EDGE_LOOP('',(#516,#517,#518,#519));
#1077=EDGE_LOOP('',(#520,#521,#522,#523));
#1078=EDGE_LOOP('',(#524));
#1079=EDGE_LOOP('',(#525));
#1080=EDGE_LOOP('',(#526));
#1081=EDGE_LOOP('',(#527));
#1082=EDGE_LOOP('',(#528,#529,#530,#531,#532,#533,#534,#535,#536,#537,#538,
#539,#540,#541,#542,#543,#544,#545,#546,#547,#548,#549,#550,#551,#552,#553,
#554,#555,#556,#557,#558,#559,#560,#561,#562,#563,#564,#565,#566,#567));
#1083=EDGE_LOOP('',(#568));
#1084=EDGE_LOOP('',(#569));
#1085=EDGE_LOOP('',(#570));
#1086=EDGE_LOOP('',(#571));
#1087=EDGE_LOOP('',(#572,#573,#574,#575));
#1088=EDGE_LOOP('',(#576,#577,#578,#579));
#1089=EDGE_LOOP('',(#580,#581,#582,#583));
#1090=EDGE_LOOP('',(#584));
#1091=EDGE_LOOP('',(#585,#586,#587,#588));
#1092=EDGE_LOOP('',(#589,#590,#591,#592));
#1093=EDGE_LOOP('',(#593));
#1094=EDGE_LOOP('',(#594,#595,#596,#597));
#1095=EDGE_LOOP('',(#598,#599,#600,#601));
#1096=EDGE_LOOP('',(#602));
#1097=EDGE_LOOP('',(#603,#604,#605,#606));
#1098=EDGE_LOOP('',(#607,#608,#609,#610));
#1099=EDGE_LOOP('',(#611));
#1100=EDGE_LOOP('',(#612));
#1101=EDGE_LOOP('',(#613));
#1102=EDGE_LOOP('',(#614));
#1103=EDGE_LOOP('',(#615));
#1104=EDGE_LOOP('',(#616));
#1105=EDGE_LOOP('',(#617));
#1106=EDGE_LOOP('',(#618));
#1107=EDGE_LOOP('',(#619));
#1108=EDGE_LOOP('',(#620,#621,#622,#623));
#1109=EDGE_LOOP('',(#624,#625,#626,#627));
#1110=EDGE_LOOP('',(#628,#629,#630,#631));
#1111=EDGE_LOOP('',(#632,#633,#634,#635));
#1112=EDGE_LOOP('',(#636,#637,#638,#639));
#1113=EDGE_LOOP('',(#640,#641,#642,#643));
#1114=EDGE_LOOP('',(#644,#645,#646,#647));
#1115=EDGE_LOOP('',(#648,#649,#650,#651));
#1116=EDGE_LOOP('',(#652,#653,#654,#655));
#1117=EDGE_LOOP('',(#656,#657,#658,#659));
#1118=EDGE_LOOP('',(#660,#661,#662,#663));
#1119=EDGE_LOOP('',(#664,#665,#666,#667));
#1120=EDGE_LOOP('',(#668));
#1121=EDGE_LOOP('',(#669));
#1122=EDGE_LOOP('',(#670));
#1123=EDGE_LOOP('',(#671));
#1124=EDGE_LOOP('',(#672));
#1125=EDGE_LOOP('',(#673));
#1126=EDGE_LOOP('',(#674));
#1127=EDGE_LOOP('',(#675));
#1128=FACE_BOUND('',#1024,.T.);
#1129=FACE_BOUND('',#1025,.T.);
#1130=FACE_BOUND('',#1026,.T.);
#1131=FACE_BOUND('',#1027,.T.);
#1132=FACE_BOUND('',#1028,.T.);
#1133=FACE_BOUND('',#1029,.T.);
#1134=FACE_BOUND('',#1030,.T.);
#1135=FACE_BOUND('',#1031,.T.);
#1136=FACE_BOUND('',#1032,.T.);
#1137=FACE_BOUND('',#1033,.T.);
#1138=FACE_BOUND('',#1034,.T.);
#1139=FACE_BOUND('',#1035,.T.);
#1140=FACE_BOUND('',#1036,.T.);
#1141=FACE_BOUND('',#1037,.T.);
#1142=FACE_BOUND('',#1038,.T.);
#1143=FACE_BOUND('',#1039,.T.);
#1144=FACE_BOUND('',#1040,.T.);
#1145=FACE_BOUND('',#1041,.T.);
#1146=FACE_BOUND('',#1042,.T.);
#1147=FACE_BOUND('',#1043,.T.);
#1148=FACE_BOUND('',#1044,.T.);
#1149=FACE_BOUND('',#1045,.T.);
#1150=FACE_BOUND('',#1046,.T.);
#1151=FACE_BOUND('',#1047,.T.);
#1152=FACE_BOUND('',#1048,.T.);
#1153=FACE_BOUND('',#1049,.T.);
#1154=FACE_BOUND('',#1050,.T.);
#1155=FACE_BOUND('',#1051,.T.);
#1156=FACE_BOUND('',#1052,.T.);
#1157=FACE_BOUND('',#1053,.T.);
#1158=FACE_BOUND('',#1054,.T.);
#1159=FACE_BOUND('',#1055,.T.);
#1160=FACE_BOUND('',#1056,.T.);
#1161=FACE_BOUND('',#1057,.T.);
#1162=FACE_BOUND('',#1058,.T.);
#1163=FACE_BOUND('',#1059,.T.);
#1164=FACE_BOUND('',#1060,.T.);
#1165=FACE_BOUND('',#1061,.T.);
#1166=FACE_BOUND('',#1062,.T.);
#1167=FACE_BOUND('',#1063,.T.);
#1168=FACE_BOUND('',#1064,.T.);
#1169=FACE_BOUND('',#1065,.T.);
#1170=FACE_BOUND('',#1066,.T.);
#1171=FACE_BOUND('',#1067,.T.);
#1172=FACE_BOUND('',#1068,.T.);
#1173=FACE_BOUND('',#1069,.T.);
#1174=FACE_BOUND('',#1070,.T.);
#1175=FACE_BOUND('',#1071,.T.);
#1176=FACE_BOUND('',#1072,.T.);
#1177=FACE_BOUND('',#1073,.T.);
#1178=FACE_BOUND('',#1074,.T.);
#1179=FACE_BOUND('',#1075,.T.);
#1180=FACE_BOUND('',#1076,.T.);
#1181=FACE_BOUND('',#1077,.T.);
#1182=FACE_BOUND('',#1078,.T.);
#1183=FACE_BOUND('',#1079,.T.);
#1184=FACE_BOUND('',#1080,.T.);
#1185=FACE_BOUND('',#1081,.T.);
#1186=FACE_BOUND('',#1082,.T.);
#1187=FACE_BOUND('',#1083,.T.);
#1188=FACE_BOUND('',#1084,.T.);
#1189=FACE_BOUND('',#1085,.T.);
#1190=FACE_BOUND('',#1086,.T.);
#1191=FACE_BOUND('',#1087,.T.);
#1192=FACE_BOUND('',#1088,.T.);
#1193=FACE_BOUND('',#1089,.T.);
#1194=FACE_BOUND('',#1090,.T.);
#1195=FACE_BOUND('',#1091,.T.);
#1196=FACE_BOUND('',#1092,.T.);
#1197=FACE_BOUND('',#1093,.T.);
#1198=FACE_BOUND('',#1094,.T.);
#1199=FACE_BOUND('',#1095,.T.);
#1200=FACE_BOUND('',#1096,.T.);
#1201=FACE_BOUND('',#1097,.T.);
#1202=FACE_BOUND('',#1098,.T.);
#1203=FACE_BOUND('',#1099,.T.);
#1204=FACE_BOUND('',#1100,.T.);
#1205=FACE_BOUND('',#1101,.T.);
#1206=FACE_BOUND('',#1102,.T.);
#1207=FACE_BOUND('',#1103,.T.);
#1208=FACE_BOUND('',#1104,.T.);
#1209=FACE_BOUND('',#1105,.T.);
#1210=FACE_BOUND('',#1106,.T.);
#1211=FACE_BOUND('',#1107,.T.);
#1212=FACE_BOUND('',#1108,.T.);
#1213=FACE_BOUND('',#1109,.T.);
#1214=FACE_BOUND('',#1110,.T.);
#1215=FACE_BOUND('',#1111,.T.);
#1216=FACE_BOUND('',#1112,.T.);
#1217=FACE_BOUND('',#1113,.T.);
#1218=FACE_BOUND('',#1114,.T.);
#1219=FACE_BOUND('',#1115,.T.);
#1220=FACE_BOUND('',#1116,.T.);
#1221=FACE_BOUND('',#1117,.T.);
#1222=FACE_BOUND('',#1118,.T.);
#1223=FACE_BOUND('',#1119,.T.);
#1224=FACE_BOUND('',#1120,.T.);
#1225=FACE_BOUND('',#1121,.T.);
#1226=FACE_BOUND('',#1122,.T.);
#1227=FACE_BOUND('',#1123,.T.);
#1228=FACE_BOUND('',#1124,.T.);
#1229=FACE_BOUND('',#1125,.T.);
#1230=FACE_BOUND('',#1126,.T.);
#1231=FACE_BOUND('',#1127,.T.);
#1232=PLANE('',#1374);
#1233=PLANE('',#1383);
#1234=PLANE('',#1384);
#1235=PLANE('',#1385);
#1236=PLANE('',#1386);
#1237=PLANE('',#1387);
#1238=PLANE('',#1390);
#1239=PLANE('',#1391);
#1240=PLANE('',#1392);
#1241=PLANE('',#1395);
#1242=PLANE('',#1396);
#1243=PLANE('',#1400);
#1244=PLANE('',#1401);
#1245=PLANE('',#1402);
#1246=PLANE('',#1406);
#1247=PLANE('',#1407);
#1248=PLANE('',#1410);
#1249=PLANE('',#1411);
#1250=PLANE('',#1412);
#1251=PLANE('',#1415);
#1252=PLANE('',#1416);
#1253=PLANE('',#1420);
#1254=PLANE('',#1421);
#1255=PLANE('',#1422);
#1256=PLANE('',#1446);
#1257=PLANE('',#1447);
#1258=PLANE('',#1452);
#1259=PLANE('',#1453);
#1260=PLANE('',#1454);
#1261=PLANE('',#1455);
#1262=PLANE('',#1456);
#1263=PLANE('',#1457);
#1264=PLANE('',#1458);
#1265=PLANE('',#1459);
#1266=PLANE('',#1464);
#1267=PLANE('',#1465);
#1268=PLANE('',#1466);
#1269=PLANE('',#1467);
#1270=PLANE('',#1468);
#1271=PLANE('',#1469);
#1272=PLANE('',#1470);
#1273=PLANE('',#1471);
#1274=PLANE('',#1472);
#1275=PLANE('',#1473);
#1276=PLANE('',#1474);
#1277=PLANE('',#1475);
#1278=PLANE('',#1483);
#1279=PLANE('',#1484);
#1280=ADVANCED_FACE('',(#1128,#1129,#1130,#1131,#1132,#1133),#1232,.F.);
#1281=ADVANCED_FACE('',(#1134),#1233,.T.);
#1282=ADVANCED_FACE('',(#1135),#1234,.F.);
#1283=ADVANCED_FACE('',(#1136),#1235,.F.);
#1284=ADVANCED_FACE('',(#1137),#1236,.T.);
#1285=ADVANCED_FACE('',(#1138),#1237,.F.);
#1286=ADVANCED_FACE('',(#1139),#18,.T.);
#1287=ADVANCED_FACE('',(#1140),#1238,.T.);
#1288=ADVANCED_FACE('',(#1141),#1239,.F.);
#1289=ADVANCED_FACE('',(#1142),#1240,.F.);
#1290=ADVANCED_FACE('',(#1143),#19,.T.);
#1291=ADVANCED_FACE('',(#1144),#1241,.T.);
#1292=ADVANCED_FACE('',(#1145),#1242,.F.);
#1293=ADVANCED_FACE('',(#1146),#20,.T.);
#1294=ADVANCED_FACE('',(#1147),#1243,.T.);
#1295=ADVANCED_FACE('',(#1148),#1244,.F.);
#1296=ADVANCED_FACE('',(#1149),#1245,.F.);
#1297=ADVANCED_FACE('',(#1150),#21,.T.);
#1298=ADVANCED_FACE('',(#1151),#1246,.T.);
#1299=ADVANCED_FACE('',(#1152),#1247,.F.);
#1300=ADVANCED_FACE('',(#1153),#22,.T.);
#1301=ADVANCED_FACE('',(#1154),#1248,.T.);
#1302=ADVANCED_FACE('',(#1155),#1249,.T.);
#1303=ADVANCED_FACE('',(#1156),#1250,.F.);
#1304=ADVANCED_FACE('',(#1157),#23,.T.);
#1305=ADVANCED_FACE('',(#1158),#1251,.T.);
#1306=ADVANCED_FACE('',(#1159),#1252,.F.);
#1307=ADVANCED_FACE('',(#1160),#24,.T.);
#1308=ADVANCED_FACE('',(#1161),#1253,.T.);
#1309=ADVANCED_FACE('',(#1162),#1254,.T.);
#1310=ADVANCED_FACE('',(#1163),#1255,.F.);
#1311=ADVANCED_FACE('',(#1164,#1165),#25,.F.);
#1312=ADVANCED_FACE('',(#1166,#1167),#26,.F.);
#1313=ADVANCED_FACE('',(#1168,#1169),#27,.F.);
#1314=ADVANCED_FACE('',(#1170,#1171),#28,.F.);
#1315=ADVANCED_FACE('',(#1172,#1173),#29,.F.);
#1316=ADVANCED_FACE('',(#1174,#1175),#30,.F.);
#1317=ADVANCED_FACE('',(#1176,#1177),#31,.F.);
#1318=ADVANCED_FACE('',(#1178,#1179),#32,.F.);
#1319=ADVANCED_FACE('',(#1180),#33,.T.);
#1320=ADVANCED_FACE('',(#1181),#1256,.T.);
#1321=ADVANCED_FACE('',(#1182,#1183,#1184,#1185,#1186,#1187,#1188,#1189,
#1190,#1191),#1257,.T.);
#1322=ADVANCED_FACE('',(#1192),#1258,.T.);
#1323=ADVANCED_FACE('',(#1193,#1194),#1259,.F.);
#1324=ADVANCED_FACE('',(#1195),#1260,.F.);
#1325=ADVANCED_FACE('',(#1196,#1197),#1261,.F.);
#1326=ADVANCED_FACE('',(#1198),#1262,.F.);
#1327=ADVANCED_FACE('',(#1199,#1200),#1263,.F.);
#1328=ADVANCED_FACE('',(#1201),#1264,.T.);
#1329=ADVANCED_FACE('',(#1202,#1203),#1265,.F.);
#1330=ADVANCED_FACE('',(#1204,#1205),#14,.F.);
#1331=ADVANCED_FACE('',(#1206,#1207),#15,.F.);
#1332=ADVANCED_FACE('',(#1208,#1209),#16,.F.);
#1333=ADVANCED_FACE('',(#1210,#1211),#17,.F.);
#1334=ADVANCED_FACE('',(#1212),#1266,.T.);
#1335=ADVANCED_FACE('',(#1213),#1267,.F.);
#1336=ADVANCED_FACE('',(#1214),#1268,.F.);
#1337=ADVANCED_FACE('',(#1215),#1269,.T.);
#1338=ADVANCED_FACE('',(#1216),#1270,.F.);
#1339=ADVANCED_FACE('',(#1217),#1271,.F.);
#1340=ADVANCED_FACE('',(#1218),#1272,.F.);
#1341=ADVANCED_FACE('',(#1219),#1273,.F.);
#1342=ADVANCED_FACE('',(#1220),#1274,.F.);
#1343=ADVANCED_FACE('',(#1221),#1275,.T.);
#1344=ADVANCED_FACE('',(#1222),#1276,.T.);
#1345=ADVANCED_FACE('',(#1223),#1277,.F.);
#1346=ADVANCED_FACE('',(#1224,#1225),#34,.F.);
#1347=ADVANCED_FACE('',(#1226,#1227),#35,.T.);
#1348=ADVANCED_FACE('',(#1228,#1229),#1278,.T.);
#1349=ADVANCED_FACE('',(#1230,#1231),#1279,.F.);
#1350=CLOSED_SHELL('',(#1280,#1281,#1282,#1283,#1284,#1285,#1286,#1287,
#1288,#1289,#1290,#1291,#1292,#1293,#1294,#1295,#1296,#1297,#1298,#1299,
#1300,#1301,#1302,#1303,#1304,#1305,#1306,#1307,#1308,#1309,#1310,#1311,
#1312,#1313,#1314,#1315,#1316,#1317,#1318,#1319,#1320,#1321,#1322,#1323,
#1324,#1325,#1326,#1327,#1328,#1329,#1330,#1331,#1332,#1333,#1334,#1335,
#1336,#1337,#1338,#1339,#1340,#1341,#1342,#1343,#1344,#1345));
#1351=CLOSED_SHELL('',(#1346,#1347,#1348,#1349));
#1352=STYLED_ITEM('',(#1354),#1367);
#1353=STYLED_ITEM('',(#1355),#1368);
#1354=PRESENTATION_STYLE_ASSIGNMENT((#1356));
#1355=PRESENTATION_STYLE_ASSIGNMENT((#1357));
#1356=SURFACE_STYLE_USAGE(.BOTH.,#1358);
#1357=SURFACE_STYLE_USAGE(.BOTH.,#1359);
#1358=SURFACE_SIDE_STYLE('',(#1360));
#1359=SURFACE_SIDE_STYLE('',(#1361));
#1360=SURFACE_STYLE_FILL_AREA(#1362);
#1361=SURFACE_STYLE_FILL_AREA(#1363);
#1362=FILL_AREA_STYLE('',(#1364));
#1363=FILL_AREA_STYLE('',(#1365));
#1364=FILL_AREA_STYLE_COLOUR('',#1366);
#1365=FILL_AREA_STYLE_COLOUR('',#1366);
#1366=COLOUR_RGB('',0.647058823529412,0.647058823529412,0.647058823529412);
#1367=MANIFOLD_SOLID_BREP('Display Mount',#1350);
#1368=MANIFOLD_SOLID_BREP('Display Mount Spacer',#1351);
#1369=SHAPE_DEFINITION_REPRESENTATION(#2241,#1371);
#1370=SHAPE_DEFINITION_REPRESENTATION(#2242,#1372);
#1371=SHAPE_REPRESENTATION('Display Mount',(#1373),#2231);
#1372=SHAPE_REPRESENTATION('Display Mount Spacer',(#1476),#2232);
#1373=AXIS2_PLACEMENT_3D('',#1849,#1485,#1486);
#1374=AXIS2_PLACEMENT_3D('',#1850,#1487,#1488);
#1375=AXIS2_PLACEMENT_3D('',#1851,#1489,#1490);
#1376=AXIS2_PLACEMENT_3D('',#1853,#1491,#1492);
#1377=AXIS2_PLACEMENT_3D('',#1855,#1493,#1494);
#1378=AXIS2_PLACEMENT_3D('',#1857,#1495,#1496);
#1379=AXIS2_PLACEMENT_3D('',#1888,#1511,#1512);
#1380=AXIS2_PLACEMENT_3D('',#1900,#1518,#1519);
#1381=AXIS2_PLACEMENT_3D('',#1928,#1533,#1534);
#1382=AXIS2_PLACEMENT_3D('',#1940,#1540,#1541);
#1383=AXIS2_PLACEMENT_3D('',#1947,#1545,#1546);
#1384=AXIS2_PLACEMENT_3D('',#1953,#1550,#1551);
#1385=AXIS2_PLACEMENT_3D('',#1957,#1554,#1555);
#1386=AXIS2_PLACEMENT_3D('',#1961,#1558,#1559);
#1387=AXIS2_PLACEMENT_3D('',#1971,#1565,#1566);
#1388=AXIS2_PLACEMENT_3D('',#1977,#1570,#1571);
#1389=AXIS2_PLACEMENT_3D('',#1980,#1573,#1574);
#1390=AXIS2_PLACEMENT_3D('',#1981,#1575,#1576);
#1391=AXIS2_PLACEMENT_3D('',#1985,#1579,#1580);
#1392=AXIS2_PLACEMENT_3D('',#1991,#1584,#1585);
#1393=AXIS2_PLACEMENT_3D('',#1997,#1589,#1590);
#1394=AXIS2_PLACEMENT_3D('',#2000,#1592,#1593);
#1395=AXIS2_PLACEMENT_3D('',#2001,#1594,#1595);
#1396=AXIS2_PLACEMENT_3D('',#2005,#1598,#1599);
#1397=AXIS2_PLACEMENT_3D('',#2015,#1605,#1606);
#1398=AXIS2_PLACEMENT_3D('',#2016,#1607,#1608);
#1399=AXIS2_PLACEMENT_3D('',#2020,#1610,#1611);
#1400=AXIS2_PLACEMENT_3D('',#2021,#1612,#1613);
#1401=AXIS2_PLACEMENT_3D('',#2028,#1618,#1619);
#1402=AXIS2_PLACEMENT_3D('',#2034,#1623,#1624);
#1403=AXIS2_PLACEMENT_3D('',#2044,#1630,#1631);
#1404=AXIS2_PLACEMENT_3D('',#2045,#1632,#1633);
#1405=AXIS2_PLACEMENT_3D('',#2049,#1635,#1636);
#1406=AXIS2_PLACEMENT_3D('',#2050,#1637,#1638);
#1407=AXIS2_PLACEMENT_3D('',#2057,#1643,#1644);
#1408=AXIS2_PLACEMENT_3D('',#2063,#1648,#1649);
#1409=AXIS2_PLACEMENT_3D('',#2066,#1651,#1652);
#1410=AXIS2_PLACEMENT_3D('',#2067,#1653,#1654);
#1411=AXIS2_PLACEMENT_3D('',#2071,#1657,#1658);
#1412=AXIS2_PLACEMENT_3D('',#2077,#1662,#1663);
#1413=AXIS2_PLACEMENT_3D('',#2083,#1667,#1668);
#1414=AXIS2_PLACEMENT_3D('',#2086,#1670,#1671);
#1415=AXIS2_PLACEMENT_3D('',#2087,#1672,#1673);
#1416=AXIS2_PLACEMENT_3D('',#2091,#1676,#1677);
#1417=AXIS2_PLACEMENT_3D('',#2101,#1683,#1684);
#1418=AXIS2_PLACEMENT_3D('',#2102,#1685,#1686);
#1419=AXIS2_PLACEMENT_3D('',#2106,#1688,#1689);
#1420=AXIS2_PLACEMENT_3D('',#2107,#1690,#1691);
#1421=AXIS2_PLACEMENT_3D('',#2114,#1696,#1697);
#1422=AXIS2_PLACEMENT_3D('',#2120,#1701,#1702);
#1423=AXIS2_PLACEMENT_3D('',#2130,#1708,#1709);
#1424=AXIS2_PLACEMENT_3D('',#2131,#1710,#1711);
#1425=AXIS2_PLACEMENT_3D('',#2133,#1712,#1713);
#1426=AXIS2_PLACEMENT_3D('',#2134,#1714,#1715);
#1427=AXIS2_PLACEMENT_3D('',#2136,#1716,#1717);
#1428=AXIS2_PLACEMENT_3D('',#2137,#1718,#1719);
#1429=AXIS2_PLACEMENT_3D('',#2139,#1720,#1721);
#1430=AXIS2_PLACEMENT_3D('',#2140,#1722,#1723);
#1431=AXIS2_PLACEMENT_3D('',#2142,#1724,#1725);
#1432=AXIS2_PLACEMENT_3D('',#2143,#1726,#1727);
#1433=AXIS2_PLACEMENT_3D('',#2145,#1728,#1729);
#1434=AXIS2_PLACEMENT_3D('',#2147,#1730,#1731);
#1435=AXIS2_PLACEMENT_3D('',#2148,#1732,#1733);
#1436=AXIS2_PLACEMENT_3D('',#2150,#1734,#1735);
#1437=AXIS2_PLACEMENT_3D('',#2152,#1736,#1737);
#1438=AXIS2_PLACEMENT_3D('',#2153,#1738,#1739);
#1439=AXIS2_PLACEMENT_3D('',#2155,#1740,#1741);
#1440=AXIS2_PLACEMENT_3D('',#2157,#1742,#1743);
#1441=AXIS2_PLACEMENT_3D('',#2158,#1744,#1745);
#1442=AXIS2_PLACEMENT_3D('',#2160,#1746,#1747);
#1443=AXIS2_PLACEMENT_3D('',#2162,#1748,#1749);
#1444=AXIS2_PLACEMENT_3D('',#2163,#1750,#1751);
#1445=AXIS2_PLACEMENT_3D('',#2164,#1752,#1753);
#1446=AXIS2_PLACEMENT_3D('',#2165,#1754,#1755);
#1447=AXIS2_PLACEMENT_3D('',#2167,#1757,#1758);
#1448=AXIS2_PLACEMENT_3D('',#2168,#1759,#1760);
#1449=AXIS2_PLACEMENT_3D('',#2170,#1761,#1762);
#1450=AXIS2_PLACEMENT_3D('',#2172,#1763,#1764);
#1451=AXIS2_PLACEMENT_3D('',#2174,#1765,#1766);
#1452=AXIS2_PLACEMENT_3D('',#2188,#1779,#1780);
#1453=AXIS2_PLACEMENT_3D('',#2190,#1782,#1783);
#1454=AXIS2_PLACEMENT_3D('',#2191,#1784,#1785);
#1455=AXIS2_PLACEMENT_3D('',#2193,#1787,#1788);
#1456=AXIS2_PLACEMENT_3D('',#2194,#1789,#1790);
#1457=AXIS2_PLACEMENT_3D('',#2196,#1792,#1793);
#1458=AXIS2_PLACEMENT_3D('',#2197,#1794,#1795);
#1459=AXIS2_PLACEMENT_3D('',#2199,#1797,#1798);
#1460=AXIS2_PLACEMENT_3D('',#2200,#1799,#1800);
#1461=AXIS2_PLACEMENT_3D('',#2201,#1801,#1802);
#1462=AXIS2_PLACEMENT_3D('',#2202,#1803,#1804);
#1463=AXIS2_PLACEMENT_3D('',#2203,#1805,#1806);
#1464=AXIS2_PLACEMENT_3D('',#2204,#1807,#1808);
#1465=AXIS2_PLACEMENT_3D('',#2205,#1809,#1810);
#1466=AXIS2_PLACEMENT_3D('',#2206,#1811,#1812);
#1467=AXIS2_PLACEMENT_3D('',#2207,#1813,#1814);
#1468=AXIS2_PLACEMENT_3D('',#2208,#1815,#1816);
#1469=AXIS2_PLACEMENT_3D('',#2209,#1817,#1818);
#1470=AXIS2_PLACEMENT_3D('',#2210,#1819,#1820);
#1471=AXIS2_PLACEMENT_3D('',#2211,#1821,#1822);
#1472=AXIS2_PLACEMENT_3D('',#2212,#1823,#1824);
#1473=AXIS2_PLACEMENT_3D('',#2213,#1825,#1826);
#1474=AXIS2_PLACEMENT_3D('',#2214,#1827,#1828);
#1475=AXIS2_PLACEMENT_3D('',#2215,#1829,#1830);
#1476=AXIS2_PLACEMENT_3D('',#2216,#1831,#1832);
#1477=AXIS2_PLACEMENT_3D('',#2217,#1833,#1834);
#1478=AXIS2_PLACEMENT_3D('',#2218,#1835,#1836);
#1479=AXIS2_PLACEMENT_3D('',#2220,#1837,#1838);
#1480=AXIS2_PLACEMENT_3D('',#2222,#1839,#1840);
#1481=AXIS2_PLACEMENT_3D('',#2223,#1841,#1842);
#1482=AXIS2_PLACEMENT_3D('',#2225,#1843,#1844);
#1483=AXIS2_PLACEMENT_3D('',#2227,#1845,#1846);
#1484=AXIS2_PLACEMENT_3D('',#2228,#1847,#1848);
#1485=DIRECTION('',(0.,0.,1.));
#1486=DIRECTION('',(1.,0.,0.));
#1487=DIRECTION('',(0.,0.,1.));
#1488=DIRECTION('',(1.,0.,0.));
#1489=DIRECTION('',(0.,0.,1.));
#1490=DIRECTION('',(1.,0.,0.));
#1491=DIRECTION('',(0.,0.,-1.));
#1492=DIRECTION('',(1.,0.,0.));
#1493=DIRECTION('',(0.,0.,1.));
#1494=DIRECTION('',(1.,0.,0.));
#1495=DIRECTION('',(0.,0.,-1.));
#1496=DIRECTION('',(1.,0.,0.));
#1497=DIRECTION('',(0.,-1.,0.));
#1498=DIRECTION('',(1.,0.,0.));
#1499=DIRECTION('',(0.,-1.,0.));
#1500=DIRECTION('',(1.,0.,0.));
#1501=DIRECTION('',(1.,0.,0.));
#1502=DIRECTION('',(0.,-1.,0.));
#1503=DIRECTION('',(0.707106781186548,-0.707106781186548,0.));
#1504=DIRECTION('',(1.,0.,0.));
#1505=DIRECTION('',(-0.70710678118655,-0.707106781186545,0.));
#1506=DIRECTION('',(1.87537673078574E-15,1.,0.));
#1507=DIRECTION('',(1.,0.,0.));
#1508=DIRECTION('',(0.,1.,0.));
#1509=DIRECTION('',(0.707106781186545,-0.70710678118655,0.));
#1510=DIRECTION('',(1.,0.,0.));
#1511=DIRECTION('',(0.,0.,1.));
#1512=DIRECTION('',(1.,0.,0.));
#1513=DIRECTION('',(1.,0.,0.));
#1514=DIRECTION('',(-0.707106781186548,-0.707106781186548,0.));
#1515=DIRECTION('',(0.,-1.,0.));
#1516=DIRECTION('',(-0.707106781186548,0.707106781186548,0.));
#1517=DIRECTION('',(1.,0.,0.));
#1518=DIRECTION('',(0.,0.,-1.));
#1519=DIRECTION('',(1.,0.,0.));
#1520=DIRECTION('',(1.,0.,0.));
#1521=DIRECTION('',(-0.707106781186545,-0.707106781186551,0.));
#1522=DIRECTION('',(0.,-1.,0.));
#1523=DIRECTION('',(1.,0.,0.));
#1524=DIRECTION('',(-1.87537673078574E-15,1.,0.));
#1525=DIRECTION('',(0.70710678118655,-0.707106781186545,0.));
#1526=DIRECTION('',(1.,0.,0.));
#1527=DIRECTION('',(-0.707106781186544,-0.707106781186551,0.));
#1528=DIRECTION('',(0.,-1.,0.));
#1529=DIRECTION('',(1.,0.,0.));
#1530=DIRECTION('',(0.,-1.,0.));
#1531=DIRECTION('',(-0.70710678118655,0.707106781186545,0.));
#1532=DIRECTION('',(-1.,0.,0.));
#1533=DIRECTION('',(0.,0.,-1.));
#1534=DIRECTION('',(1.,0.,0.));
#1535=DIRECTION('',(-1.,-5.10212787052001E-16,0.));
#1536=DIRECTION('',(-0.707106781186548,-0.707106781186547,0.));
#1537=DIRECTION('',(0.,-1.,0.));
#1538=DIRECTION('',(-0.707106781186548,0.707106781186547,0.));
#1539=DIRECTION('',(-1.,5.10212787052001E-16,0.));
#1540=DIRECTION('',(0.,0.,1.));
#1541=DIRECTION('',(1.,0.,0.));
#1542=DIRECTION('',(-1.,0.,0.));
#1543=DIRECTION('',(0.707106781186548,0.707106781186548,0.));
#1544=DIRECTION('',(0.,1.,0.));
#1545=DIRECTION('',(1.,0.,0.));
#1546=DIRECTION('',(0.,0.,-1.));
#1547=DIRECTION('',(0.,0.,-1.));
#1548=DIRECTION('',(0.,-1.,0.));
#1549=DIRECTION('',(0.,0.,-1.));
#1550=DIRECTION('',(0.,1.,0.));
#1551=DIRECTION('',(0.,0.,1.));
#1552=DIRECTION('',(0.,0.,-1.));
#1553=DIRECTION('',(1.,0.,0.));
#1554=DIRECTION('',(1.,0.,0.));
#1555=DIRECTION('',(0.,0.,-1.));
#1556=DIRECTION('',(0.,0.,-1.));
#1557=DIRECTION('',(0.,-1.,0.));
#1558=DIRECTION('',(-1.,0.,0.));
#1559=DIRECTION('',(0.,0.,1.));
#1560=DIRECTION('',(0.,0.,1.));
#1561=DIRECTION('',(0.,1.,0.));
#1562=DIRECTION('',(0.,0.,-1.));
#1563=DIRECTION('',(0.,1.,0.));
#1564=DIRECTION('',(0.,0.,1.));
#1565=DIRECTION('',(0.,-1.,0.));
#1566=DIRECTION('',(0.,0.,-1.));
#1567=DIRECTION('',(-1.,0.,0.));
#1568=DIRECTION('',(0.,0.,-1.));
#1569=DIRECTION('',(0.,0.,-1.));
#1570=DIRECTION('',(0.,0.,-1.));
#1571=DIRECTION('',(-1.,0.,0.));
#1572=DIRECTION('',(0.,0.,-1.));
#1573=DIRECTION('',(0.,0.,1.));
#1574=DIRECTION('',(1.,0.,0.));
#1575=DIRECTION('',(-5.10212787052001E-16,-1.,0.));
#1576=DIRECTION('',(1.,-5.10212787052001E-16,0.));
#1577=DIRECTION('',(0.,0.,1.));
#1578=DIRECTION('',(-1.,5.10212787052001E-16,0.));
#1579=DIRECTION('',(1.,0.,0.));
#1580=DIRECTION('',(0.,0.,-1.));
#1581=DIRECTION('',(0.,0.,1.));
#1582=DIRECTION('',(0.,-1.,0.));
#1583=DIRECTION('',(0.,0.,-1.));
#1584=DIRECTION('',(5.10212787052001E-16,-1.,0.));
#1585=DIRECTION('',(1.,5.10212787052001E-16,0.));
#1586=DIRECTION('',(-1.,-5.10212787052001E-16,0.));
#1587=DIRECTION('',(0.,0.,-1.));
#1588=DIRECTION('',(0.,0.,-1.));
#1589=DIRECTION('',(0.,0.,-1.));
#1590=DIRECTION('',(-1.,0.,0.));
#1591=DIRECTION('',(0.,0.,-1.));
#1592=DIRECTION('',(0.,0.,-1.));
#1593=DIRECTION('',(1.,0.,0.));
#1594=DIRECTION('',(0.,-1.,0.));
#1595=DIRECTION('',(0.,0.,-1.));
#1596=DIRECTION('',(0.,0.,1.));
#1597=DIRECTION('',(-1.,0.,0.));
#1598=DIRECTION('',(1.,0.,0.));
#1599=DIRECTION('',(0.,0.,-1.));
#1600=DIRECTION('',(0.,-1.,0.));
#1601=DIRECTION('',(0.,0.,-1.));
#1602=DIRECTION('',(0.,0.,1.));
#1603=DIRECTION('',(0.,-1.,0.));
#1604=DIRECTION('',(0.,0.,-1.));
#1605=DIRECTION('',(0.,0.,-1.));
#1606=DIRECTION('',(-1.,0.,0.));
#1607=DIRECTION('',(0.,0.,-1.));
#1608=DIRECTION('',(1.,0.,0.));
#1609=DIRECTION('',(0.,0.,-1.));
#1610=DIRECTION('',(0.,0.,-1.));
#1611=DIRECTION('',(1.,0.,0.));
#1612=DIRECTION('',(1.,0.,0.));
#1613=DIRECTION('',(0.,0.,-1.));
#1614=DIRECTION('',(0.,0.,1.));
#1615=DIRECTION('',(0.,0.,1.));
#1616=DIRECTION('',(0.,-1.,0.));
#1617=DIRECTION('',(0.,-1.,0.));
#1618=DIRECTION('',(0.,1.,0.));
#1619=DIRECTION('',(0.,0.,1.));
#1620=DIRECTION('',(1.,0.,0.));
#1621=DIRECTION('',(0.,0.,-1.));
#1622=DIRECTION('',(0.,0.,1.));
#1623=DIRECTION('',(1.,1.87537673078574E-15,0.));
#1624=DIRECTION('',(-1.87537673078574E-15,1.,0.));
#1625=DIRECTION('',(1.87537673078574E-15,-1.,0.));
#1626=DIRECTION('',(0.,0.,-1.));
#1627=DIRECTION('',(0.,0.,1.));
#1628=DIRECTION('',(1.87537673078574E-15,-1.,0.));
#1629=DIRECTION('',(0.,0.,-1.));
#1630=DIRECTION('',(0.,0.,-1.));
#1631=DIRECTION('',(-1.,0.,0.));
#1632=DIRECTION('',(0.,0.,1.));
#1633=DIRECTION('',(1.,0.,0.));
#1634=DIRECTION('',(0.,0.,-1.));
#1635=DIRECTION('',(0.,0.,1.));
#1636=DIRECTION('',(1.,0.,0.));
#1637=DIRECTION('',(1.,0.,0.));
#1638=DIRECTION('',(0.,0.,-1.));
#1639=DIRECTION('',(0.,0.,1.));
#1640=DIRECTION('',(0.,-1.,0.));
#1641=DIRECTION('',(0.,-1.,0.));
#1642=DIRECTION('',(0.,0.,1.));
#1643=DIRECTION('',(0.,1.,0.));
#1644=DIRECTION('',(0.,0.,1.));
#1645=DIRECTION('',(1.,0.,0.));
#1646=DIRECTION('',(0.,0.,-1.));
#1647=DIRECTION('',(0.,0.,-1.));
#1648=DIRECTION('',(0.,0.,-1.));
#1649=DIRECTION('',(-1.,0.,0.));
#1650=DIRECTION('',(0.,0.,-1.));
#1651=DIRECTION('',(0.,0.,-1.));
#1652=DIRECTION('',(1.,0.,0.));
#1653=DIRECTION('',(0.,1.,0.));
#1654=DIRECTION('',(0.,0.,1.));
#1655=DIRECTION('',(0.,0.,1.));
#1656=DIRECTION('',(1.,0.,0.));
#1657=DIRECTION('',(1.,0.,0.));
#1658=DIRECTION('',(0.,0.,-1.));
#1659=DIRECTION('',(0.,-1.,0.));
#1660=DIRECTION('',(0.,0.,-1.));
#1661=DIRECTION('',(0.,0.,1.));
#1662=DIRECTION('',(0.,1.,0.));
#1663=DIRECTION('',(0.,0.,1.));
#1664=DIRECTION('',(1.,0.,0.));
#1665=DIRECTION('',(0.,0.,-1.));
#1666=DIRECTION('',(0.,0.,-1.));
#1667=DIRECTION('',(0.,0.,-1.));
#1668=DIRECTION('',(-1.,0.,0.));
#1669=DIRECTION('',(0.,0.,-1.));
#1670=DIRECTION('',(0.,0.,1.));
#1671=DIRECTION('',(1.,0.,0.));
#1672=DIRECTION('',(0.,1.,0.));
#1673=DIRECTION('',(0.,0.,1.));
#1674=DIRECTION('',(0.,0.,1.));
#1675=DIRECTION('',(1.,0.,0.));
#1676=DIRECTION('',(-1.,0.,0.));
#1677=DIRECTION('',(0.,0.,1.));
#1678=DIRECTION('',(0.,1.,0.));
#1679=DIRECTION('',(0.,0.,-1.));
#1680=DIRECTION('',(0.,0.,1.));
#1681=DIRECTION('',(0.,1.,0.));
#1682=DIRECTION('',(0.,0.,-1.));
#1683=DIRECTION('',(0.,0.,-1.));
#1684=DIRECTION('',(-1.,0.,0.));
#1685=DIRECTION('',(0.,0.,-1.));
#1686=DIRECTION('',(1.,0.,0.));
#1687=DIRECTION('',(0.,0.,-1.));
#1688=DIRECTION('',(0.,0.,-1.));
#1689=DIRECTION('',(1.,0.,0.));
#1690=DIRECTION('',(-1.,1.87537673078574E-15,0.));
#1691=DIRECTION('',(-1.87537673078574E-15,-1.,0.));
#1692=DIRECTION('',(0.,0.,1.));
#1693=DIRECTION('',(0.,0.,1.));
#1694=DIRECTION('',(1.87537673078574E-15,1.,0.));
#1695=DIRECTION('',(1.87537673078574E-15,1.,0.));
#1696=DIRECTION('',(0.,1.,0.));
#1697=DIRECTION('',(0.,0.,1.));
#1698=DIRECTION('',(1.,0.,0.));
#1699=DIRECTION('',(0.,0.,-1.));
#1700=DIRECTION('',(0.,0.,1.));
#1701=DIRECTION('',(-1.,0.,0.));
#1702=DIRECTION('',(0.,0.,1.));
#1703=DIRECTION('',(0.,1.,0.));
#1704=DIRECTION('',(0.,0.,-1.));
#1705=DIRECTION('',(0.,0.,1.));
#1706=DIRECTION('',(0.,1.,0.));
#1707=DIRECTION('',(0.,0.,-1.));
#1708=DIRECTION('',(0.,0.,-1.));
#1709=DIRECTION('',(-1.,0.,0.));
#1710=DIRECTION('',(0.,0.,-1.));
#1711=DIRECTION('',(1.,0.,0.));
#1712=DIRECTION('',(0.,0.,-1.));
#1713=DIRECTION('',(-1.,0.,0.));
#1714=DIRECTION('',(0.,0.,1.));
#1715=DIRECTION('',(1.,0.,0.));
#1716=DIRECTION('',(0.,0.,-1.));
#1717=DIRECTION('',(-1.,0.,0.));
#1718=DIRECTION('',(0.,0.,-1.));
#1719=DIRECTION('',(1.,0.,0.));
#1720=DIRECTION('',(0.,0.,-1.));
#1721=DIRECTION('',(-1.,0.,0.));
#1722=DIRECTION('',(0.,0.,1.));
#1723=DIRECTION('',(1.,0.,0.));
#1724=DIRECTION('',(0.,0.,-1.));
#1725=DIRECTION('',(-1.,0.,0.));
#1726=DIRECTION('',(0.,0.,1.));
#1727=DIRECTION('',(1.,0.,0.));
#1728=DIRECTION('',(0.,0.,1.));
#1729=DIRECTION('',(1.,0.,0.));
#1730=DIRECTION('',(0.,0.,-1.));
#1731=DIRECTION('',(-1.,0.,0.));
#1732=DIRECTION('',(0.,0.,1.));
#1733=DIRECTION('',(1.,0.,0.));
#1734=DIRECTION('',(0.,0.,-1.));
#1735=DIRECTION('',(1.,0.,0.));
#1736=DIRECTION('',(0.,0.,-1.));
#1737=DIRECTION('',(-1.,0.,0.));
#1738=DIRECTION('',(0.,0.,1.));
#1739=DIRECTION('',(1.,0.,0.));
#1740=DIRECTION('',(0.,0.,-1.));
#1741=DIRECTION('',(1.,0.,0.));
#1742=DIRECTION('',(0.,0.,-1.));
#1743=DIRECTION('',(-1.,0.,0.));
#1744=DIRECTION('',(0.,0.,1.));
#1745=DIRECTION('',(1.,0.,0.));
#1746=DIRECTION('',(0.,0.,1.));
#1747=DIRECTION('',(1.,0.,0.));
#1748=DIRECTION('',(0.,0.,-1.));
#1749=DIRECTION('',(-1.,0.,0.));
#1750=DIRECTION('',(0.,0.,1.));
#1751=DIRECTION('',(1.,0.,0.));
#1752=DIRECTION('',(0.,0.,1.));
#1753=DIRECTION('',(1.,0.,0.));
#1754=DIRECTION('',(0.,1.,0.));
#1755=DIRECTION('',(0.,0.,1.));
#1756=DIRECTION('',(1.,0.,0.));
#1757=DIRECTION('',(0.,0.,1.));
#1758=DIRECTION('',(1.,0.,0.));
#1759=DIRECTION('',(0.,0.,1.));
#1760=DIRECTION('',(1.,0.,0.));
#1761=DIRECTION('',(0.,0.,1.));
#1762=DIRECTION('',(1.,0.,0.));
#1763=DIRECTION('',(0.,0.,1.));
#1764=DIRECTION('',(1.,0.,0.));
#1765=DIRECTION('',(0.,0.,1.));
#1766=DIRECTION('',(1.,0.,0.));
#1767=DIRECTION('',(-0.707106781186548,-0.707106781186548,0.));
#1768=DIRECTION('',(0.707106781186548,-0.707106781186547,0.));
#1769=DIRECTION('',(0.707106781186548,0.707106781186547,0.));
#1770=DIRECTION('',(0.70710678118655,-0.707106781186545,0.));
#1771=DIRECTION('',(0.707106781186544,0.707106781186551,0.));
#1772=DIRECTION('',(-0.70710678118655,0.707106781186545,0.));
#1773=DIRECTION('',(0.707106781186545,0.707106781186551,0.));
#1774=DIRECTION('',(0.707106781186548,-0.707106781186548,0.));
#1775=DIRECTION('',(0.707106781186548,0.707106781186548,0.));
#1776=DIRECTION('',(-0.707106781186545,0.70710678118655,0.));
#1777=DIRECTION('',(0.70710678118655,0.707106781186545,0.));
#1778=DIRECTION('',(-0.707106781186548,0.707106781186548,0.));
#1779=DIRECTION('',(0.,-1.,0.));
#1780=DIRECTION('',(0.,0.,-1.));
#1781=DIRECTION('',(1.,0.,0.));
#1782=DIRECTION('',(0.,0.,1.));
#1783=DIRECTION('',(1.,0.,0.));
#1784=DIRECTION('',(0.,-1.,0.));
#1785=DIRECTION('',(0.,0.,-1.));
#1786=DIRECTION('',(1.,0.,0.));
#1787=DIRECTION('',(0.,0.,1.));
#1788=DIRECTION('',(1.,0.,0.));
#1789=DIRECTION('',(0.,-1.,0.));
#1790=DIRECTION('',(0.,0.,-1.));
#1791=DIRECTION('',(1.,0.,0.));
#1792=DIRECTION('',(0.,0.,1.));
#1793=DIRECTION('',(1.,0.,0.));
#1794=DIRECTION('',(0.,-1.,0.));
#1795=DIRECTION('',(0.,0.,-1.));
#1796=DIRECTION('',(1.,0.,0.));
#1797=DIRECTION('',(0.,0.,1.));
#1798=DIRECTION('',(1.,0.,0.));
#1799=DIRECTION('',(0.,0.,1.));
#1800=DIRECTION('',(1.,0.,0.));
#1801=DIRECTION('',(0.,0.,1.));
#1802=DIRECTION('',(1.,0.,0.));
#1803=DIRECTION('',(0.,0.,1.));
#1804=DIRECTION('',(1.,0.,0.));
#1805=DIRECTION('',(0.,0.,1.));
#1806=DIRECTION('',(1.,0.,0.));
#1807=DIRECTION('',(-0.707106781186547,0.707106781186548,0.));
#1808=DIRECTION('',(0.,0.,1.));
#1809=DIRECTION('',(0.707106781186545,0.70710678118655,0.));
#1810=DIRECTION('',(0.,0.,-1.));
#1811=DIRECTION('',(-0.707106781186551,0.707106781186545,0.));
#1812=DIRECTION('',(0.,0.,-1.));
#1813=DIRECTION('',(0.707106781186548,0.707106781186548,0.));
#1814=DIRECTION('',(0.,0.,1.));
#1815=DIRECTION('',(-0.707106781186548,0.707106781186548,0.));
#1816=DIRECTION('',(0.,0.,-1.));
#1817=DIRECTION('',(-0.70710678118655,-0.707106781186545,0.));
#1818=DIRECTION('',(0.,0.,-1.));
#1819=DIRECTION('',(0.707106781186547,0.707106781186548,0.));
#1820=DIRECTION('',(0.,0.,-1.));
#1821=DIRECTION('',(0.707106781186548,-0.707106781186548,0.));
#1822=DIRECTION('',(0.,0.,-1.));
#1823=DIRECTION('',(-0.707106781186551,0.707106781186544,0.));
#1824=DIRECTION('',(0.,0.,-1.));
#1825=DIRECTION('',(-0.707106781186545,-0.70710678118655,0.));
#1826=DIRECTION('',(0.,0.,1.));
#1827=DIRECTION('',(-0.707106781186545,0.70710678118655,0.));
#1828=DIRECTION('',(0.,0.,1.));
#1829=DIRECTION('',(-0.707106781186548,-0.707106781186548,0.));
#1830=DIRECTION('',(0.,0.,-1.));
#1831=DIRECTION('',(0.,0.,1.));
#1832=DIRECTION('',(1.,0.,0.));
#1833=DIRECTION('',(0.,0.,1.));
#1834=DIRECTION('',(1.,0.,0.));
#1835=DIRECTION('',(0.,0.,-1.));
#1836=DIRECTION('',(1.,0.,0.));
#1837=DIRECTION('',(0.,0.,-1.));
#1838=DIRECTION('',(1.,0.,0.));
#1839=DIRECTION('',(0.,0.,1.));
#1840=DIRECTION('',(1.,0.,0.));
#1841=DIRECTION('',(0.,0.,-1.));
#1842=DIRECTION('',(1.,0.,0.));
#1843=DIRECTION('',(0.,0.,-1.));
#1844=DIRECTION('',(1.,0.,0.));
#1845=DIRECTION('',(0.,0.,-1.));
#1846=DIRECTION('',(1.,0.,0.));
#1847=DIRECTION('',(0.,0.,-1.));
#1848=DIRECTION('',(1.,0.,0.));
#1849=CARTESIAN_POINT('',(0.,0.,0.));
#1850=CARTESIAN_POINT('',(0.,-6.93889390390723E-18,0.));
#1851=CARTESIAN_POINT('',(-0.0673,0.033,0.));
#1852=CARTESIAN_POINT('',(-0.0656,0.033,0.));
#1853=CARTESIAN_POINT('',(-0.0673,-0.0282,0.));
#1854=CARTESIAN_POINT('',(-0.0656,-0.0282,0.));
#1855=CARTESIAN_POINT('',(0.0673,0.033,0.));
#1856=CARTESIAN_POINT('',(0.069,0.033,0.));
#1857=CARTESIAN_POINT('',(0.0673,-0.0282,0.));
#1858=CARTESIAN_POINT('',(0.069,-0.0282,0.));
#1859=CARTESIAN_POINT('',(-0.0554,0.0024,0.));
#1860=CARTESIAN_POINT('',(-0.0554,0.0357,0.));
#1861=CARTESIAN_POINT('',(-0.0554,-0.0309,0.));
#1862=CARTESIAN_POINT('',(-6.93889390390723E-18,-0.0309,0.));
#1863=CARTESIAN_POINT('',(0.0554,-0.0309,0.));
#1864=CARTESIAN_POINT('',(0.0554,0.0024,0.));
#1865=CARTESIAN_POINT('',(0.0554,0.0357,0.));
#1866=CARTESIAN_POINT('',(-6.93889390390723E-18,0.0357,0.));
#1867=CARTESIAN_POINT('',(-0.0565,0.038,0.));
#1868=CARTESIAN_POINT('',(-0.0605,0.038,0.));
#1869=CARTESIAN_POINT('',(-0.0525,0.038,0.));
#1870=CARTESIAN_POINT('',(-0.0525,-6.93889390390723E-18,0.));
#1871=CARTESIAN_POINT('',(-0.0525,0.04,0.));
#1872=CARTESIAN_POINT('',(-0.00625,-0.00625,0.));
#1873=CARTESIAN_POINT('',(-0.0505,0.038,0.));
#1874=CARTESIAN_POINT('',(0.,0.038,0.));
#1875=CARTESIAN_POINT('',(0.0505,0.038,0.));
#1876=CARTESIAN_POINT('',(0.00624999999999982,-0.00624999999999987,0.));
#1877=CARTESIAN_POINT('',(0.0525,0.04,0.));
#1878=CARTESIAN_POINT('',(0.0525,0.03985,0.));
#1879=CARTESIAN_POINT('',(0.0525,0.038,0.));
#1880=CARTESIAN_POINT('',(0.0565,0.038,0.));
#1881=CARTESIAN_POINT('',(0.0605,0.038,0.));
#1882=CARTESIAN_POINT('',(0.0605,0.03985,0.));
#1883=CARTESIAN_POINT('',(0.0605,0.0377,0.));
#1884=CARTESIAN_POINT('',(0.0491,0.0491,0.));
#1885=CARTESIAN_POINT('',(0.0625,0.0357,0.));
#1886=CARTESIAN_POINT('',(0.0639,0.0357,0.));
#1887=CARTESIAN_POINT('',(0.0673,0.0357,0.));
#1888=CARTESIAN_POINT('',(0.0673,0.033,0.));
#1889=CARTESIAN_POINT('',(0.0673,0.0303,0.));
#1890=CARTESIAN_POINT('',(0.0639,0.0303,0.));
#1891=CARTESIAN_POINT('',(0.0625,0.0303,0.));
#1892=CARTESIAN_POINT('',(0.0161,-0.0161,0.));
#1893=CARTESIAN_POINT('',(0.0605,0.0283,0.));
#1894=CARTESIAN_POINT('',(0.0605,0.0024,0.));
#1895=CARTESIAN_POINT('',(0.0605,-0.0235,0.));
#1896=CARTESIAN_POINT('',(0.0185,0.0185,0.));
#1897=CARTESIAN_POINT('',(0.0625,-0.0255,0.));
#1898=CARTESIAN_POINT('',(0.0639,-0.0255,0.));
#1899=CARTESIAN_POINT('',(0.0673,-0.0255,0.));
#1900=CARTESIAN_POINT('',(0.0673,-0.0282,0.));
#1901=CARTESIAN_POINT('',(0.0673,-0.0309,0.));
#1902=CARTESIAN_POINT('',(0.0639,-0.0309,0.));
#1903=CARTESIAN_POINT('',(0.0625,-0.0309,0.));
#1904=CARTESIAN_POINT('',(0.0467,-0.0467,0.));
#1905=CARTESIAN_POINT('',(0.0605,-0.0329,0.));
#1906=CARTESIAN_POINT('',(0.0605,-0.03985,0.));
#1907=CARTESIAN_POINT('',(0.0605,-0.038,0.));
#1908=CARTESIAN_POINT('',(0.0565,-0.038,0.));
#1909=CARTESIAN_POINT('',(0.0525,-0.038,0.));
#1910=CARTESIAN_POINT('',(0.0525,9.1518384462344E-17,0.));
#1911=CARTESIAN_POINT('',(0.0525,-0.04,0.));
#1912=CARTESIAN_POINT('',(0.00624999999999983,0.00624999999999986,0.));
#1913=CARTESIAN_POINT('',(0.0505,-0.038,0.));
#1914=CARTESIAN_POINT('',(6.93889390390723E-18,-0.038,0.));
#1915=CARTESIAN_POINT('',(-0.0505,-0.038,0.));
#1916=CARTESIAN_POINT('',(-0.00625000000000026,0.00625000000000018,0.));
#1917=CARTESIAN_POINT('',(-0.0525,-0.04,0.));
#1918=CARTESIAN_POINT('',(-0.0525,-0.03985,0.));
#1919=CARTESIAN_POINT('',(-0.0525,-0.038,0.));
#1920=CARTESIAN_POINT('',(-0.0565,-0.038,0.));
#1921=CARTESIAN_POINT('',(-0.0605,-0.038,0.));
#1922=CARTESIAN_POINT('',(-0.0605,-0.03985,0.));
#1923=CARTESIAN_POINT('',(-0.0605,-0.0329,0.));
#1924=CARTESIAN_POINT('',(-0.0467,-0.0467,0.));
#1925=CARTESIAN_POINT('',(-0.0625,-0.0309,0.));
#1926=CARTESIAN_POINT('',(-0.0639,-0.0309,0.));
#1927=CARTESIAN_POINT('',(-0.0673,-0.0309,0.));
#1928=CARTESIAN_POINT('',(-0.0673,-0.0282,0.));
#1929=CARTESIAN_POINT('',(-0.0673,-0.0255,0.));
#1930=CARTESIAN_POINT('',(-0.0639,-0.0255,0.));
#1931=CARTESIAN_POINT('',(-0.0625,-0.0255,0.));
#1932=CARTESIAN_POINT('',(-0.0185,0.0185,0.));
#1933=CARTESIAN_POINT('',(-0.0605,-0.0235,0.));
#1934=CARTESIAN_POINT('',(-0.0605,0.0024,0.));
#1935=CARTESIAN_POINT('',(-0.0605,0.0283,0.));
#1936=CARTESIAN_POINT('',(-0.0161,-0.0161,0.));
#1937=CARTESIAN_POINT('',(-0.0625,0.0303,0.));
#1938=CARTESIAN_POINT('',(-0.0639,0.0303,0.));
#1939=CARTESIAN_POINT('',(-0.0673,0.0303,0.));
#1940=CARTESIAN_POINT('',(-0.0673,0.033,0.));
#1941=CARTESIAN_POINT('',(-0.0673,0.0357,0.));
#1942=CARTESIAN_POINT('',(-0.0639,0.0357,0.));
#1943=CARTESIAN_POINT('',(-0.0625,0.0357,0.));
#1944=CARTESIAN_POINT('',(-0.0491,0.0491,0.));
#1945=CARTESIAN_POINT('',(-0.0605,0.0377,0.));
#1946=CARTESIAN_POINT('',(-0.0605,0.03985,0.));
#1947=CARTESIAN_POINT('',(-0.0554,0.0024,0.002));
#1948=CARTESIAN_POINT('',(-0.0554,0.0357,0.002));
#1949=CARTESIAN_POINT('',(-0.0554,0.0357,0.002));
#1950=CARTESIAN_POINT('',(-0.0554,0.0024,0.002));
#1951=CARTESIAN_POINT('',(-0.0554,-0.0309,0.002));
#1952=CARTESIAN_POINT('',(-0.0554,-0.0309,0.002));
#1953=CARTESIAN_POINT('',(-6.93889390390723E-18,0.0357,0.002));
#1954=CARTESIAN_POINT('',(0.0554,0.0357,0.002));
#1955=CARTESIAN_POINT('',(0.0554,0.0357,0.002));
#1956=CARTESIAN_POINT('',(-6.93889390390723E-18,0.0357,0.002));
#1957=CARTESIAN_POINT('',(0.0554,0.0024,0.002));
#1958=CARTESIAN_POINT('',(0.0554,-0.0309,0.002));
#1959=CARTESIAN_POINT('',(0.0554,-0.0309,0.002));
#1960=CARTESIAN_POINT('',(0.0554,0.0024,0.002));
#1961=CARTESIAN_POINT('',(-0.0605,0.03985,0.002));
#1962=CARTESIAN_POINT('',(-0.0605,0.0377,0.002));
#1963=CARTESIAN_POINT('',(-0.0605,0.0377,0.002));
#1964=CARTESIAN_POINT('',(-0.0605,0.03985,0.002));
#1965=CARTESIAN_POINT('',(-0.0605,0.0417,0.002));
#1966=CARTESIAN_POINT('',(-0.0605,0.0417,0.002));
#1967=CARTESIAN_POINT('',(-0.0605,0.0417,-0.0051));
#1968=CARTESIAN_POINT('',(-0.0605,0.03985,-0.0051));
#1969=CARTESIAN_POINT('',(-0.0605,0.038,-0.0051));
#1970=CARTESIAN_POINT('',(-0.0605,0.038,-0.0051));
#1971=CARTESIAN_POINT('',(-0.0639,0.0357,0.002));
#1972=CARTESIAN_POINT('',(-0.0639,0.0357,0.002));
#1973=CARTESIAN_POINT('',(-0.0625,0.0357,0.002));
#1974=CARTESIAN_POINT('',(-0.0673,0.0357,0.002));
#1975=CARTESIAN_POINT('',(-0.0625,0.0357,0.002));
#1976=CARTESIAN_POINT('',(-0.0673,0.0357,0.002));
#1977=CARTESIAN_POINT('',(-0.0673,0.033,0.002));
#1978=CARTESIAN_POINT('',(-0.0673,0.0303,0.002));
#1979=CARTESIAN_POINT('',(-0.0673,0.0303,0.002));
#1980=CARTESIAN_POINT('',(-0.0673,0.033,0.002));
#1981=CARTESIAN_POINT('',(-0.0639,0.0303,0.002));
#1982=CARTESIAN_POINT('',(-0.0625,0.0303,0.002));
#1983=CARTESIAN_POINT('',(-0.0625,0.0303,0.002));
#1984=CARTESIAN_POINT('',(-0.0639,0.0303,0.002));
#1985=CARTESIAN_POINT('',(-0.0605,0.0024,0.002));
#1986=CARTESIAN_POINT('',(-0.0605,-0.0235,0.002));
#1987=CARTESIAN_POINT('',(-0.0605,-0.0235,0.002));
#1988=CARTESIAN_POINT('',(-0.0605,0.0024,0.002));
#1989=CARTESIAN_POINT('',(-0.0605,0.0283,0.002));
#1990=CARTESIAN_POINT('',(-0.0605,0.0283,0.002));
#1991=CARTESIAN_POINT('',(-0.0639,-0.0255,0.002));
#1992=CARTESIAN_POINT('',(-0.0639,-0.0255,0.002));
#1993=CARTESIAN_POINT('',(-0.0625,-0.0255,0.002));
#1994=CARTESIAN_POINT('',(-0.0673,-0.0255,0.002));
#1995=CARTESIAN_POINT('',(-0.0625,-0.0255,0.));
#1996=CARTESIAN_POINT('',(-0.0673,-0.0255,0.002));
#1997=CARTESIAN_POINT('',(-0.0673,-0.0282,0.002));
#1998=CARTESIAN_POINT('',(-0.0673,-0.0309,0.002));
#1999=CARTESIAN_POINT('',(-0.0673,-0.0309,0.002));
#2000=CARTESIAN_POINT('',(-0.0673,-0.0282,0.002));
#2001=CARTESIAN_POINT('',(-0.0639,-0.0309,0.002));
#2002=CARTESIAN_POINT('',(-0.0625,-0.0309,0.002));
#2003=CARTESIAN_POINT('',(-0.0625,-0.0309,0.002));
#2004=CARTESIAN_POINT('',(-0.0639,-0.0309,0.002));
#2005=CARTESIAN_POINT('',(-0.0605,-0.03985,0.002));
#2006=CARTESIAN_POINT('',(-0.0605,-0.03985,0.002));
#2007=CARTESIAN_POINT('',(-0.0605,-0.0329,0.002));
#2008=CARTESIAN_POINT('',(-0.0605,-0.0417,0.002));
#2009=CARTESIAN_POINT('',(-0.0605,-0.0329,0.002));
#2010=CARTESIAN_POINT('',(-0.0605,-0.038,-0.0051));
#2011=CARTESIAN_POINT('',(-0.0605,-0.038,-0.0051));
#2012=CARTESIAN_POINT('',(-0.0605,-0.03985,-0.0051));
#2013=CARTESIAN_POINT('',(-0.0605,-0.0417,-0.0051));
#2014=CARTESIAN_POINT('',(-0.0605,-0.0417,0.002));
#2015=CARTESIAN_POINT('',(-0.0565,-0.0417,0.002));
#2016=CARTESIAN_POINT('',(-0.0565,-0.0417,-0.0051));
#2017=CARTESIAN_POINT('',(-0.0525,-0.0417,-0.0051));
#2018=CARTESIAN_POINT('',(-0.0525,-0.0417,0.002));
#2019=CARTESIAN_POINT('',(-0.0525,-0.0417,0.002));
#2020=CARTESIAN_POINT('',(-0.0565,-0.0417,0.002));
#2021=CARTESIAN_POINT('',(-0.0525,-0.03985,0.002));
#2022=CARTESIAN_POINT('',(-0.0525,-0.038,-0.0051));
#2023=CARTESIAN_POINT('',(-0.0525,-0.038,-0.0051));
#2024=CARTESIAN_POINT('',(-0.0525,-0.04,0.002));
#2025=CARTESIAN_POINT('',(-0.0525,-0.04,0.002));
#2026=CARTESIAN_POINT('',(-0.0525,-0.03985,0.002));
#2027=CARTESIAN_POINT('',(-0.0525,-0.03985,-0.0051));
#2028=CARTESIAN_POINT('',(6.93889390390723E-18,-0.038,0.002));
#2029=CARTESIAN_POINT('',(6.93889390390723E-18,-0.038,0.002));
#2030=CARTESIAN_POINT('',(-0.0505,-0.038,0.002));
#2031=CARTESIAN_POINT('',(0.0505,-0.038,0.002));
#2032=CARTESIAN_POINT('',(-0.0505,-0.038,0.002));
#2033=CARTESIAN_POINT('',(0.0505,-0.038,0.002));
#2034=CARTESIAN_POINT('',(0.0525,-0.03985,0.002));
#2035=CARTESIAN_POINT('',(0.0525,-0.03985,0.002));
#2036=CARTESIAN_POINT('',(0.0525,-0.04,0.002));
#2037=CARTESIAN_POINT('',(0.0525,-0.0417,0.002));
#2038=CARTESIAN_POINT('',(0.0525,-0.04,0.));
#2039=CARTESIAN_POINT('',(0.0525,-0.038,-0.0051));
#2040=CARTESIAN_POINT('',(0.0525,-0.038,-0.0051));
#2041=CARTESIAN_POINT('',(0.0525,-0.03985,-0.0051));
#2042=CARTESIAN_POINT('',(0.0525,-0.0417,-0.0051));
#2043=CARTESIAN_POINT('',(0.0525,-0.0417,0.002));
#2044=CARTESIAN_POINT('',(0.0565,-0.0417,0.002));
#2045=CARTESIAN_POINT('',(0.0565,-0.0417,-0.0051));
#2046=CARTESIAN_POINT('',(0.0605,-0.0417,-0.0051));
#2047=CARTESIAN_POINT('',(0.0605,-0.0417,0.002));
#2048=CARTESIAN_POINT('',(0.0605,-0.0417,0.002));
#2049=CARTESIAN_POINT('',(0.0565,-0.0417,0.002));
#2050=CARTESIAN_POINT('',(0.0605,-0.03985,0.002));
#2051=CARTESIAN_POINT('',(0.0605,-0.0329,0.002));
#2052=CARTESIAN_POINT('',(0.0605,-0.0329,0.002));
#2053=CARTESIAN_POINT('',(0.0605,-0.03985,0.002));
#2054=CARTESIAN_POINT('',(0.0605,-0.03985,-0.0051));
#2055=CARTESIAN_POINT('',(0.0605,-0.038,-0.0051));
#2056=CARTESIAN_POINT('',(0.0605,-0.038,-0.0051));
#2057=CARTESIAN_POINT('',(0.0639,-0.0309,0.002));
#2058=CARTESIAN_POINT('',(0.0639,-0.0309,0.002));
#2059=CARTESIAN_POINT('',(0.0625,-0.0309,0.002));
#2060=CARTESIAN_POINT('',(0.0673,-0.0309,0.002));
#2061=CARTESIAN_POINT('',(0.0625,-0.0309,0.002));
#2062=CARTESIAN_POINT('',(0.0673,-0.0309,0.002));
#2063=CARTESIAN_POINT('',(0.0673,-0.0282,0.002));
#2064=CARTESIAN_POINT('',(0.0673,-0.0255,0.002));
#2065=CARTESIAN_POINT('',(0.0673,-0.0255,0.002));
#2066=CARTESIAN_POINT('',(0.0673,-0.0282,0.002));
#2067=CARTESIAN_POINT('',(0.0639,-0.0255,0.002));
#2068=CARTESIAN_POINT('',(0.0625,-0.0255,0.002));
#2069=CARTESIAN_POINT('',(0.0625,-0.0255,0.002));
#2070=CARTESIAN_POINT('',(0.0639,-0.0255,0.002));
#2071=CARTESIAN_POINT('',(0.0605,0.0024,0.002));
#2072=CARTESIAN_POINT('',(0.0605,0.0024,0.002));
#2073=CARTESIAN_POINT('',(0.0605,0.0283,0.002));
#2074=CARTESIAN_POINT('',(0.0605,-0.0235,0.002));
#2075=CARTESIAN_POINT('',(0.0605,-0.0235,0.));
#2076=CARTESIAN_POINT('',(0.0605,0.0283,0.002));
#2077=CARTESIAN_POINT('',(0.0639,0.0303,0.002));
#2078=CARTESIAN_POINT('',(0.0639,0.0303,0.002));
#2079=CARTESIAN_POINT('',(0.0625,0.0303,0.002));
#2080=CARTESIAN_POINT('',(0.0673,0.0303,0.002));
#2081=CARTESIAN_POINT('',(0.0625,0.0303,0.002));
#2082=CARTESIAN_POINT('',(0.0673,0.0303,0.002));
#2083=CARTESIAN_POINT('',(0.0673,0.033,0.002));
#2084=CARTESIAN_POINT('',(0.0673,0.0357,0.002));
#2085=CARTESIAN_POINT('',(0.0673,0.0357,0.002));
#2086=CARTESIAN_POINT('',(0.0673,0.033,0.002));
#2087=CARTESIAN_POINT('',(0.0639,0.0357,0.002));
#2088=CARTESIAN_POINT('',(0.0625,0.0357,0.002));
#2089=CARTESIAN_POINT('',(0.0625,0.0357,0.002));
#2090=CARTESIAN_POINT('',(0.0639,0.0357,0.002));
#2091=CARTESIAN_POINT('',(0.0605,0.03985,0.002));
#2092=CARTESIAN_POINT('',(0.0605,0.03985,0.002));
#2093=CARTESIAN_POINT('',(0.0605,0.0377,0.002));
#2094=CARTESIAN_POINT('',(0.0605,0.0417,0.002));
#2095=CARTESIAN_POINT('',(0.0605,0.0377,0.002));
#2096=CARTESIAN_POINT('',(0.0605,0.038,-0.0051));
#2097=CARTESIAN_POINT('',(0.0605,0.038,-0.0051));
#2098=CARTESIAN_POINT('',(0.0605,0.03985,-0.0051));
#2099=CARTESIAN_POINT('',(0.0605,0.0417,-0.0051));
#2100=CARTESIAN_POINT('',(0.0605,0.0417,0.002));
#2101=CARTESIAN_POINT('',(0.0565,0.0417,0.002));
#2102=CARTESIAN_POINT('',(0.0565,0.0417,-0.0051));
#2103=CARTESIAN_POINT('',(0.0525,0.0417,-0.0051));
#2104=CARTESIAN_POINT('',(0.0525,0.0417,0.002));
#2105=CARTESIAN_POINT('',(0.0525,0.0417,0.002));
#2106=CARTESIAN_POINT('',(0.0565,0.0417,0.002));
#2107=CARTESIAN_POINT('',(0.0525,0.03985,0.002));
#2108=CARTESIAN_POINT('',(0.0525,0.038,-0.0051));
#2109=CARTESIAN_POINT('',(0.0525,0.038,-0.0051));
#2110=CARTESIAN_POINT('',(0.0525,0.04,0.002));
#2111=CARTESIAN_POINT('',(0.0525,0.04,0.002));
#2112=CARTESIAN_POINT('',(0.0525,0.03985,0.002));
#2113=CARTESIAN_POINT('',(0.0525,0.03985,-0.0051));
#2114=CARTESIAN_POINT('',(0.,0.038,0.002));
#2115=CARTESIAN_POINT('',(0.,0.038,0.002));
#2116=CARTESIAN_POINT('',(-0.0505,0.038,0.002));
#2117=CARTESIAN_POINT('',(0.0505,0.038,0.002));
#2118=CARTESIAN_POINT('',(0.0505,0.038,0.));
#2119=CARTESIAN_POINT('',(-0.0505,0.038,0.002));
#2120=CARTESIAN_POINT('',(-0.0525,0.03985,0.002));
#2121=CARTESIAN_POINT('',(-0.0525,0.03985,0.002));
#2122=CARTESIAN_POINT('',(-0.0525,0.04,0.002));
#2123=CARTESIAN_POINT('',(-0.0525,0.0417,0.002));
#2124=CARTESIAN_POINT('',(-0.0525,0.04,0.002));
#2125=CARTESIAN_POINT('',(-0.0525,0.038,-0.0051));
#2126=CARTESIAN_POINT('',(-0.0525,0.038,-0.0051));
#2127=CARTESIAN_POINT('',(-0.0525,0.03985,-0.0051));
#2128=CARTESIAN_POINT('',(-0.0525,0.0417,-0.0051));
#2129=CARTESIAN_POINT('',(-0.0525,0.0417,0.002));
#2130=CARTESIAN_POINT('',(0.0673,-0.0282,0.002));
#2131=CARTESIAN_POINT('',(0.0673,-0.0282,0.002));
#2132=CARTESIAN_POINT('',(0.069,-0.0282,0.002));
#2133=CARTESIAN_POINT('',(0.0673,0.033,0.002));
#2134=CARTESIAN_POINT('',(0.0673,0.033,0.002));
#2135=CARTESIAN_POINT('',(0.069,0.033,0.002));
#2136=CARTESIAN_POINT('',(-0.0673,-0.0282,0.002));
#2137=CARTESIAN_POINT('',(-0.0673,-0.0282,0.002));
#2138=CARTESIAN_POINT('',(-0.0656,-0.0282,0.002));
#2139=CARTESIAN_POINT('',(-0.0673,0.033,0.002));
#2140=CARTESIAN_POINT('',(-0.0673,0.033,0.002));
#2141=CARTESIAN_POINT('',(-0.0656,0.033,0.002));
#2142=CARTESIAN_POINT('',(0.0565,-0.0417,0.002));
#2143=CARTESIAN_POINT('',(0.0565,-0.0417,0.00073));
#2144=CARTESIAN_POINT('',(0.0582,-0.0417,0.00073));
#2145=CARTESIAN_POINT('',(0.0565,-0.0417,-0.0051));
#2146=CARTESIAN_POINT('',(0.0582,-0.0417,-0.0051));
#2147=CARTESIAN_POINT('',(-0.0565,-0.0417,0.002));
#2148=CARTESIAN_POINT('',(-0.0565,-0.0417,0.00073));
#2149=CARTESIAN_POINT('',(-0.0548,-0.0417,0.00073));
#2150=CARTESIAN_POINT('',(-0.0565,-0.0417,-0.0051));
#2151=CARTESIAN_POINT('',(-0.0548,-0.0417,-0.0051));
#2152=CARTESIAN_POINT('',(0.0565,0.0417,0.002));
#2153=CARTESIAN_POINT('',(0.0565,0.0417,0.00073));
#2154=CARTESIAN_POINT('',(0.0582,0.0417,0.00073));
#2155=CARTESIAN_POINT('',(0.0565,0.0417,-0.0051));
#2156=CARTESIAN_POINT('',(0.0582,0.0417,-0.0051));
#2157=CARTESIAN_POINT('',(-0.0565,0.0417,0.002));
#2158=CARTESIAN_POINT('',(-0.0565,0.0417,0.00073));
#2159=CARTESIAN_POINT('',(-0.0548,0.0417,0.00073));
#2160=CARTESIAN_POINT('',(-0.0565,0.0417,-0.0051));
#2161=CARTESIAN_POINT('',(-0.0548,0.0417,-0.0051));
#2162=CARTESIAN_POINT('',(-0.0565,0.0417,0.002));
#2163=CARTESIAN_POINT('',(-0.0565,0.0417,-0.0051));
#2164=CARTESIAN_POINT('',(-0.0565,0.0417,0.002));
#2165=CARTESIAN_POINT('',(-6.93889390390723E-18,-0.0309,0.002));
#2166=CARTESIAN_POINT('',(-6.93889390390723E-18,-0.0309,0.002));
#2167=CARTESIAN_POINT('',(0.,-6.93889390390723E-18,0.002));
#2168=CARTESIAN_POINT('',(-0.0565,-0.0417,0.002));
#2169=CARTESIAN_POINT('',(-0.05353,-0.0417,0.002));
#2170=CARTESIAN_POINT('',(0.0565,-0.0417,0.002));
#2171=CARTESIAN_POINT('',(0.05947,-0.0417,0.002));
#2172=CARTESIAN_POINT('',(0.0565,0.0417,0.002));
#2173=CARTESIAN_POINT('',(0.05947,0.0417,0.002));
#2174=CARTESIAN_POINT('',(-0.0565,0.0417,0.002));
#2175=CARTESIAN_POINT('',(-0.05353,0.0417,0.002));
#2176=CARTESIAN_POINT('',(-0.0625,0.0357,0.002));
#2177=CARTESIAN_POINT('',(-0.0605,0.0283,0.002));
#2178=CARTESIAN_POINT('',(-0.0625,-0.0255,0.002));
#2179=CARTESIAN_POINT('',(-0.0605,-0.0329,0.002));
#2180=CARTESIAN_POINT('',(-0.0505,-0.038,0.002));
#2181=CARTESIAN_POINT('',(0.0525,-0.04,0.002));
#2182=CARTESIAN_POINT('',(0.0625,-0.0309,0.002));
#2183=CARTESIAN_POINT('',(0.0605,-0.0235,0.002));
#2184=CARTESIAN_POINT('',(0.0625,0.0303,0.002));
#2185=CARTESIAN_POINT('',(0.0605,0.0377,0.002));
#2186=CARTESIAN_POINT('',(0.0505,0.038,0.002));
#2187=CARTESIAN_POINT('',(-0.0525,0.04,0.002));
#2188=CARTESIAN_POINT('',(-0.0565,0.038,-0.0051));
#2189=CARTESIAN_POINT('',(-0.0565,0.038,-0.0051));
#2190=CARTESIAN_POINT('',(0.,-6.93889390390723E-18,-0.0051));
#2191=CARTESIAN_POINT('',(0.0565,-0.038,-0.0051));
#2192=CARTESIAN_POINT('',(0.0565,-0.038,-0.0051));
#2193=CARTESIAN_POINT('',(0.,-6.93889390390723E-18,-0.0051));
#2194=CARTESIAN_POINT('',(-0.0565,-0.038,-0.0051));
#2195=CARTESIAN_POINT('',(-0.0565,-0.038,-0.0051));
#2196=CARTESIAN_POINT('',(0.,-6.93889390390723E-18,-0.0051));
#2197=CARTESIAN_POINT('',(0.0565,0.038,-0.0051));
#2198=CARTESIAN_POINT('',(0.0565,0.038,-0.0051));
#2199=CARTESIAN_POINT('',(0.,-6.93889390390723E-18,-0.0051));
#2200=CARTESIAN_POINT('',(-0.0565,-0.0417,0.002));
#2201=CARTESIAN_POINT('',(0.0565,-0.0417,0.00073));
#2202=CARTESIAN_POINT('',(0.0565,0.0417,0.002));
#2203=CARTESIAN_POINT('',(-0.0565,0.0417,0.00073));
#2204=CARTESIAN_POINT('',(-0.0625,-0.0255,0.002));
#2205=CARTESIAN_POINT('',(-0.0605,-0.0329,0.002));
#2206=CARTESIAN_POINT('',(0.0625,-0.0309,0.002));
#2207=CARTESIAN_POINT('',(0.0605,-0.0235,0.002));
#2208=CARTESIAN_POINT('',(0.0625,0.0303,0.002));
#2209=CARTESIAN_POINT('',(0.0605,0.0377,0.002));
#2210=CARTESIAN_POINT('',(-0.0605,0.0283,0.002));
#2211=CARTESIAN_POINT('',(-0.0625,0.0357,0.002));
#2212=CARTESIAN_POINT('',(-0.0505,-0.038,0.002));
#2213=CARTESIAN_POINT('',(0.0525,-0.04,0.002));
#2214=CARTESIAN_POINT('',(0.0505,0.038,0.002));
#2215=CARTESIAN_POINT('',(-0.0525,0.04,0.002));
#2216=CARTESIAN_POINT('',(0.,0.,0.));
#2217=CARTESIAN_POINT('',(-0.0673,-0.0282,-0.01275));
#2218=CARTESIAN_POINT('',(-0.0673,-0.0282,-0.01275));
#2219=CARTESIAN_POINT('',(-0.0656,-0.0282,-0.01275));
#2220=CARTESIAN_POINT('',(-0.0673,-0.0282,0.));
#2221=CARTESIAN_POINT('',(-0.0656,-0.0282,0.));
#2222=CARTESIAN_POINT('',(-0.0673,-0.0282,-0.01275));
#2223=CARTESIAN_POINT('',(-0.0673,-0.0282,-0.01275));
#2224=CARTESIAN_POINT('',(-0.0646,-0.0282,-0.01275));
#2225=CARTESIAN_POINT('',(-0.0673,-0.0282,0.));
#2226=CARTESIAN_POINT('',(-0.0646,-0.0282,0.));
#2227=CARTESIAN_POINT('',(0.,-1.38777878078145E-17,-0.01275));
#2228=CARTESIAN_POINT('',(0.,-1.38777878078145E-17,0.));
#2229=MECHANICAL_DESIGN_GEOMETRIC_PRESENTATION_REPRESENTATION('',(#1352),
#2231);
#2230=MECHANICAL_DESIGN_GEOMETRIC_PRESENTATION_REPRESENTATION('',(#1353),
#2232);
#2231=(
GEOMETRIC_REPRESENTATION_CONTEXT(3)
GLOBAL_UNCERTAINTY_ASSIGNED_CONTEXT((#2233))
GLOBAL_UNIT_ASSIGNED_CONTEXT((#2239,#2237,#2235))
REPRESENTATION_CONTEXT('Display Mount','TOP_LEVEL_ASSEMBLY_PART')
);
#2232=(
GEOMETRIC_REPRESENTATION_CONTEXT(3)
GLOBAL_UNCERTAINTY_ASSIGNED_CONTEXT((#2234))
GLOBAL_UNIT_ASSIGNED_CONTEXT((#2240,#2238,#2236))
REPRESENTATION_CONTEXT('Display Mount Spacer','TOP_LEVEL_ASSEMBLY_PART')
);
#2233=UNCERTAINTY_MEASURE_WITH_UNIT(LENGTH_MEASURE(1.E-8),#2239,
'DISTANCE_ACCURACY_VALUE','Maximum Tolerance applied to model');
#2234=UNCERTAINTY_MEASURE_WITH_UNIT(LENGTH_MEASURE(1.E-8),#2240,
'DISTANCE_ACCURACY_VALUE','Maximum Tolerance applied to model');
#2235=(
NAMED_UNIT(*)
SI_UNIT($,.STERADIAN.)
SOLID_ANGLE_UNIT()
);
#2236=(
NAMED_UNIT(*)
SI_UNIT($,.STERADIAN.)
SOLID_ANGLE_UNIT()
);
#2237=(
NAMED_UNIT(*)
PLANE_ANGLE_UNIT()
SI_UNIT($,.RADIAN.)
);
#2238=(
NAMED_UNIT(*)
PLANE_ANGLE_UNIT()
SI_UNIT($,.RADIAN.)
);
#2239=(
LENGTH_UNIT()
NAMED_UNIT(*)
SI_UNIT($,.METRE.)
);
#2240=(
LENGTH_UNIT()
NAMED_UNIT(*)
SI_UNIT($,.METRE.)
);
#2241=PRODUCT_DEFINITION_SHAPE('','',#2243);
#2242=PRODUCT_DEFINITION_SHAPE('','',#2244);
#2243=PRODUCT_DEFINITION('','',#2247,#2245);
#2244=PRODUCT_DEFINITION('','',#2248,#2246);
#2245=PRODUCT_DEFINITION_CONTEXT('',#2259,'design');
#2246=PRODUCT_DEFINITION_CONTEXT('',#2260,'design');
#2247=PRODUCT_DEFINITION_FORMATION_WITH_SPECIFIED_SOURCE('','',#2251,
 .NOT_KNOWN.);
#2248=PRODUCT_DEFINITION_FORMATION_WITH_SPECIFIED_SOURCE('','',#2252,
 .NOT_KNOWN.);
#2249=PRODUCT_RELATED_PRODUCT_CATEGORY('','',(#2251));
#2250=PRODUCT_RELATED_PRODUCT_CATEGORY('','',(#2252));
#2251=PRODUCT('Display Mount','Display Mount','Display Mount',(#2255));
#2252=PRODUCT('Display Mount Spacer','Display Mount Spacer',
'Display Mount Spacer',(#2256));
#2253=PRODUCT_CATEGORY('','');
#2254=PRODUCT_CATEGORY('','');
#2255=PRODUCT_CONTEXT('',#2259,'mechanical');
#2256=PRODUCT_CONTEXT('',#2260,'mechanical');
#2257=APPLICATION_PROTOCOL_DEFINITION('international standard',
'ap242_managed_model_based_3d_engineering',2011,#2259);
#2258=APPLICATION_PROTOCOL_DEFINITION('international standard',
'ap242_managed_model_based_3d_engineering',2011,#2260);
#2259=APPLICATION_CONTEXT('managed model based 3d engineering');
#2260=APPLICATION_CONTEXT('managed model based 3d engineering');
ENDSEC;
END-ISO-10303-21;
