ISO-10303-21;
HEADER;
/* Generated by software containing ST-Developer
 * from STEP Tools, Inc. (www.steptools.com) 
 */
/* OPTION: using custom renumber hook */

FILE_DESCRIPTION(
/* description */ ('STEP AP242',
'CAx-IF Rec.Pracs.---Representation and Presentation of Product Manufa
cturing Information (PMI)---4.0---2014-10-13',
'CAx-IF Rec.Pracs.---3D Tessellated Geometry---0.4---2014-09-14','2;1'),

/* implementation_level */ '2;1');

FILE_NAME(
/* name */ '68dff3a54ef02431c989445a',
/* time_stamp */ '2025-10-03T16:02:46Z',
/* author */ (''),
/* organization */ (''),
/* preprocessor_version */ 'ST-DEVELOPER v20',
/* originating_system */ 'ONSHAPE BY PTC INC, 1.204',
/* authorisation */ '  ');

FILE_SCHEMA (('AP242_MANAGED_MODEL_BASED_3D_ENGINEERING_MIM_LF { 1 0 10303 442 1 1 4 }'));
ENDSEC;

DATA;
#10=SHAPE_REPRESENTATION_RELATIONSHIP('','',#1023,#11);
#11=ADVANCED_BREP_SHAPE_REPRESENTATION('',(#1021),#1669);
#12=CIRCLE('',#1031,0.0027);
#13=CIRCLE('',#1032,0.0027);
#14=CIRCLE('',#1035,0.0027);
#15=CIRCLE('',#1036,0.0027);
#16=CIRCLE('',#1039,0.0027);
#17=CIRCLE('',#1040,0.0027);
#18=CIRCLE('',#1043,0.0027);
#19=CIRCLE('',#1044,0.0027);
#20=CIRCLE('',#1049,0.0027);
#21=CIRCLE('',#1050,0.0027);
#22=CIRCLE('',#1054,0.0027);
#23=CIRCLE('',#1055,0.0027);
#24=CIRCLE('',#1060,0.0027);
#25=CIRCLE('',#1061,0.0027);
#26=CIRCLE('',#1065,0.0027);
#27=CIRCLE('',#1066,0.0027);
#28=CIRCLE('',#1074,0.0017);
#29=CIRCLE('',#1075,0.0017);
#30=CIRCLE('',#1077,0.0017);
#31=CIRCLE('',#1078,0.0017);
#32=CIRCLE('',#1080,0.0017);
#33=CIRCLE('',#1081,0.0017);
#34=CIRCLE('',#1083,0.0017);
#35=CIRCLE('',#1084,0.0017);
#36=CIRCLE('',#1086,0.0017);
#37=CIRCLE('',#1087,0.0017);
#38=CIRCLE('',#1089,0.0017);
#39=CIRCLE('',#1090,0.0017);
#40=CIRCLE('',#1093,0.0017);
#41=CIRCLE('',#1094,0.0017);
#42=CIRCLE('',#1096,0.0017);
#43=CIRCLE('',#1097,0.0017);
#44=CIRCLE('',#1099,0.0017);
#45=CIRCLE('',#1100,0.0017);
#46=CIRCLE('',#1102,0.0017);
#47=CIRCLE('',#1103,0.0017);
#48=CIRCLE('',#1106,0.0017);
#49=CIRCLE('',#1107,0.0017);
#50=CIRCLE('',#1111,0.0017);
#51=CIRCLE('',#1112,0.0017);
#52=CYLINDRICAL_SURFACE('',#1030,0.0027);
#53=CYLINDRICAL_SURFACE('',#1034,0.0027);
#54=CYLINDRICAL_SURFACE('',#1038,0.0027);
#55=CYLINDRICAL_SURFACE('',#1042,0.0027);
#56=CYLINDRICAL_SURFACE('',#1048,0.0027);
#57=CYLINDRICAL_SURFACE('',#1053,0.0027);
#58=CYLINDRICAL_SURFACE('',#1059,0.0027);
#59=CYLINDRICAL_SURFACE('',#1064,0.0027);
#60=CYLINDRICAL_SURFACE('',#1073,0.0017);
#61=CYLINDRICAL_SURFACE('',#1076,0.0017);
#62=CYLINDRICAL_SURFACE('',#1079,0.0017);
#63=CYLINDRICAL_SURFACE('',#1082,0.0017);
#64=CYLINDRICAL_SURFACE('',#1085,0.0017);
#65=CYLINDRICAL_SURFACE('',#1088,0.0017);
#66=CYLINDRICAL_SURFACE('',#1092,0.0017);
#67=CYLINDRICAL_SURFACE('',#1095,0.0017);
#68=CYLINDRICAL_SURFACE('',#1098,0.0017);
#69=CYLINDRICAL_SURFACE('',#1101,0.0017);
#70=CYLINDRICAL_SURFACE('',#1105,0.0017);
#71=CYLINDRICAL_SURFACE('',#1110,0.0017);
#72=ORIENTED_EDGE('',*,*,#336,.F.);
#73=ORIENTED_EDGE('',*,*,#337,.F.);
#74=ORIENTED_EDGE('',*,*,#338,.T.);
#75=ORIENTED_EDGE('',*,*,#339,.T.);
#76=ORIENTED_EDGE('',*,*,#340,.T.);
#77=ORIENTED_EDGE('',*,*,#341,.F.);
#78=ORIENTED_EDGE('',*,*,#342,.F.);
#79=ORIENTED_EDGE('',*,*,#337,.T.);
#80=ORIENTED_EDGE('',*,*,#343,.T.);
#81=ORIENTED_EDGE('',*,*,#344,.F.);
#82=ORIENTED_EDGE('',*,*,#345,.F.);
#83=ORIENTED_EDGE('',*,*,#341,.T.);
#84=ORIENTED_EDGE('',*,*,#346,.T.);
#85=ORIENTED_EDGE('',*,*,#347,.F.);
#86=ORIENTED_EDGE('',*,*,#348,.F.);
#87=ORIENTED_EDGE('',*,*,#349,.T.);
#88=ORIENTED_EDGE('',*,*,#350,.F.);
#89=ORIENTED_EDGE('',*,*,#351,.F.);
#90=ORIENTED_EDGE('',*,*,#352,.T.);
#91=ORIENTED_EDGE('',*,*,#347,.T.);
#92=ORIENTED_EDGE('',*,*,#353,.F.);
#93=ORIENTED_EDGE('',*,*,#354,.F.);
#94=ORIENTED_EDGE('',*,*,#355,.T.);
#95=ORIENTED_EDGE('',*,*,#351,.T.);
#96=ORIENTED_EDGE('',*,*,#356,.T.);
#97=ORIENTED_EDGE('',*,*,#357,.F.);
#98=ORIENTED_EDGE('',*,*,#358,.F.);
#99=ORIENTED_EDGE('',*,*,#354,.T.);
#100=ORIENTED_EDGE('',*,*,#359,.F.);
#101=ORIENTED_EDGE('',*,*,#360,.F.);
#102=ORIENTED_EDGE('',*,*,#361,.T.);
#103=ORIENTED_EDGE('',*,*,#357,.T.);
#104=ORIENTED_EDGE('',*,*,#362,.F.);
#105=ORIENTED_EDGE('',*,*,#363,.F.);
#106=ORIENTED_EDGE('',*,*,#364,.T.);
#107=ORIENTED_EDGE('',*,*,#360,.T.);
#108=ORIENTED_EDGE('',*,*,#365,.T.);
#109=ORIENTED_EDGE('',*,*,#366,.F.);
#110=ORIENTED_EDGE('',*,*,#367,.F.);
#111=ORIENTED_EDGE('',*,*,#363,.T.);
#112=ORIENTED_EDGE('',*,*,#368,.F.);
#113=ORIENTED_EDGE('',*,*,#369,.F.);
#114=ORIENTED_EDGE('',*,*,#370,.T.);
#115=ORIENTED_EDGE('',*,*,#366,.T.);
#116=ORIENTED_EDGE('',*,*,#371,.T.);
#117=ORIENTED_EDGE('',*,*,#372,.F.);
#118=ORIENTED_EDGE('',*,*,#373,.F.);
#119=ORIENTED_EDGE('',*,*,#369,.T.);
#120=ORIENTED_EDGE('',*,*,#374,.T.);
#121=ORIENTED_EDGE('',*,*,#375,.F.);
#122=ORIENTED_EDGE('',*,*,#376,.F.);
#123=ORIENTED_EDGE('',*,*,#372,.T.);
#124=ORIENTED_EDGE('',*,*,#377,.F.);
#125=ORIENTED_EDGE('',*,*,#378,.F.);
#126=ORIENTED_EDGE('',*,*,#379,.T.);
#127=ORIENTED_EDGE('',*,*,#375,.T.);
#128=ORIENTED_EDGE('',*,*,#380,.F.);
#129=ORIENTED_EDGE('',*,*,#381,.F.);
#130=ORIENTED_EDGE('',*,*,#382,.T.);
#131=ORIENTED_EDGE('',*,*,#378,.T.);
#132=ORIENTED_EDGE('',*,*,#383,.F.);
#133=ORIENTED_EDGE('',*,*,#384,.F.);
#134=ORIENTED_EDGE('',*,*,#385,.T.);
#135=ORIENTED_EDGE('',*,*,#381,.T.);
#136=ORIENTED_EDGE('',*,*,#386,.T.);
#137=ORIENTED_EDGE('',*,*,#387,.F.);
#138=ORIENTED_EDGE('',*,*,#388,.F.);
#139=ORIENTED_EDGE('',*,*,#384,.T.);
#140=ORIENTED_EDGE('',*,*,#389,.T.);
#141=ORIENTED_EDGE('',*,*,#390,.F.);
#142=ORIENTED_EDGE('',*,*,#391,.F.);
#143=ORIENTED_EDGE('',*,*,#387,.T.);
#144=ORIENTED_EDGE('',*,*,#392,.F.);
#145=ORIENTED_EDGE('',*,*,#393,.F.);
#146=ORIENTED_EDGE('',*,*,#394,.T.);
#147=ORIENTED_EDGE('',*,*,#390,.T.);
#148=ORIENTED_EDGE('',*,*,#395,.F.);
#149=ORIENTED_EDGE('',*,*,#396,.F.);
#150=ORIENTED_EDGE('',*,*,#397,.T.);
#151=ORIENTED_EDGE('',*,*,#393,.T.);
#152=ORIENTED_EDGE('',*,*,#398,.T.);
#153=ORIENTED_EDGE('',*,*,#399,.F.);
#154=ORIENTED_EDGE('',*,*,#400,.F.);
#155=ORIENTED_EDGE('',*,*,#396,.T.);
#156=ORIENTED_EDGE('',*,*,#401,.T.);
#157=ORIENTED_EDGE('',*,*,#402,.F.);
#158=ORIENTED_EDGE('',*,*,#403,.F.);
#159=ORIENTED_EDGE('',*,*,#399,.T.);
#160=ORIENTED_EDGE('',*,*,#404,.T.);
#161=ORIENTED_EDGE('',*,*,#405,.F.);
#162=ORIENTED_EDGE('',*,*,#406,.F.);
#163=ORIENTED_EDGE('',*,*,#402,.T.);
#164=ORIENTED_EDGE('',*,*,#407,.F.);
#165=ORIENTED_EDGE('',*,*,#408,.F.);
#166=ORIENTED_EDGE('',*,*,#409,.T.);
#167=ORIENTED_EDGE('',*,*,#405,.T.);
#168=ORIENTED_EDGE('',*,*,#410,.F.);
#169=ORIENTED_EDGE('',*,*,#411,.F.);
#170=ORIENTED_EDGE('',*,*,#412,.T.);
#171=ORIENTED_EDGE('',*,*,#408,.T.);
#172=ORIENTED_EDGE('',*,*,#413,.T.);
#173=ORIENTED_EDGE('',*,*,#414,.F.);
#174=ORIENTED_EDGE('',*,*,#415,.F.);
#175=ORIENTED_EDGE('',*,*,#411,.T.);
#176=ORIENTED_EDGE('',*,*,#416,.T.);
#177=ORIENTED_EDGE('',*,*,#417,.F.);
#178=ORIENTED_EDGE('',*,*,#418,.F.);
#179=ORIENTED_EDGE('',*,*,#419,.T.);
#180=ORIENTED_EDGE('',*,*,#420,.F.);
#181=ORIENTED_EDGE('',*,*,#421,.F.);
#182=ORIENTED_EDGE('',*,*,#422,.T.);
#183=ORIENTED_EDGE('',*,*,#417,.T.);
#184=ORIENTED_EDGE('',*,*,#423,.F.);
#185=ORIENTED_EDGE('',*,*,#424,.F.);
#186=ORIENTED_EDGE('',*,*,#425,.T.);
#187=ORIENTED_EDGE('',*,*,#421,.T.);
#188=ORIENTED_EDGE('',*,*,#426,.T.);
#189=ORIENTED_EDGE('',*,*,#427,.F.);
#190=ORIENTED_EDGE('',*,*,#428,.F.);
#191=ORIENTED_EDGE('',*,*,#429,.T.);
#192=ORIENTED_EDGE('',*,*,#430,.T.);
#193=ORIENTED_EDGE('',*,*,#431,.F.);
#194=ORIENTED_EDGE('',*,*,#432,.F.);
#195=ORIENTED_EDGE('',*,*,#427,.T.);
#196=ORIENTED_EDGE('',*,*,#433,.F.);
#197=ORIENTED_EDGE('',*,*,#434,.F.);
#198=ORIENTED_EDGE('',*,*,#435,.T.);
#199=ORIENTED_EDGE('',*,*,#431,.T.);
#200=ORIENTED_EDGE('',*,*,#436,.T.);
#201=ORIENTED_EDGE('',*,*,#437,.F.);
#202=ORIENTED_EDGE('',*,*,#438,.T.);
#203=ORIENTED_EDGE('',*,*,#439,.F.);
#204=ORIENTED_EDGE('',*,*,#440,.F.);
#205=ORIENTED_EDGE('',*,*,#441,.T.);
#206=ORIENTED_EDGE('',*,*,#442,.F.);
#207=ORIENTED_EDGE('',*,*,#443,.T.);
#208=ORIENTED_EDGE('',*,*,#444,.F.);
#209=ORIENTED_EDGE('',*,*,#445,.T.);
#210=ORIENTED_EDGE('',*,*,#446,.T.);
#211=ORIENTED_EDGE('',*,*,#447,.F.);
#212=ORIENTED_EDGE('',*,*,#448,.F.);
#213=ORIENTED_EDGE('',*,*,#339,.F.);
#214=ORIENTED_EDGE('',*,*,#449,.T.);
#215=ORIENTED_EDGE('',*,*,#344,.T.);
#216=ORIENTED_EDGE('',*,*,#450,.F.);
#217=ORIENTED_EDGE('',*,*,#451,.T.);
#218=ORIENTED_EDGE('',*,*,#452,.T.);
#219=ORIENTED_EDGE('',*,*,#453,.F.);
#220=ORIENTED_EDGE('',*,*,#454,.T.);
#221=ORIENTED_EDGE('',*,*,#455,.F.);
#222=ORIENTED_EDGE('',*,*,#456,.T.);
#223=ORIENTED_EDGE('',*,*,#457,.F.);
#224=ORIENTED_EDGE('',*,*,#458,.T.);
#225=ORIENTED_EDGE('',*,*,#349,.F.);
#226=ORIENTED_EDGE('',*,*,#459,.F.);
#227=ORIENTED_EDGE('',*,*,#414,.T.);
#228=ORIENTED_EDGE('',*,*,#460,.F.);
#229=ORIENTED_EDGE('',*,*,#461,.T.);
#230=ORIENTED_EDGE('',*,*,#462,.T.);
#231=ORIENTED_EDGE('',*,*,#419,.F.);
#232=ORIENTED_EDGE('',*,*,#463,.F.);
#233=ORIENTED_EDGE('',*,*,#424,.T.);
#234=ORIENTED_EDGE('',*,*,#464,.F.);
#235=ORIENTED_EDGE('',*,*,#429,.F.);
#236=ORIENTED_EDGE('',*,*,#465,.T.);
#237=ORIENTED_EDGE('',*,*,#434,.T.);
#238=ORIENTED_EDGE('',*,*,#466,.F.);
#239=ORIENTED_EDGE('',*,*,#467,.T.);
#240=ORIENTED_EDGE('',*,*,#428,.T.);
#241=ORIENTED_EDGE('',*,*,#432,.T.);
#242=ORIENTED_EDGE('',*,*,#435,.F.);
#243=ORIENTED_EDGE('',*,*,#465,.F.);
#244=ORIENTED_EDGE('',*,*,#418,.T.);
#245=ORIENTED_EDGE('',*,*,#422,.F.);
#246=ORIENTED_EDGE('',*,*,#425,.F.);
#247=ORIENTED_EDGE('',*,*,#463,.T.);
#248=ORIENTED_EDGE('',*,*,#460,.T.);
#249=ORIENTED_EDGE('',*,*,#348,.T.);
#250=ORIENTED_EDGE('',*,*,#352,.F.);
#251=ORIENTED_EDGE('',*,*,#355,.F.);
#252=ORIENTED_EDGE('',*,*,#358,.T.);
#253=ORIENTED_EDGE('',*,*,#361,.F.);
#254=ORIENTED_EDGE('',*,*,#364,.F.);
#255=ORIENTED_EDGE('',*,*,#367,.T.);
#256=ORIENTED_EDGE('',*,*,#370,.F.);
#257=ORIENTED_EDGE('',*,*,#373,.T.);
#258=ORIENTED_EDGE('',*,*,#376,.T.);
#259=ORIENTED_EDGE('',*,*,#379,.F.);
#260=ORIENTED_EDGE('',*,*,#382,.F.);
#261=ORIENTED_EDGE('',*,*,#385,.F.);
#262=ORIENTED_EDGE('',*,*,#388,.T.);
#263=ORIENTED_EDGE('',*,*,#391,.T.);
#264=ORIENTED_EDGE('',*,*,#394,.F.);
#265=ORIENTED_EDGE('',*,*,#397,.F.);
#266=ORIENTED_EDGE('',*,*,#400,.T.);
#267=ORIENTED_EDGE('',*,*,#403,.T.);
#268=ORIENTED_EDGE('',*,*,#406,.T.);
#269=ORIENTED_EDGE('',*,*,#409,.F.);
#270=ORIENTED_EDGE('',*,*,#412,.F.);
#271=ORIENTED_EDGE('',*,*,#415,.T.);
#272=ORIENTED_EDGE('',*,*,#459,.T.);
#273=ORIENTED_EDGE('',*,*,#456,.F.);
#274=ORIENTED_EDGE('',*,*,#454,.F.);
#275=ORIENTED_EDGE('',*,*,#452,.F.);
#276=ORIENTED_EDGE('',*,*,#450,.T.);
#277=ORIENTED_EDGE('',*,*,#338,.F.);
#278=ORIENTED_EDGE('',*,*,#342,.T.);
#279=ORIENTED_EDGE('',*,*,#345,.T.);
#280=ORIENTED_EDGE('',*,*,#449,.F.);
#281=ORIENTED_EDGE('',*,*,#446,.F.);
#282=ORIENTED_EDGE('',*,*,#444,.T.);
#283=ORIENTED_EDGE('',*,*,#442,.T.);
#284=ORIENTED_EDGE('',*,*,#440,.T.);
#285=ORIENTED_EDGE('',*,*,#438,.F.);
#286=ORIENTED_EDGE('',*,*,#436,.F.);
#287=ORIENTED_EDGE('',*,*,#466,.T.);
#288=ORIENTED_EDGE('',*,*,#426,.F.);
#289=ORIENTED_EDGE('',*,*,#464,.T.);
#290=ORIENTED_EDGE('',*,*,#433,.T.);
#291=ORIENTED_EDGE('',*,*,#430,.F.);
#292=ORIENTED_EDGE('',*,*,#416,.F.);
#293=ORIENTED_EDGE('',*,*,#462,.F.);
#294=ORIENTED_EDGE('',*,*,#423,.T.);
#295=ORIENTED_EDGE('',*,*,#420,.T.);
#296=ORIENTED_EDGE('',*,*,#461,.F.);
#297=ORIENTED_EDGE('',*,*,#346,.F.);
#298=ORIENTED_EDGE('',*,*,#458,.F.);
#299=ORIENTED_EDGE('',*,*,#413,.F.);
#300=ORIENTED_EDGE('',*,*,#410,.T.);
#301=ORIENTED_EDGE('',*,*,#407,.T.);
#302=ORIENTED_EDGE('',*,*,#404,.F.);
#303=ORIENTED_EDGE('',*,*,#401,.F.);
#304=ORIENTED_EDGE('',*,*,#398,.F.);
#305=ORIENTED_EDGE('',*,*,#395,.T.);
#306=ORIENTED_EDGE('',*,*,#392,.T.);
#307=ORIENTED_EDGE('',*,*,#389,.F.);
#308=ORIENTED_EDGE('',*,*,#386,.F.);
#309=ORIENTED_EDGE('',*,*,#383,.T.);
#310=ORIENTED_EDGE('',*,*,#380,.T.);
#311=ORIENTED_EDGE('',*,*,#377,.T.);
#312=ORIENTED_EDGE('',*,*,#374,.F.);
#313=ORIENTED_EDGE('',*,*,#371,.F.);
#314=ORIENTED_EDGE('',*,*,#368,.T.);
#315=ORIENTED_EDGE('',*,*,#365,.F.);
#316=ORIENTED_EDGE('',*,*,#362,.T.);
#317=ORIENTED_EDGE('',*,*,#359,.T.);
#318=ORIENTED_EDGE('',*,*,#356,.F.);
#319=ORIENTED_EDGE('',*,*,#353,.T.);
#320=ORIENTED_EDGE('',*,*,#350,.T.);
#321=ORIENTED_EDGE('',*,*,#457,.T.);
#322=ORIENTED_EDGE('',*,*,#455,.T.);
#323=ORIENTED_EDGE('',*,*,#453,.T.);
#324=ORIENTED_EDGE('',*,*,#451,.F.);
#325=ORIENTED_EDGE('',*,*,#336,.T.);
#326=ORIENTED_EDGE('',*,*,#448,.T.);
#327=ORIENTED_EDGE('',*,*,#343,.F.);
#328=ORIENTED_EDGE('',*,*,#340,.F.);
#329=ORIENTED_EDGE('',*,*,#447,.T.);
#330=ORIENTED_EDGE('',*,*,#445,.F.);
#331=ORIENTED_EDGE('',*,*,#443,.F.);
#332=ORIENTED_EDGE('',*,*,#441,.F.);
#333=ORIENTED_EDGE('',*,*,#439,.T.);
#334=ORIENTED_EDGE('',*,*,#437,.T.);
#335=ORIENTED_EDGE('',*,*,#467,.F.);
#336=EDGE_CURVE('',#468,#469,#564,.T.);
#337=EDGE_CURVE('',#470,#468,#565,.T.);
#338=EDGE_CURVE('',#470,#471,#566,.T.);
#339=EDGE_CURVE('',#471,#469,#567,.T.);
#340=EDGE_CURVE('',#468,#472,#568,.T.);
#341=EDGE_CURVE('',#473,#472,#569,.T.);
#342=EDGE_CURVE('',#470,#473,#570,.T.);
#343=EDGE_CURVE('',#472,#474,#571,.T.);
#344=EDGE_CURVE('',#475,#474,#572,.T.);
#345=EDGE_CURVE('',#473,#475,#573,.T.);
#346=EDGE_CURVE('',#476,#477,#574,.T.);
#347=EDGE_CURVE('',#478,#477,#575,.T.);
#348=EDGE_CURVE('',#479,#478,#576,.T.);
#349=EDGE_CURVE('',#479,#476,#577,.T.);
#350=EDGE_CURVE('',#480,#477,#578,.T.);
#351=EDGE_CURVE('',#481,#480,#579,.T.);
#352=EDGE_CURVE('',#481,#478,#580,.T.);
#353=EDGE_CURVE('',#482,#480,#12,.T.);
#354=EDGE_CURVE('',#483,#482,#581,.T.);
#355=EDGE_CURVE('',#483,#481,#13,.T.);
#356=EDGE_CURVE('',#482,#484,#582,.T.);
#357=EDGE_CURVE('',#485,#484,#583,.T.);
#358=EDGE_CURVE('',#483,#485,#584,.T.);
#359=EDGE_CURVE('',#486,#484,#14,.T.);
#360=EDGE_CURVE('',#487,#486,#585,.T.);
#361=EDGE_CURVE('',#487,#485,#15,.T.);
#362=EDGE_CURVE('',#488,#486,#586,.T.);
#363=EDGE_CURVE('',#489,#488,#587,.T.);
#364=EDGE_CURVE('',#489,#487,#588,.T.);
#365=EDGE_CURVE('',#488,#490,#16,.T.);
#366=EDGE_CURVE('',#491,#490,#589,.T.);
#367=EDGE_CURVE('',#489,#491,#17,.T.);
#368=EDGE_CURVE('',#492,#490,#590,.T.);
#369=EDGE_CURVE('',#493,#492,#591,.T.);
#370=EDGE_CURVE('',#493,#491,#592,.T.);
#371=EDGE_CURVE('',#492,#494,#18,.T.);
#372=EDGE_CURVE('',#495,#494,#593,.T.);
#373=EDGE_CURVE('',#493,#495,#19,.T.);
#374=EDGE_CURVE('',#494,#496,#594,.T.);
#375=EDGE_CURVE('',#497,#496,#595,.T.);
#376=EDGE_CURVE('',#495,#497,#596,.T.);
#377=EDGE_CURVE('',#498,#496,#597,.T.);
#378=EDGE_CURVE('',#499,#498,#598,.T.);
#379=EDGE_CURVE('',#499,#497,#599,.T.);
#380=EDGE_CURVE('',#500,#498,#600,.T.);
#381=EDGE_CURVE('',#501,#500,#601,.T.);
#382=EDGE_CURVE('',#501,#499,#602,.T.);
#383=EDGE_CURVE('',#502,#500,#20,.T.);
#384=EDGE_CURVE('',#503,#502,#603,.T.);
#385=EDGE_CURVE('',#503,#501,#21,.T.);
#386=EDGE_CURVE('',#502,#504,#604,.T.);
#387=EDGE_CURVE('',#505,#504,#605,.T.);
#388=EDGE_CURVE('',#503,#505,#606,.T.);
#389=EDGE_CURVE('',#504,#506,#607,.T.);
#390=EDGE_CURVE('',#507,#506,#608,.T.);
#391=EDGE_CURVE('',#505,#507,#609,.T.);
#392=EDGE_CURVE('',#508,#506,#22,.T.);
#393=EDGE_CURVE('',#509,#508,#610,.T.);
#394=EDGE_CURVE('',#509,#507,#23,.T.);
#395=EDGE_CURVE('',#510,#508,#611,.T.);
#396=EDGE_CURVE('',#511,#510,#612,.T.);
#397=EDGE_CURVE('',#511,#509,#613,.T.);
#398=EDGE_CURVE('',#510,#512,#614,.T.);
#399=EDGE_CURVE('',#513,#512,#615,.T.);
#400=EDGE_CURVE('',#511,#513,#616,.T.);
#401=EDGE_CURVE('',#512,#514,#617,.T.);
#402=EDGE_CURVE('',#515,#514,#618,.T.);
#403=EDGE_CURVE('',#513,#515,#619,.T.);
#404=EDGE_CURVE('',#514,#516,#24,.T.);
#405=EDGE_CURVE('',#517,#516,#620,.T.);
#406=EDGE_CURVE('',#515,#517,#25,.T.);
#407=EDGE_CURVE('',#518,#516,#621,.T.);
#408=EDGE_CURVE('',#519,#518,#622,.T.);
#409=EDGE_CURVE('',#519,#517,#623,.T.);
#410=EDGE_CURVE('',#520,#518,#624,.T.);
#411=EDGE_CURVE('',#521,#520,#625,.T.);
#412=EDGE_CURVE('',#521,#519,#626,.T.);
#413=EDGE_CURVE('',#520,#522,#26,.T.);
#414=EDGE_CURVE('',#523,#522,#627,.T.);
#415=EDGE_CURVE('',#521,#523,#27,.T.);
#416=EDGE_CURVE('',#524,#525,#628,.T.);
#417=EDGE_CURVE('',#526,#525,#629,.T.);
#418=EDGE_CURVE('',#527,#526,#630,.T.);
#419=EDGE_CURVE('',#527,#524,#631,.T.);
#420=EDGE_CURVE('',#528,#525,#632,.T.);
#421=EDGE_CURVE('',#529,#528,#633,.T.);
#422=EDGE_CURVE('',#529,#526,#634,.T.);
#423=EDGE_CURVE('',#530,#528,#635,.T.);
#424=EDGE_CURVE('',#531,#530,#636,.T.);
#425=EDGE_CURVE('',#531,#529,#637,.T.);
#426=EDGE_CURVE('',#532,#533,#638,.T.);
#427=EDGE_CURVE('',#534,#533,#639,.T.);
#428=EDGE_CURVE('',#535,#534,#640,.T.);
#429=EDGE_CURVE('',#535,#532,#641,.T.);
#430=EDGE_CURVE('',#533,#536,#642,.T.);
#431=EDGE_CURVE('',#537,#536,#643,.T.);
#432=EDGE_CURVE('',#534,#537,#644,.T.);
#433=EDGE_CURVE('',#538,#536,#645,.T.);
#434=EDGE_CURVE('',#539,#538,#646,.T.);
#435=EDGE_CURVE('',#539,#537,#647,.T.);
#436=EDGE_CURVE('',#540,#540,#28,.T.);
#437=EDGE_CURVE('',#541,#541,#29,.T.);
#438=EDGE_CURVE('',#542,#542,#30,.T.);
#439=EDGE_CURVE('',#543,#543,#31,.T.);
#440=EDGE_CURVE('',#544,#544,#32,.T.);
#441=EDGE_CURVE('',#545,#545,#33,.T.);
#442=EDGE_CURVE('',#546,#546,#34,.T.);
#443=EDGE_CURVE('',#547,#547,#35,.T.);
#444=EDGE_CURVE('',#548,#548,#36,.T.);
#445=EDGE_CURVE('',#549,#549,#37,.T.);
#446=EDGE_CURVE('',#550,#550,#38,.T.);
#447=EDGE_CURVE('',#551,#551,#39,.T.);
#448=EDGE_CURVE('',#469,#474,#648,.T.);
#449=EDGE_CURVE('',#471,#475,#649,.T.);
#450=EDGE_CURVE('',#552,#552,#40,.T.);
#451=EDGE_CURVE('',#553,#553,#41,.T.);
#452=EDGE_CURVE('',#554,#554,#42,.T.);
#453=EDGE_CURVE('',#555,#555,#43,.T.);
#454=EDGE_CURVE('',#556,#556,#44,.T.);
#455=EDGE_CURVE('',#557,#557,#45,.T.);
#456=EDGE_CURVE('',#558,#558,#46,.T.);
#457=EDGE_CURVE('',#559,#559,#47,.T.);
#458=EDGE_CURVE('',#522,#476,#650,.T.);
#459=EDGE_CURVE('',#523,#479,#651,.T.);
#460=EDGE_CURVE('',#560,#560,#48,.T.);
#461=EDGE_CURVE('',#561,#561,#49,.T.);
#462=EDGE_CURVE('',#530,#524,#652,.T.);
#463=EDGE_CURVE('',#531,#527,#653,.T.);
#464=EDGE_CURVE('',#532,#538,#654,.T.);
#465=EDGE_CURVE('',#535,#539,#655,.T.);
#466=EDGE_CURVE('',#562,#562,#50,.T.);
#467=EDGE_CURVE('',#563,#563,#51,.T.);
#468=VERTEX_POINT('',#1392);
#469=VERTEX_POINT('',#1393);
#470=VERTEX_POINT('',#1395);
#471=VERTEX_POINT('',#1397);
#472=VERTEX_POINT('',#1401);
#473=VERTEX_POINT('',#1403);
#474=VERTEX_POINT('',#1407);
#475=VERTEX_POINT('',#1409);
#476=VERTEX_POINT('',#1413);
#477=VERTEX_POINT('',#1414);
#478=VERTEX_POINT('',#1416);
#479=VERTEX_POINT('',#1418);
#480=VERTEX_POINT('',#1422);
#481=VERTEX_POINT('',#1424);
#482=VERTEX_POINT('',#1428);
#483=VERTEX_POINT('',#1430);
#484=VERTEX_POINT('',#1434);
#485=VERTEX_POINT('',#1436);
#486=VERTEX_POINT('',#1440);
#487=VERTEX_POINT('',#1442);
#488=VERTEX_POINT('',#1446);
#489=VERTEX_POINT('',#1448);
#490=VERTEX_POINT('',#1452);
#491=VERTEX_POINT('',#1454);
#492=VERTEX_POINT('',#1458);
#493=VERTEX_POINT('',#1460);
#494=VERTEX_POINT('',#1464);
#495=VERTEX_POINT('',#1466);
#496=VERTEX_POINT('',#1470);
#497=VERTEX_POINT('',#1472);
#498=VERTEX_POINT('',#1476);
#499=VERTEX_POINT('',#1478);
#500=VERTEX_POINT('',#1482);
#501=VERTEX_POINT('',#1484);
#502=VERTEX_POINT('',#1488);
#503=VERTEX_POINT('',#1490);
#504=VERTEX_POINT('',#1494);
#505=VERTEX_POINT('',#1496);
#506=VERTEX_POINT('',#1500);
#507=VERTEX_POINT('',#1502);
#508=VERTEX_POINT('',#1506);
#509=VERTEX_POINT('',#1508);
#510=VERTEX_POINT('',#1512);
#511=VERTEX_POINT('',#1514);
#512=VERTEX_POINT('',#1518);
#513=VERTEX_POINT('',#1520);
#514=VERTEX_POINT('',#1524);
#515=VERTEX_POINT('',#1526);
#516=VERTEX_POINT('',#1530);
#517=VERTEX_POINT('',#1532);
#518=VERTEX_POINT('',#1536);
#519=VERTEX_POINT('',#1538);
#520=VERTEX_POINT('',#1542);
#521=VERTEX_POINT('',#1544);
#522=VERTEX_POINT('',#1548);
#523=VERTEX_POINT('',#1550);
#524=VERTEX_POINT('',#1554);
#525=VERTEX_POINT('',#1555);
#526=VERTEX_POINT('',#1557);
#527=VERTEX_POINT('',#1559);
#528=VERTEX_POINT('',#1563);
#529=VERTEX_POINT('',#1565);
#530=VERTEX_POINT('',#1569);
#531=VERTEX_POINT('',#1571);
#532=VERTEX_POINT('',#1575);
#533=VERTEX_POINT('',#1576);
#534=VERTEX_POINT('',#1578);
#535=VERTEX_POINT('',#1580);
#536=VERTEX_POINT('',#1584);
#537=VERTEX_POINT('',#1586);
#538=VERTEX_POINT('',#1590);
#539=VERTEX_POINT('',#1592);
#540=VERTEX_POINT('',#1596);
#541=VERTEX_POINT('',#1598);
#542=VERTEX_POINT('',#1601);
#543=VERTEX_POINT('',#1603);
#544=VERTEX_POINT('',#1606);
#545=VERTEX_POINT('',#1608);
#546=VERTEX_POINT('',#1611);
#547=VERTEX_POINT('',#1613);
#548=VERTEX_POINT('',#1616);
#549=VERTEX_POINT('',#1618);
#550=VERTEX_POINT('',#1621);
#551=VERTEX_POINT('',#1623);
#552=VERTEX_POINT('',#1629);
#553=VERTEX_POINT('',#1631);
#554=VERTEX_POINT('',#1634);
#555=VERTEX_POINT('',#1636);
#556=VERTEX_POINT('',#1639);
#557=VERTEX_POINT('',#1641);
#558=VERTEX_POINT('',#1644);
#559=VERTEX_POINT('',#1646);
#560=VERTEX_POINT('',#1652);
#561=VERTEX_POINT('',#1654);
#562=VERTEX_POINT('',#1663);
#563=VERTEX_POINT('',#1665);
#564=LINE('',#1391,#656);
#565=LINE('',#1394,#657);
#566=LINE('',#1396,#658);
#567=LINE('',#1398,#659);
#568=LINE('',#1400,#660);
#569=LINE('',#1402,#661);
#570=LINE('',#1404,#662);
#571=LINE('',#1406,#663);
#572=LINE('',#1408,#664);
#573=LINE('',#1410,#665);
#574=LINE('',#1412,#666);
#575=LINE('',#1415,#667);
#576=LINE('',#1417,#668);
#577=LINE('',#1419,#669);
#578=LINE('',#1421,#670);
#579=LINE('',#1423,#671);
#580=LINE('',#1425,#672);
#581=LINE('',#1429,#673);
#582=LINE('',#1433,#674);
#583=LINE('',#1435,#675);
#584=LINE('',#1437,#676);
#585=LINE('',#1441,#677);
#586=LINE('',#1445,#678);
#587=LINE('',#1447,#679);
#588=LINE('',#1449,#680);
#589=LINE('',#1453,#681);
#590=LINE('',#1457,#682);
#591=LINE('',#1459,#683);
#592=LINE('',#1461,#684);
#593=LINE('',#1465,#685);
#594=LINE('',#1469,#686);
#595=LINE('',#1471,#687);
#596=LINE('',#1473,#688);
#597=LINE('',#1475,#689);
#598=LINE('',#1477,#690);
#599=LINE('',#1479,#691);
#600=LINE('',#1481,#692);
#601=LINE('',#1483,#693);
#602=LINE('',#1485,#694);
#603=LINE('',#1489,#695);
#604=LINE('',#1493,#696);
#605=LINE('',#1495,#697);
#606=LINE('',#1497,#698);
#607=LINE('',#1499,#699);
#608=LINE('',#1501,#700);
#609=LINE('',#1503,#701);
#610=LINE('',#1507,#702);
#611=LINE('',#1511,#703);
#612=LINE('',#1513,#704);
#613=LINE('',#1515,#705);
#614=LINE('',#1517,#706);
#615=LINE('',#1519,#707);
#616=LINE('',#1521,#708);
#617=LINE('',#1523,#709);
#618=LINE('',#1525,#710);
#619=LINE('',#1527,#711);
#620=LINE('',#1531,#712);
#621=LINE('',#1535,#713);
#622=LINE('',#1537,#714);
#623=LINE('',#1539,#715);
#624=LINE('',#1541,#716);
#625=LINE('',#1543,#717);
#626=LINE('',#1545,#718);
#627=LINE('',#1549,#719);
#628=LINE('',#1553,#720);
#629=LINE('',#1556,#721);
#630=LINE('',#1558,#722);
#631=LINE('',#1560,#723);
#632=LINE('',#1562,#724);
#633=LINE('',#1564,#725);
#634=LINE('',#1566,#726);
#635=LINE('',#1568,#727);
#636=LINE('',#1570,#728);
#637=LINE('',#1572,#729);
#638=LINE('',#1574,#730);
#639=LINE('',#1577,#731);
#640=LINE('',#1579,#732);
#641=LINE('',#1581,#733);
#642=LINE('',#1583,#734);
#643=LINE('',#1585,#735);
#644=LINE('',#1587,#736);
#645=LINE('',#1589,#737);
#646=LINE('',#1591,#738);
#647=LINE('',#1593,#739);
#648=LINE('',#1625,#740);
#649=LINE('',#1626,#741);
#650=LINE('',#1648,#742);
#651=LINE('',#1649,#743);
#652=LINE('',#1656,#744);
#653=LINE('',#1657,#745);
#654=LINE('',#1659,#746);
#655=LINE('',#1660,#747);
#656=VECTOR('',#1119,1.);
#657=VECTOR('',#1120,1.);
#658=VECTOR('',#1121,1.);
#659=VECTOR('',#1122,1.);
#660=VECTOR('',#1125,1.);
#661=VECTOR('',#1126,1.);
#662=VECTOR('',#1127,1.);
#663=VECTOR('',#1130,1.);
#664=VECTOR('',#1131,1.);
#665=VECTOR('',#1132,1.);
#666=VECTOR('',#1135,1.);
#667=VECTOR('',#1136,1.);
#668=VECTOR('',#1137,1.);
#669=VECTOR('',#1138,1.);
#670=VECTOR('',#1141,1.);
#671=VECTOR('',#1142,1.);
#672=VECTOR('',#1143,1.);
#673=VECTOR('',#1148,1.);
#674=VECTOR('',#1153,1.);
#675=VECTOR('',#1154,1.);
#676=VECTOR('',#1155,1.);
#677=VECTOR('',#1160,1.);
#678=VECTOR('',#1165,1.);
#679=VECTOR('',#1166,1.);
#680=VECTOR('',#1167,1.);
#681=VECTOR('',#1172,1.);
#682=VECTOR('',#1177,1.);
#683=VECTOR('',#1178,1.);
#684=VECTOR('',#1179,1.);
#685=VECTOR('',#1184,1.);
#686=VECTOR('',#1189,1.);
#687=VECTOR('',#1190,1.);
#688=VECTOR('',#1191,1.);
#689=VECTOR('',#1194,1.);
#690=VECTOR('',#1195,1.);
#691=VECTOR('',#1196,1.);
#692=VECTOR('',#1199,1.);
#693=VECTOR('',#1200,1.);
#694=VECTOR('',#1201,1.);
#695=VECTOR('',#1206,1.);
#696=VECTOR('',#1211,1.);
#697=VECTOR('',#1212,1.);
#698=VECTOR('',#1213,1.);
#699=VECTOR('',#1216,1.);
#700=VECTOR('',#1217,1.);
#701=VECTOR('',#1218,1.);
#702=VECTOR('',#1223,1.);
#703=VECTOR('',#1228,1.);
#704=VECTOR('',#1229,1.);
#705=VECTOR('',#1230,1.);
#706=VECTOR('',#1233,1.);
#707=VECTOR('',#1234,1.);
#708=VECTOR('',#1235,1.);
#709=VECTOR('',#1238,1.);
#710=VECTOR('',#1239,1.);
#711=VECTOR('',#1240,1.);
#712=VECTOR('',#1245,1.);
#713=VECTOR('',#1250,1.);
#714=VECTOR('',#1251,1.);
#715=VECTOR('',#1252,1.);
#716=VECTOR('',#1255,1.);
#717=VECTOR('',#1256,1.);
#718=VECTOR('',#1257,1.);
#719=VECTOR('',#1262,1.);
#720=VECTOR('',#1267,1.);
#721=VECTOR('',#1268,1.);
#722=VECTOR('',#1269,1.);
#723=VECTOR('',#1270,1.);
#724=VECTOR('',#1273,1.);
#725=VECTOR('',#1274,1.);
#726=VECTOR('',#1275,1.);
#727=VECTOR('',#1278,1.);
#728=VECTOR('',#1279,1.);
#729=VECTOR('',#1280,1.);
#730=VECTOR('',#1283,1.);
#731=VECTOR('',#1284,1.);
#732=VECTOR('',#1285,1.);
#733=VECTOR('',#1286,1.);
#734=VECTOR('',#1289,1.);
#735=VECTOR('',#1290,1.);
#736=VECTOR('',#1291,1.);
#737=VECTOR('',#1294,1.);
#738=VECTOR('',#1295,1.);
#739=VECTOR('',#1296,1.);
#740=VECTOR('',#1335,1.);
#741=VECTOR('',#1336,1.);
#742=VECTOR('',#1363,1.);
#743=VECTOR('',#1364,1.);
#744=VECTOR('',#1373,1.);
#745=VECTOR('',#1374,1.);
#746=VECTOR('',#1377,1.);
#747=VECTOR('',#1378,1.);
#748=EDGE_LOOP('',(#72,#73,#74,#75));
#749=EDGE_LOOP('',(#76,#77,#78,#79));
#750=EDGE_LOOP('',(#80,#81,#82,#83));
#751=EDGE_LOOP('',(#84,#85,#86,#87));
#752=EDGE_LOOP('',(#88,#89,#90,#91));
#753=EDGE_LOOP('',(#92,#93,#94,#95));
#754=EDGE_LOOP('',(#96,#97,#98,#99));
#755=EDGE_LOOP('',(#100,#101,#102,#103));
#756=EDGE_LOOP('',(#104,#105,#106,#107));
#757=EDGE_LOOP('',(#108,#109,#110,#111));
#758=EDGE_LOOP('',(#112,#113,#114,#115));
#759=EDGE_LOOP('',(#116,#117,#118,#119));
#760=EDGE_LOOP('',(#120,#121,#122,#123));
#761=EDGE_LOOP('',(#124,#125,#126,#127));
#762=EDGE_LOOP('',(#128,#129,#130,#131));
#763=EDGE_LOOP('',(#132,#133,#134,#135));
#764=EDGE_LOOP('',(#136,#137,#138,#139));
#765=EDGE_LOOP('',(#140,#141,#142,#143));
#766=EDGE_LOOP('',(#144,#145,#146,#147));
#767=EDGE_LOOP('',(#148,#149,#150,#151));
#768=EDGE_LOOP('',(#152,#153,#154,#155));
#769=EDGE_LOOP('',(#156,#157,#158,#159));
#770=EDGE_LOOP('',(#160,#161,#162,#163));
#771=EDGE_LOOP('',(#164,#165,#166,#167));
#772=EDGE_LOOP('',(#168,#169,#170,#171));
#773=EDGE_LOOP('',(#172,#173,#174,#175));
#774=EDGE_LOOP('',(#176,#177,#178,#179));
#775=EDGE_LOOP('',(#180,#181,#182,#183));
#776=EDGE_LOOP('',(#184,#185,#186,#187));
#777=EDGE_LOOP('',(#188,#189,#190,#191));
#778=EDGE_LOOP('',(#192,#193,#194,#195));
#779=EDGE_LOOP('',(#196,#197,#198,#199));
#780=EDGE_LOOP('',(#200));
#781=EDGE_LOOP('',(#201));
#782=EDGE_LOOP('',(#202));
#783=EDGE_LOOP('',(#203));
#784=EDGE_LOOP('',(#204));
#785=EDGE_LOOP('',(#205));
#786=EDGE_LOOP('',(#206));
#787=EDGE_LOOP('',(#207));
#788=EDGE_LOOP('',(#208));
#789=EDGE_LOOP('',(#209));
#790=EDGE_LOOP('',(#210));
#791=EDGE_LOOP('',(#211));
#792=EDGE_LOOP('',(#212,#213,#214,#215));
#793=EDGE_LOOP('',(#216));
#794=EDGE_LOOP('',(#217));
#795=EDGE_LOOP('',(#218));
#796=EDGE_LOOP('',(#219));
#797=EDGE_LOOP('',(#220));
#798=EDGE_LOOP('',(#221));
#799=EDGE_LOOP('',(#222));
#800=EDGE_LOOP('',(#223));
#801=EDGE_LOOP('',(#224,#225,#226,#227));
#802=EDGE_LOOP('',(#228));
#803=EDGE_LOOP('',(#229));
#804=EDGE_LOOP('',(#230,#231,#232,#233));
#805=EDGE_LOOP('',(#234,#235,#236,#237));
#806=EDGE_LOOP('',(#238));
#807=EDGE_LOOP('',(#239));
#808=EDGE_LOOP('',(#240,#241,#242,#243));
#809=EDGE_LOOP('',(#244,#245,#246,#247));
#810=EDGE_LOOP('',(#248));
#811=EDGE_LOOP('',(#249,#250,#251,#252,#253,#254,#255,#256,#257,#258,#259,
#260,#261,#262,#263,#264,#265,#266,#267,#268,#269,#270,#271,#272));
#812=EDGE_LOOP('',(#273));
#813=EDGE_LOOP('',(#274));
#814=EDGE_LOOP('',(#275));
#815=EDGE_LOOP('',(#276));
#816=EDGE_LOOP('',(#277,#278,#279,#280));
#817=EDGE_LOOP('',(#281));
#818=EDGE_LOOP('',(#282));
#819=EDGE_LOOP('',(#283));
#820=EDGE_LOOP('',(#284));
#821=EDGE_LOOP('',(#285));
#822=EDGE_LOOP('',(#286));
#823=EDGE_LOOP('',(#287));
#824=EDGE_LOOP('',(#288,#289,#290,#291));
#825=EDGE_LOOP('',(#292,#293,#294,#295));
#826=EDGE_LOOP('',(#296));
#827=EDGE_LOOP('',(#297,#298,#299,#300,#301,#302,#303,#304,#305,#306,#307,
#308,#309,#310,#311,#312,#313,#314,#315,#316,#317,#318,#319,#320));
#828=EDGE_LOOP('',(#321));
#829=EDGE_LOOP('',(#322));
#830=EDGE_LOOP('',(#323));
#831=EDGE_LOOP('',(#324));
#832=EDGE_LOOP('',(#325,#326,#327,#328));
#833=EDGE_LOOP('',(#329));
#834=EDGE_LOOP('',(#330));
#835=EDGE_LOOP('',(#331));
#836=EDGE_LOOP('',(#332));
#837=EDGE_LOOP('',(#333));
#838=EDGE_LOOP('',(#334));
#839=EDGE_LOOP('',(#335));
#840=FACE_BOUND('',#748,.T.);
#841=FACE_BOUND('',#749,.T.);
#842=FACE_BOUND('',#750,.T.);
#843=FACE_BOUND('',#751,.T.);
#844=FACE_BOUND('',#752,.T.);
#845=FACE_BOUND('',#753,.T.);
#846=FACE_BOUND('',#754,.T.);
#847=FACE_BOUND('',#755,.T.);
#848=FACE_BOUND('',#756,.T.);
#849=FACE_BOUND('',#757,.T.);
#850=FACE_BOUND('',#758,.T.);
#851=FACE_BOUND('',#759,.T.);
#852=FACE_BOUND('',#760,.T.);
#853=FACE_BOUND('',#761,.T.);
#854=FACE_BOUND('',#762,.T.);
#855=FACE_BOUND('',#763,.T.);
#856=FACE_BOUND('',#764,.T.);
#857=FACE_BOUND('',#765,.T.);
#858=FACE_BOUND('',#766,.T.);
#859=FACE_BOUND('',#767,.T.);
#860=FACE_BOUND('',#768,.T.);
#861=FACE_BOUND('',#769,.T.);
#862=FACE_BOUND('',#770,.T.);
#863=FACE_BOUND('',#771,.T.);
#864=FACE_BOUND('',#772,.T.);
#865=FACE_BOUND('',#773,.T.);
#866=FACE_BOUND('',#774,.T.);
#867=FACE_BOUND('',#775,.T.);
#868=FACE_BOUND('',#776,.T.);
#869=FACE_BOUND('',#777,.T.);
#870=FACE_BOUND('',#778,.T.);
#871=FACE_BOUND('',#779,.T.);
#872=FACE_BOUND('',#780,.T.);
#873=FACE_BOUND('',#781,.T.);
#874=FACE_BOUND('',#782,.T.);
#875=FACE_BOUND('',#783,.T.);
#876=FACE_BOUND('',#784,.T.);
#877=FACE_BOUND('',#785,.T.);
#878=FACE_BOUND('',#786,.T.);
#879=FACE_BOUND('',#787,.T.);
#880=FACE_BOUND('',#788,.T.);
#881=FACE_BOUND('',#789,.T.);
#882=FACE_BOUND('',#790,.T.);
#883=FACE_BOUND('',#791,.T.);
#884=FACE_BOUND('',#792,.T.);
#885=FACE_BOUND('',#793,.T.);
#886=FACE_BOUND('',#794,.T.);
#887=FACE_BOUND('',#795,.T.);
#888=FACE_BOUND('',#796,.T.);
#889=FACE_BOUND('',#797,.T.);
#890=FACE_BOUND('',#798,.T.);
#891=FACE_BOUND('',#799,.T.);
#892=FACE_BOUND('',#800,.T.);
#893=FACE_BOUND('',#801,.T.);
#894=FACE_BOUND('',#802,.T.);
#895=FACE_BOUND('',#803,.T.);
#896=FACE_BOUND('',#804,.T.);
#897=FACE_BOUND('',#805,.T.);
#898=FACE_BOUND('',#806,.T.);
#899=FACE_BOUND('',#807,.T.);
#900=FACE_BOUND('',#808,.T.);
#901=FACE_BOUND('',#809,.T.);
#902=FACE_BOUND('',#810,.T.);
#903=FACE_BOUND('',#811,.T.);
#904=FACE_BOUND('',#812,.T.);
#905=FACE_BOUND('',#813,.T.);
#906=FACE_BOUND('',#814,.T.);
#907=FACE_BOUND('',#815,.T.);
#908=FACE_BOUND('',#816,.T.);
#909=FACE_BOUND('',#817,.T.);
#910=FACE_BOUND('',#818,.T.);
#911=FACE_BOUND('',#819,.T.);
#912=FACE_BOUND('',#820,.T.);
#913=FACE_BOUND('',#821,.T.);
#914=FACE_BOUND('',#822,.T.);
#915=FACE_BOUND('',#823,.T.);
#916=FACE_BOUND('',#824,.T.);
#917=FACE_BOUND('',#825,.T.);
#918=FACE_BOUND('',#826,.T.);
#919=FACE_BOUND('',#827,.T.);
#920=FACE_BOUND('',#828,.T.);
#921=FACE_BOUND('',#829,.T.);
#922=FACE_BOUND('',#830,.T.);
#923=FACE_BOUND('',#831,.T.);
#924=FACE_BOUND('',#832,.T.);
#925=FACE_BOUND('',#833,.T.);
#926=FACE_BOUND('',#834,.T.);
#927=FACE_BOUND('',#835,.T.);
#928=FACE_BOUND('',#836,.T.);
#929=FACE_BOUND('',#837,.T.);
#930=FACE_BOUND('',#838,.T.);
#931=FACE_BOUND('',#839,.T.);
#932=PLANE('',#1025);
#933=PLANE('',#1026);
#934=PLANE('',#1027);
#935=PLANE('',#1028);
#936=PLANE('',#1029);
#937=PLANE('',#1033);
#938=PLANE('',#1037);
#939=PLANE('',#1041);
#940=PLANE('',#1045);
#941=PLANE('',#1046);
#942=PLANE('',#1047);
#943=PLANE('',#1051);
#944=PLANE('',#1052);
#945=PLANE('',#1056);
#946=PLANE('',#1057);
#947=PLANE('',#1058);
#948=PLANE('',#1062);
#949=PLANE('',#1063);
#950=PLANE('',#1067);
#951=PLANE('',#1068);
#952=PLANE('',#1069);
#953=PLANE('',#1070);
#954=PLANE('',#1071);
#955=PLANE('',#1072);
#956=PLANE('',#1091);
#957=PLANE('',#1104);
#958=PLANE('',#1108);
#959=PLANE('',#1109);
#960=PLANE('',#1113);
#961=PLANE('',#1114);
#962=ADVANCED_FACE('',(#840),#932,.T.);
#963=ADVANCED_FACE('',(#841),#933,.F.);
#964=ADVANCED_FACE('',(#842),#934,.F.);
#965=ADVANCED_FACE('',(#843),#935,.F.);
#966=ADVANCED_FACE('',(#844),#936,.T.);
#967=ADVANCED_FACE('',(#845),#52,.T.);
#968=ADVANCED_FACE('',(#846),#937,.F.);
#969=ADVANCED_FACE('',(#847),#53,.T.);
#970=ADVANCED_FACE('',(#848),#938,.T.);
#971=ADVANCED_FACE('',(#849),#54,.T.);
#972=ADVANCED_FACE('',(#850),#939,.T.);
#973=ADVANCED_FACE('',(#851),#55,.T.);
#974=ADVANCED_FACE('',(#852),#940,.F.);
#975=ADVANCED_FACE('',(#853),#941,.T.);
#976=ADVANCED_FACE('',(#854),#942,.T.);
#977=ADVANCED_FACE('',(#855),#56,.T.);
#978=ADVANCED_FACE('',(#856),#943,.F.);
#979=ADVANCED_FACE('',(#857),#944,.F.);
#980=ADVANCED_FACE('',(#858),#57,.T.);
#981=ADVANCED_FACE('',(#859),#945,.T.);
#982=ADVANCED_FACE('',(#860),#946,.F.);
#983=ADVANCED_FACE('',(#861),#947,.F.);
#984=ADVANCED_FACE('',(#862),#58,.T.);
#985=ADVANCED_FACE('',(#863),#948,.T.);
#986=ADVANCED_FACE('',(#864),#949,.T.);
#987=ADVANCED_FACE('',(#865),#59,.T.);
#988=ADVANCED_FACE('',(#866),#950,.F.);
#989=ADVANCED_FACE('',(#867),#951,.T.);
#990=ADVANCED_FACE('',(#868),#952,.T.);
#991=ADVANCED_FACE('',(#869),#953,.F.);
#992=ADVANCED_FACE('',(#870),#954,.F.);
#993=ADVANCED_FACE('',(#871),#955,.T.);
#994=ADVANCED_FACE('',(#872,#873),#60,.F.);
#995=ADVANCED_FACE('',(#874,#875),#61,.F.);
#996=ADVANCED_FACE('',(#876,#877),#62,.F.);
#997=ADVANCED_FACE('',(#878,#879),#63,.F.);
#998=ADVANCED_FACE('',(#880,#881),#64,.F.);
#999=ADVANCED_FACE('',(#882,#883),#65,.F.);
#1000=ADVANCED_FACE('',(#884),#956,.T.);
#1001=ADVANCED_FACE('',(#885,#886),#66,.F.);
#1002=ADVANCED_FACE('',(#887,#888),#67,.F.);
#1003=ADVANCED_FACE('',(#889,#890),#68,.F.);
#1004=ADVANCED_FACE('',(#891,#892),#69,.F.);
#1005=ADVANCED_FACE('',(#893),#957,.F.);
#1006=ADVANCED_FACE('',(#894,#895),#70,.F.);
#1007=ADVANCED_FACE('',(#896),#958,.F.);
#1008=ADVANCED_FACE('',(#897),#959,.T.);
#1009=ADVANCED_FACE('',(#898,#899),#71,.F.);
#1010=ADVANCED_FACE('',(#900,#901,#902,#903,#904,#905,#906,#907,#908,#909,
#910,#911,#912,#913,#914,#915),#960,.T.);
#1011=ADVANCED_FACE('',(#916,#917,#918,#919,#920,#921,#922,#923,#924,#925,
#926,#927,#928,#929,#930,#931),#961,.F.);
#1012=CLOSED_SHELL('',(#962,#963,#964,#965,#966,#967,#968,#969,#970,#971,
#972,#973,#974,#975,#976,#977,#978,#979,#980,#981,#982,#983,#984,#985,#986,
#987,#988,#989,#990,#991,#992,#993,#994,#995,#996,#997,#998,#999,#1000,
#1001,#1002,#1003,#1004,#1005,#1006,#1007,#1008,#1009,#1010,#1011));
#1013=STYLED_ITEM('',(#1014),#1021);
#1014=PRESENTATION_STYLE_ASSIGNMENT((#1015));
#1015=SURFACE_STYLE_USAGE(.BOTH.,#1016);
#1016=SURFACE_SIDE_STYLE('',(#1017));
#1017=SURFACE_STYLE_FILL_AREA(#1018);
#1018=FILL_AREA_STYLE('',(#1019));
#1019=FILL_AREA_STYLE_COLOUR('',#1020);
#1020=COLOUR_RGB('',0.647058823529412,0.647058823529412,0.647058823529412);
#1021=MANIFOLD_SOLID_BREP('Pis Mount',#1012);
#1022=SHAPE_DEFINITION_REPRESENTATION(#1674,#1023);
#1023=SHAPE_REPRESENTATION('Pis Mount',(#1024),#1669);
#1024=AXIS2_PLACEMENT_3D('',#1389,#1115,#1116);
#1025=AXIS2_PLACEMENT_3D('',#1390,#1117,#1118);
#1026=AXIS2_PLACEMENT_3D('',#1399,#1123,#1124);
#1027=AXIS2_PLACEMENT_3D('',#1405,#1128,#1129);
#1028=AXIS2_PLACEMENT_3D('',#1411,#1133,#1134);
#1029=AXIS2_PLACEMENT_3D('',#1420,#1139,#1140);
#1030=AXIS2_PLACEMENT_3D('',#1426,#1144,#1145);
#1031=AXIS2_PLACEMENT_3D('',#1427,#1146,#1147);
#1032=AXIS2_PLACEMENT_3D('',#1431,#1149,#1150);
#1033=AXIS2_PLACEMENT_3D('',#1432,#1151,#1152);
#1034=AXIS2_PLACEMENT_3D('',#1438,#1156,#1157);
#1035=AXIS2_PLACEMENT_3D('',#1439,#1158,#1159);
#1036=AXIS2_PLACEMENT_3D('',#1443,#1161,#1162);
#1037=AXIS2_PLACEMENT_3D('',#1444,#1163,#1164);
#1038=AXIS2_PLACEMENT_3D('',#1450,#1168,#1169);
#1039=AXIS2_PLACEMENT_3D('',#1451,#1170,#1171);
#1040=AXIS2_PLACEMENT_3D('',#1455,#1173,#1174);
#1041=AXIS2_PLACEMENT_3D('',#1456,#1175,#1176);
#1042=AXIS2_PLACEMENT_3D('',#1462,#1180,#1181);
#1043=AXIS2_PLACEMENT_3D('',#1463,#1182,#1183);
#1044=AXIS2_PLACEMENT_3D('',#1467,#1185,#1186);
#1045=AXIS2_PLACEMENT_3D('',#1468,#1187,#1188);
#1046=AXIS2_PLACEMENT_3D('',#1474,#1192,#1193);
#1047=AXIS2_PLACEMENT_3D('',#1480,#1197,#1198);
#1048=AXIS2_PLACEMENT_3D('',#1486,#1202,#1203);
#1049=AXIS2_PLACEMENT_3D('',#1487,#1204,#1205);
#1050=AXIS2_PLACEMENT_3D('',#1491,#1207,#1208);
#1051=AXIS2_PLACEMENT_3D('',#1492,#1209,#1210);
#1052=AXIS2_PLACEMENT_3D('',#1498,#1214,#1215);
#1053=AXIS2_PLACEMENT_3D('',#1504,#1219,#1220);
#1054=AXIS2_PLACEMENT_3D('',#1505,#1221,#1222);
#1055=AXIS2_PLACEMENT_3D('',#1509,#1224,#1225);
#1056=AXIS2_PLACEMENT_3D('',#1510,#1226,#1227);
#1057=AXIS2_PLACEMENT_3D('',#1516,#1231,#1232);
#1058=AXIS2_PLACEMENT_3D('',#1522,#1236,#1237);
#1059=AXIS2_PLACEMENT_3D('',#1528,#1241,#1242);
#1060=AXIS2_PLACEMENT_3D('',#1529,#1243,#1244);
#1061=AXIS2_PLACEMENT_3D('',#1533,#1246,#1247);
#1062=AXIS2_PLACEMENT_3D('',#1534,#1248,#1249);
#1063=AXIS2_PLACEMENT_3D('',#1540,#1253,#1254);
#1064=AXIS2_PLACEMENT_3D('',#1546,#1258,#1259);
#1065=AXIS2_PLACEMENT_3D('',#1547,#1260,#1261);
#1066=AXIS2_PLACEMENT_3D('',#1551,#1263,#1264);
#1067=AXIS2_PLACEMENT_3D('',#1552,#1265,#1266);
#1068=AXIS2_PLACEMENT_3D('',#1561,#1271,#1272);
#1069=AXIS2_PLACEMENT_3D('',#1567,#1276,#1277);
#1070=AXIS2_PLACEMENT_3D('',#1573,#1281,#1282);
#1071=AXIS2_PLACEMENT_3D('',#1582,#1287,#1288);
#1072=AXIS2_PLACEMENT_3D('',#1588,#1292,#1293);
#1073=AXIS2_PLACEMENT_3D('',#1594,#1297,#1298);
#1074=AXIS2_PLACEMENT_3D('',#1595,#1299,#1300);
#1075=AXIS2_PLACEMENT_3D('',#1597,#1301,#1302);
#1076=AXIS2_PLACEMENT_3D('',#1599,#1303,#1304);
#1077=AXIS2_PLACEMENT_3D('',#1600,#1305,#1306);
#1078=AXIS2_PLACEMENT_3D('',#1602,#1307,#1308);
#1079=AXIS2_PLACEMENT_3D('',#1604,#1309,#1310);
#1080=AXIS2_PLACEMENT_3D('',#1605,#1311,#1312);
#1081=AXIS2_PLACEMENT_3D('',#1607,#1313,#1314);
#1082=AXIS2_PLACEMENT_3D('',#1609,#1315,#1316);
#1083=AXIS2_PLACEMENT_3D('',#1610,#1317,#1318);
#1084=AXIS2_PLACEMENT_3D('',#1612,#1319,#1320);
#1085=AXIS2_PLACEMENT_3D('',#1614,#1321,#1322);
#1086=AXIS2_PLACEMENT_3D('',#1615,#1323,#1324);
#1087=AXIS2_PLACEMENT_3D('',#1617,#1325,#1326);
#1088=AXIS2_PLACEMENT_3D('',#1619,#1327,#1328);
#1089=AXIS2_PLACEMENT_3D('',#1620,#1329,#1330);
#1090=AXIS2_PLACEMENT_3D('',#1622,#1331,#1332);
#1091=AXIS2_PLACEMENT_3D('',#1624,#1333,#1334);
#1092=AXIS2_PLACEMENT_3D('',#1627,#1337,#1338);
#1093=AXIS2_PLACEMENT_3D('',#1628,#1339,#1340);
#1094=AXIS2_PLACEMENT_3D('',#1630,#1341,#1342);
#1095=AXIS2_PLACEMENT_3D('',#1632,#1343,#1344);
#1096=AXIS2_PLACEMENT_3D('',#1633,#1345,#1346);
#1097=AXIS2_PLACEMENT_3D('',#1635,#1347,#1348);
#1098=AXIS2_PLACEMENT_3D('',#1637,#1349,#1350);
#1099=AXIS2_PLACEMENT_3D('',#1638,#1351,#1352);
#1100=AXIS2_PLACEMENT_3D('',#1640,#1353,#1354);
#1101=AXIS2_PLACEMENT_3D('',#1642,#1355,#1356);
#1102=AXIS2_PLACEMENT_3D('',#1643,#1357,#1358);
#1103=AXIS2_PLACEMENT_3D('',#1645,#1359,#1360);
#1104=AXIS2_PLACEMENT_3D('',#1647,#1361,#1362);
#1105=AXIS2_PLACEMENT_3D('',#1650,#1365,#1366);
#1106=AXIS2_PLACEMENT_3D('',#1651,#1367,#1368);
#1107=AXIS2_PLACEMENT_3D('',#1653,#1369,#1370);
#1108=AXIS2_PLACEMENT_3D('',#1655,#1371,#1372);
#1109=AXIS2_PLACEMENT_3D('',#1658,#1375,#1376);
#1110=AXIS2_PLACEMENT_3D('',#1661,#1379,#1380);
#1111=AXIS2_PLACEMENT_3D('',#1662,#1381,#1382);
#1112=AXIS2_PLACEMENT_3D('',#1664,#1383,#1384);
#1113=AXIS2_PLACEMENT_3D('',#1666,#1385,#1386);
#1114=AXIS2_PLACEMENT_3D('',#1667,#1387,#1388);
#1115=DIRECTION('',(0.,0.,1.));
#1116=DIRECTION('',(1.,0.,0.));
#1117=DIRECTION('',(9.6373526443156E-17,-1.,0.));
#1118=DIRECTION('',(1.,9.6373526443156E-17,0.));
#1119=DIRECTION('',(-1.,-9.6373526443156E-17,0.));
#1120=DIRECTION('',(0.,0.,-1.));
#1121=DIRECTION('',(-1.,-9.6373526443156E-17,0.));
#1122=DIRECTION('',(0.,0.,-1.));
#1123=DIRECTION('',(1.,0.,0.));
#1124=DIRECTION('',(0.,0.,-1.));
#1125=DIRECTION('',(0.,-1.,0.));
#1126=DIRECTION('',(0.,0.,-1.));
#1127=DIRECTION('',(0.,-1.,0.));
#1128=DIRECTION('',(9.6373526443156E-17,-1.,0.));
#1129=DIRECTION('',(1.,9.6373526443156E-17,0.));
#1130=DIRECTION('',(-1.,-9.6373526443156E-17,0.));
#1131=DIRECTION('',(0.,0.,-1.));
#1132=DIRECTION('',(-1.,-9.6373526443156E-17,0.));
#1133=DIRECTION('',(1.,1.24352937346008E-16,0.));
#1134=DIRECTION('',(-1.24352937346008E-16,1.,0.));
#1135=DIRECTION('',(1.24352937346008E-16,-1.,0.));
#1136=DIRECTION('',(0.,0.,-1.));
#1137=DIRECTION('',(1.24352937346008E-16,-1.,0.));
#1138=DIRECTION('',(0.,0.,-1.));
#1139=DIRECTION('',(0.,1.,0.));
#1140=DIRECTION('',(0.,0.,1.));
#1141=DIRECTION('',(1.,0.,0.));
#1142=DIRECTION('',(0.,0.,-1.));
#1143=DIRECTION('',(1.,0.,0.));
#1144=DIRECTION('',(0.,0.,-1.));
#1145=DIRECTION('',(-1.,0.,0.));
#1146=DIRECTION('',(0.,0.,-1.));
#1147=DIRECTION('',(1.,0.,0.));
#1148=DIRECTION('',(0.,0.,-1.));
#1149=DIRECTION('',(0.,0.,-1.));
#1150=DIRECTION('',(1.,0.,0.));
#1151=DIRECTION('',(0.,1.,0.));
#1152=DIRECTION('',(0.,0.,1.));
#1153=DIRECTION('',(1.,0.,0.));
#1154=DIRECTION('',(0.,0.,-1.));
#1155=DIRECTION('',(1.,0.,0.));
#1156=DIRECTION('',(0.,0.,-1.));
#1157=DIRECTION('',(-1.,0.,0.));
#1158=DIRECTION('',(0.,0.,-1.));
#1159=DIRECTION('',(1.,0.,0.));
#1160=DIRECTION('',(0.,0.,-1.));
#1161=DIRECTION('',(0.,0.,-1.));
#1162=DIRECTION('',(1.,0.,0.));
#1163=DIRECTION('',(-1.89240137846332E-16,-1.,0.));
#1164=DIRECTION('',(1.,-1.89240137846332E-16,0.));
#1165=DIRECTION('',(-1.,1.89240137846332E-16,0.));
#1166=DIRECTION('',(0.,0.,-1.));
#1167=DIRECTION('',(-1.,1.89240137846332E-16,0.));
#1168=DIRECTION('',(0.,0.,-1.));
#1169=DIRECTION('',(-1.,0.,0.));
#1170=DIRECTION('',(0.,0.,1.));
#1171=DIRECTION('',(1.,0.,0.));
#1172=DIRECTION('',(0.,0.,-1.));
#1173=DIRECTION('',(0.,0.,1.));
#1174=DIRECTION('',(1.,0.,0.));
#1175=DIRECTION('',(0.,-1.,0.));
#1176=DIRECTION('',(0.,0.,-1.));
#1177=DIRECTION('',(-1.,0.,0.));
#1178=DIRECTION('',(0.,0.,-1.));
#1179=DIRECTION('',(-1.,0.,0.));
#1180=DIRECTION('',(0.,0.,-1.));
#1181=DIRECTION('',(-1.,0.,0.));
#1182=DIRECTION('',(0.,0.,1.));
#1183=DIRECTION('',(1.,0.,0.));
#1184=DIRECTION('',(0.,0.,-1.));
#1185=DIRECTION('',(0.,0.,1.));
#1186=DIRECTION('',(1.,0.,0.));
#1187=DIRECTION('',(0.,-1.,0.));
#1188=DIRECTION('',(0.,0.,-1.));
#1189=DIRECTION('',(-1.,0.,0.));
#1190=DIRECTION('',(0.,0.,-1.));
#1191=DIRECTION('',(-1.,0.,0.));
#1192=DIRECTION('',(1.,0.,0.));
#1193=DIRECTION('',(0.,0.,-1.));
#1194=DIRECTION('',(0.,-1.,0.));
#1195=DIRECTION('',(0.,0.,-1.));
#1196=DIRECTION('',(0.,-1.,0.));
#1197=DIRECTION('',(0.,-1.,0.));
#1198=DIRECTION('',(0.,0.,-1.));
#1199=DIRECTION('',(-1.,0.,0.));
#1200=DIRECTION('',(0.,0.,-1.));
#1201=DIRECTION('',(-1.,0.,0.));
#1202=DIRECTION('',(0.,0.,-1.));
#1203=DIRECTION('',(-1.,0.,0.));
#1204=DIRECTION('',(0.,0.,-1.));
#1205=DIRECTION('',(1.,0.,0.));
#1206=DIRECTION('',(0.,0.,-1.));
#1207=DIRECTION('',(0.,0.,-1.));
#1208=DIRECTION('',(1.,0.,0.));
#1209=DIRECTION('',(2.70353537906461E-16,-1.,0.));
#1210=DIRECTION('',(1.,2.70353537906461E-16,0.));
#1211=DIRECTION('',(-1.,-2.70353537906461E-16,0.));
#1212=DIRECTION('',(0.,0.,-1.));
#1213=DIRECTION('',(-1.,-2.70353537906461E-16,0.));
#1214=DIRECTION('',(-1.,0.,0.));
#1215=DIRECTION('',(0.,0.,1.));
#1216=DIRECTION('',(0.,1.,0.));
#1217=DIRECTION('',(0.,0.,-1.));
#1218=DIRECTION('',(0.,1.,0.));
#1219=DIRECTION('',(0.,0.,-1.));
#1220=DIRECTION('',(-1.,0.,0.));
#1221=DIRECTION('',(0.,0.,-1.));
#1222=DIRECTION('',(1.,0.,0.));
#1223=DIRECTION('',(0.,0.,-1.));
#1224=DIRECTION('',(0.,0.,-1.));
#1225=DIRECTION('',(1.,0.,0.));
#1226=DIRECTION('',(-1.,0.,0.));
#1227=DIRECTION('',(0.,0.,1.));
#1228=DIRECTION('',(0.,1.,0.));
#1229=DIRECTION('',(0.,0.,-1.));
#1230=DIRECTION('',(0.,1.,0.));
#1231=DIRECTION('',(0.,-1.,0.));
#1232=DIRECTION('',(0.,0.,-1.));
#1233=DIRECTION('',(-1.,0.,0.));
#1234=DIRECTION('',(0.,0.,-1.));
#1235=DIRECTION('',(-1.,0.,0.));
#1236=DIRECTION('',(-1.,0.,0.));
#1237=DIRECTION('',(0.,0.,1.));
#1238=DIRECTION('',(0.,1.,0.));
#1239=DIRECTION('',(0.,0.,-1.));
#1240=DIRECTION('',(0.,1.,0.));
#1241=DIRECTION('',(0.,0.,-1.));
#1242=DIRECTION('',(-1.,0.,0.));
#1243=DIRECTION('',(0.,0.,1.));
#1244=DIRECTION('',(1.,0.,0.));
#1245=DIRECTION('',(0.,0.,-1.));
#1246=DIRECTION('',(0.,0.,1.));
#1247=DIRECTION('',(1.,0.,0.));
#1248=DIRECTION('',(-1.,0.,0.));
#1249=DIRECTION('',(0.,0.,1.));
#1250=DIRECTION('',(0.,1.,0.));
#1251=DIRECTION('',(0.,0.,-1.));
#1252=DIRECTION('',(0.,1.,0.));
#1253=DIRECTION('',(0.,1.,0.));
#1254=DIRECTION('',(0.,0.,1.));
#1255=DIRECTION('',(1.,0.,0.));
#1256=DIRECTION('',(0.,0.,-1.));
#1257=DIRECTION('',(1.,0.,0.));
#1258=DIRECTION('',(0.,0.,-1.));
#1259=DIRECTION('',(-1.,0.,0.));
#1260=DIRECTION('',(0.,0.,1.));
#1261=DIRECTION('',(1.,0.,0.));
#1262=DIRECTION('',(0.,0.,-1.));
#1263=DIRECTION('',(0.,0.,1.));
#1264=DIRECTION('',(1.,0.,0.));
#1265=DIRECTION('',(0.,-1.,0.));
#1266=DIRECTION('',(0.,0.,-1.));
#1267=DIRECTION('',(-1.,0.,0.));
#1268=DIRECTION('',(0.,0.,-1.));
#1269=DIRECTION('',(-1.,0.,0.));
#1270=DIRECTION('',(0.,0.,-1.));
#1271=DIRECTION('',(1.,0.,0.));
#1272=DIRECTION('',(0.,0.,-1.));
#1273=DIRECTION('',(0.,-1.,0.));
#1274=DIRECTION('',(0.,0.,-1.));
#1275=DIRECTION('',(0.,-1.,0.));
#1276=DIRECTION('',(0.,-1.,0.));
#1277=DIRECTION('',(0.,0.,-1.));
#1278=DIRECTION('',(-1.,0.,0.));
#1279=DIRECTION('',(0.,0.,-1.));
#1280=DIRECTION('',(-1.,0.,0.));
#1281=DIRECTION('',(1.,6.21764686730038E-17,0.));
#1282=DIRECTION('',(-6.21764686730038E-17,1.,0.));
#1283=DIRECTION('',(6.21764686730038E-17,-1.,0.));
#1284=DIRECTION('',(0.,0.,-1.));
#1285=DIRECTION('',(6.21764686730038E-17,-1.,0.));
#1286=DIRECTION('',(0.,0.,-1.));
#1287=DIRECTION('',(0.,-1.,0.));
#1288=DIRECTION('',(0.,0.,-1.));
#1289=DIRECTION('',(-1.,0.,0.));
#1290=DIRECTION('',(0.,0.,-1.));
#1291=DIRECTION('',(-1.,0.,0.));
#1292=DIRECTION('',(1.,0.,0.));
#1293=DIRECTION('',(0.,0.,-1.));
#1294=DIRECTION('',(0.,-1.,0.));
#1295=DIRECTION('',(0.,0.,-1.));
#1296=DIRECTION('',(0.,-1.,0.));
#1297=DIRECTION('',(0.,0.,-1.));
#1298=DIRECTION('',(-1.,0.,0.));
#1299=DIRECTION('',(0.,0.,1.));
#1300=DIRECTION('',(1.,0.,0.));
#1301=DIRECTION('',(0.,0.,1.));
#1302=DIRECTION('',(1.,0.,0.));
#1303=DIRECTION('',(0.,0.,-1.));
#1304=DIRECTION('',(-1.,0.,0.));
#1305=DIRECTION('',(0.,0.,1.));
#1306=DIRECTION('',(1.,0.,0.));
#1307=DIRECTION('',(0.,0.,1.));
#1308=DIRECTION('',(1.,0.,0.));
#1309=DIRECTION('',(0.,0.,-1.));
#1310=DIRECTION('',(-1.,0.,0.));
#1311=DIRECTION('',(0.,0.,-1.));
#1312=DIRECTION('',(1.,0.,0.));
#1313=DIRECTION('',(0.,0.,-1.));
#1314=DIRECTION('',(1.,0.,0.));
#1315=DIRECTION('',(0.,0.,-1.));
#1316=DIRECTION('',(-1.,0.,0.));
#1317=DIRECTION('',(0.,0.,-1.));
#1318=DIRECTION('',(1.,0.,0.));
#1319=DIRECTION('',(0.,0.,-1.));
#1320=DIRECTION('',(1.,0.,0.));
#1321=DIRECTION('',(0.,0.,-1.));
#1322=DIRECTION('',(-1.,0.,0.));
#1323=DIRECTION('',(0.,0.,-1.));
#1324=DIRECTION('',(1.,0.,0.));
#1325=DIRECTION('',(0.,0.,-1.));
#1326=DIRECTION('',(1.,0.,0.));
#1327=DIRECTION('',(0.,0.,-1.));
#1328=DIRECTION('',(-1.,0.,0.));
#1329=DIRECTION('',(0.,0.,1.));
#1330=DIRECTION('',(1.,0.,0.));
#1331=DIRECTION('',(0.,0.,1.));
#1332=DIRECTION('',(1.,0.,0.));
#1333=DIRECTION('',(1.,6.21764686730038E-17,0.));
#1334=DIRECTION('',(-6.21764686730038E-17,1.,0.));
#1335=DIRECTION('',(6.21764686730038E-17,-1.,0.));
#1336=DIRECTION('',(6.21764686730038E-17,-1.,0.));
#1337=DIRECTION('',(0.,0.,-1.));
#1338=DIRECTION('',(-1.,0.,0.));
#1339=DIRECTION('',(0.,0.,-1.));
#1340=DIRECTION('',(1.,0.,0.));
#1341=DIRECTION('',(0.,0.,-1.));
#1342=DIRECTION('',(1.,0.,0.));
#1343=DIRECTION('',(0.,0.,-1.));
#1344=DIRECTION('',(-1.,0.,0.));
#1345=DIRECTION('',(0.,0.,1.));
#1346=DIRECTION('',(1.,0.,0.));
#1347=DIRECTION('',(0.,0.,1.));
#1348=DIRECTION('',(1.,0.,0.));
#1349=DIRECTION('',(0.,0.,-1.));
#1350=DIRECTION('',(-1.,0.,0.));
#1351=DIRECTION('',(0.,0.,1.));
#1352=DIRECTION('',(1.,0.,0.));
#1353=DIRECTION('',(0.,0.,1.));
#1354=DIRECTION('',(1.,0.,0.));
#1355=DIRECTION('',(0.,0.,-1.));
#1356=DIRECTION('',(-1.,0.,0.));
#1357=DIRECTION('',(0.,0.,1.));
#1358=DIRECTION('',(1.,0.,0.));
#1359=DIRECTION('',(0.,0.,1.));
#1360=DIRECTION('',(1.,0.,0.));
#1361=DIRECTION('',(0.,1.,0.));
#1362=DIRECTION('',(0.,0.,1.));
#1363=DIRECTION('',(1.,0.,0.));
#1364=DIRECTION('',(1.,0.,0.));
#1365=DIRECTION('',(0.,0.,-1.));
#1366=DIRECTION('',(-1.,0.,0.));
#1367=DIRECTION('',(0.,0.,-1.));
#1368=DIRECTION('',(1.,0.,0.));
#1369=DIRECTION('',(0.,0.,-1.));
#1370=DIRECTION('',(1.,0.,0.));
#1371=DIRECTION('',(1.,6.21764686730039E-17,0.));
#1372=DIRECTION('',(-6.21764686730039E-17,1.,0.));
#1373=DIRECTION('',(6.21764686730039E-17,-1.,0.));
#1374=DIRECTION('',(6.21764686730039E-17,-1.,0.));
#1375=DIRECTION('',(0.,-1.,0.));
#1376=DIRECTION('',(0.,0.,-1.));
#1377=DIRECTION('',(-1.,0.,0.));
#1378=DIRECTION('',(-1.,0.,0.));
#1379=DIRECTION('',(0.,0.,-1.));
#1380=DIRECTION('',(-1.,0.,0.));
#1381=DIRECTION('',(0.,0.,-1.));
#1382=DIRECTION('',(1.,0.,0.));
#1383=DIRECTION('',(0.,0.,-1.));
#1384=DIRECTION('',(1.,0.,0.));
#1385=DIRECTION('',(0.,0.,1.));
#1386=DIRECTION('',(1.,0.,0.));
#1387=DIRECTION('',(0.,0.,1.));
#1388=DIRECTION('',(1.,0.,0.));
#1389=CARTESIAN_POINT('',(0.,0.,0.));
#1390=CARTESIAN_POINT('',(0.0412,0.0279,0.002));
#1391=CARTESIAN_POINT('',(0.0412,0.0279,0.));
#1392=CARTESIAN_POINT('',(0.0592,0.0279,0.));
#1393=CARTESIAN_POINT('',(0.0232,0.0279,0.));
#1394=CARTESIAN_POINT('',(0.0592,0.0279,0.002));
#1395=CARTESIAN_POINT('',(0.0592,0.0279,0.002));
#1396=CARTESIAN_POINT('',(0.0412,0.0279,0.002));
#1397=CARTESIAN_POINT('',(0.0232,0.0279,0.002));
#1398=CARTESIAN_POINT('',(0.0232,0.0279,0.002));
#1399=CARTESIAN_POINT('',(0.0592,3.46944695195361E-18,0.002));
#1400=CARTESIAN_POINT('',(0.0592,3.46944695195361E-18,0.));
#1401=CARTESIAN_POINT('',(0.0592,-0.0279,0.));
#1402=CARTESIAN_POINT('',(0.0592,-0.0279,0.002));
#1403=CARTESIAN_POINT('',(0.0592,-0.0279,0.002));
#1404=CARTESIAN_POINT('',(0.0592,3.46944695195361E-18,0.002));
#1405=CARTESIAN_POINT('',(0.0412,-0.0279,0.002));
#1406=CARTESIAN_POINT('',(0.0412,-0.0279,0.));
#1407=CARTESIAN_POINT('',(0.0232,-0.0279,0.));
#1408=CARTESIAN_POINT('',(0.0232,-0.0279,0.002));
#1409=CARTESIAN_POINT('',(0.0232,-0.0279,0.002));
#1410=CARTESIAN_POINT('',(0.0412,-0.0279,0.002));
#1411=CARTESIAN_POINT('',(-0.0382,0.,0.002));
#1412=CARTESIAN_POINT('',(-0.0382,0.,0.));
#1413=CARTESIAN_POINT('',(-0.0382,0.0279,0.));
#1414=CARTESIAN_POINT('',(-0.0382,-0.0279,0.));
#1415=CARTESIAN_POINT('',(-0.0382,-0.0279,0.002));
#1416=CARTESIAN_POINT('',(-0.0382,-0.0279,0.002));
#1417=CARTESIAN_POINT('',(-0.0382,0.,0.002));
#1418=CARTESIAN_POINT('',(-0.0382,0.0279,0.002));
#1419=CARTESIAN_POINT('',(-0.0382,0.0279,0.002));
#1420=CARTESIAN_POINT('',(-0.05275,-0.0279,0.002));
#1421=CARTESIAN_POINT('',(-0.05275,-0.0279,0.));
#1422=CARTESIAN_POINT('',(-0.0673,-0.0279,0.));
#1423=CARTESIAN_POINT('',(-0.0673,-0.0279,0.002));
#1424=CARTESIAN_POINT('',(-0.0673,-0.0279,0.002));
#1425=CARTESIAN_POINT('',(-0.05275,-0.0279,0.002));
#1426=CARTESIAN_POINT('',(-0.0673,-0.0306,0.002));
#1427=CARTESIAN_POINT('',(-0.0673,-0.0306,0.));
#1428=CARTESIAN_POINT('',(-0.0673,-0.0333,0.));
#1429=CARTESIAN_POINT('',(-0.0673,-0.0333,0.002));
#1430=CARTESIAN_POINT('',(-0.0673,-0.0333,0.002));
#1431=CARTESIAN_POINT('',(-0.0673,-0.0306,0.002));
#1432=CARTESIAN_POINT('',(-0.03365,-0.0333,0.002));
#1433=CARTESIAN_POINT('',(-0.03365,-0.0333,0.));
#1434=CARTESIAN_POINT('',(0.0181335680867602,-0.0333,0.));
#1435=CARTESIAN_POINT('',(0.0181335680867602,-0.0333,0.002));
#1436=CARTESIAN_POINT('',(0.0181335680867602,-0.0333,0.002));
#1437=CARTESIAN_POINT('',(-0.03365,-0.0333,0.002));
#1438=CARTESIAN_POINT('',(0.0205,-0.032,0.002));
#1439=CARTESIAN_POINT('',(0.0205,-0.032,0.));
#1440=CARTESIAN_POINT('',(0.0228664319132399,-0.0333,0.));
#1441=CARTESIAN_POINT('',(0.0228664319132399,-0.0333,0.002));
#1442=CARTESIAN_POINT('',(0.0228664319132399,-0.0333,0.002));
#1443=CARTESIAN_POINT('',(0.0205,-0.032,0.002));
#1444=CARTESIAN_POINT('',(0.0412,-0.0333,0.002));
#1445=CARTESIAN_POINT('',(0.0412,-0.0333,0.));
#1446=CARTESIAN_POINT('',(0.0595335680867602,-0.0333,0.));
#1447=CARTESIAN_POINT('',(0.0595335680867602,-0.0333,0.002));
#1448=CARTESIAN_POINT('',(0.0595335680867602,-0.0333,0.002));
#1449=CARTESIAN_POINT('',(0.0412,-0.0333,0.002));
#1450=CARTESIAN_POINT('',(0.0619,-0.032,0.002));
#1451=CARTESIAN_POINT('',(0.0619,-0.032,0.));
#1452=CARTESIAN_POINT('',(0.0642664319132399,-0.0333,0.));
#1453=CARTESIAN_POINT('',(0.0642664319132399,-0.0333,0.002));
#1454=CARTESIAN_POINT('',(0.0642664319132399,-0.0333,0.002));
#1455=CARTESIAN_POINT('',(0.0619,-0.032,0.002));
#1456=CARTESIAN_POINT('',(0.0657832159566199,-0.0333,0.002));
#1457=CARTESIAN_POINT('',(0.0657832159566199,-0.0333,0.));
#1458=CARTESIAN_POINT('',(0.0673,-0.0333,0.));
#1459=CARTESIAN_POINT('',(0.0673,-0.0333,0.002));
#1460=CARTESIAN_POINT('',(0.0673,-0.0333,0.002));
#1461=CARTESIAN_POINT('',(0.0657832159566199,-0.0333,0.002));
#1462=CARTESIAN_POINT('',(0.0673,-0.0306,0.002));
#1463=CARTESIAN_POINT('',(0.0673,-0.0306,0.));
#1464=CARTESIAN_POINT('',(0.0673,-0.0279,0.));
#1465=CARTESIAN_POINT('',(0.0673,-0.0279,0.002));
#1466=CARTESIAN_POINT('',(0.0673,-0.0279,0.002));
#1467=CARTESIAN_POINT('',(0.0673,-0.0306,0.002));
#1468=CARTESIAN_POINT('',(0.06595,-0.0279,0.002));
#1469=CARTESIAN_POINT('',(0.06595,-0.0279,0.));
#1470=CARTESIAN_POINT('',(0.0646,-0.0279,0.));
#1471=CARTESIAN_POINT('',(0.0646,-0.0279,0.002));
#1472=CARTESIAN_POINT('',(0.0646,-0.0279,0.002));
#1473=CARTESIAN_POINT('',(0.06595,-0.0279,0.002));
#1474=CARTESIAN_POINT('',(0.0646,6.93889390390723E-18,0.002));
#1475=CARTESIAN_POINT('',(0.0646,6.93889390390723E-18,0.));
#1476=CARTESIAN_POINT('',(0.0646,0.0279,0.));
#1477=CARTESIAN_POINT('',(0.0646,0.0279,0.002));
#1478=CARTESIAN_POINT('',(0.0646,0.0279,0.002));
#1479=CARTESIAN_POINT('',(0.0646,6.93889390390723E-18,0.002));
#1480=CARTESIAN_POINT('',(0.06595,0.0279,0.002));
#1481=CARTESIAN_POINT('',(0.06595,0.0279,0.));
#1482=CARTESIAN_POINT('',(0.0673,0.0279,0.));
#1483=CARTESIAN_POINT('',(0.0673,0.0279,0.002));
#1484=CARTESIAN_POINT('',(0.0673,0.0279,0.002));
#1485=CARTESIAN_POINT('',(0.06595,0.0279,0.002));
#1486=CARTESIAN_POINT('',(0.0673,0.0306,0.002));
#1487=CARTESIAN_POINT('',(0.0673,0.0306,0.));
#1488=CARTESIAN_POINT('',(0.0673,0.0333,0.));
#1489=CARTESIAN_POINT('',(0.0673,0.0333,0.002));
#1490=CARTESIAN_POINT('',(0.0673,0.0333,0.002));
#1491=CARTESIAN_POINT('',(0.0673,0.0306,0.002));
#1492=CARTESIAN_POINT('',(0.041634,0.0333,0.002));
#1493=CARTESIAN_POINT('',(0.041634,0.0333,0.));
#1494=CARTESIAN_POINT('',(0.015968,0.0333,0.));
#1495=CARTESIAN_POINT('',(0.015968,0.0333,0.002));
#1496=CARTESIAN_POINT('',(0.015968,0.0333,0.002));
#1497=CARTESIAN_POINT('',(0.041634,0.0333,0.002));
#1498=CARTESIAN_POINT('',(0.015968,0.03665,0.002));
#1499=CARTESIAN_POINT('',(0.015968,0.03665,0.));
#1500=CARTESIAN_POINT('',(0.015968,0.04,0.));
#1501=CARTESIAN_POINT('',(0.015968,0.04,0.002));
#1502=CARTESIAN_POINT('',(0.015968,0.04,0.002));
#1503=CARTESIAN_POINT('',(0.015968,0.03665,0.002));
#1504=CARTESIAN_POINT('',(0.013268,0.04,0.002));
#1505=CARTESIAN_POINT('',(0.013268,0.04,0.));
#1506=CARTESIAN_POINT('',(0.010568,0.04,0.));
#1507=CARTESIAN_POINT('',(0.010568,0.04,0.002));
#1508=CARTESIAN_POINT('',(0.010568,0.04,0.002));
#1509=CARTESIAN_POINT('',(0.013268,0.04,0.002));
#1510=CARTESIAN_POINT('',(0.010568,0.03665,0.002));
#1511=CARTESIAN_POINT('',(0.010568,0.03665,0.));
#1512=CARTESIAN_POINT('',(0.010568,0.0333,0.));
#1513=CARTESIAN_POINT('',(0.010568,0.0333,0.002));
#1514=CARTESIAN_POINT('',(0.010568,0.0333,0.002));
#1515=CARTESIAN_POINT('',(0.010568,0.03665,0.002));
#1516=CARTESIAN_POINT('',(0.005284,0.0333,0.002));
#1517=CARTESIAN_POINT('',(0.005284,0.0333,0.));
#1518=CARTESIAN_POINT('',(-0.0328,0.0333,0.));
#1519=CARTESIAN_POINT('',(-0.0328,0.0333,0.002));
#1520=CARTESIAN_POINT('',(-0.0328,0.0333,0.002));
#1521=CARTESIAN_POINT('',(0.005284,0.0333,0.002));
#1522=CARTESIAN_POINT('',(-0.0328,0.03665,0.002));
#1523=CARTESIAN_POINT('',(-0.0328,0.03665,0.));
#1524=CARTESIAN_POINT('',(-0.0328,0.04,0.));
#1525=CARTESIAN_POINT('',(-0.0328,0.04,0.002));
#1526=CARTESIAN_POINT('',(-0.0328,0.04,0.002));
#1527=CARTESIAN_POINT('',(-0.0328,0.03665,0.002));
#1528=CARTESIAN_POINT('',(-0.0355,0.04,0.002));
#1529=CARTESIAN_POINT('',(-0.0355,0.04,0.));
#1530=CARTESIAN_POINT('',(-0.0382,0.04,0.));
#1531=CARTESIAN_POINT('',(-0.0382,0.04,0.002));
#1532=CARTESIAN_POINT('',(-0.0382,0.04,0.002));
#1533=CARTESIAN_POINT('',(-0.0355,0.04,0.002));
#1534=CARTESIAN_POINT('',(-0.0382,0.03665,0.002));
#1535=CARTESIAN_POINT('',(-0.0382,0.03665,0.));
#1536=CARTESIAN_POINT('',(-0.0382,0.0333,0.));
#1537=CARTESIAN_POINT('',(-0.0382,0.0333,0.002));
#1538=CARTESIAN_POINT('',(-0.0382,0.0333,0.002));
#1539=CARTESIAN_POINT('',(-0.0382,0.03665,0.002));
#1540=CARTESIAN_POINT('',(-0.05275,0.0333,0.002));
#1541=CARTESIAN_POINT('',(-0.05275,0.0333,0.));
#1542=CARTESIAN_POINT('',(-0.0673,0.0333,0.));
#1543=CARTESIAN_POINT('',(-0.0673,0.0333,0.002));
#1544=CARTESIAN_POINT('',(-0.0673,0.0333,0.002));
#1545=CARTESIAN_POINT('',(-0.05275,0.0333,0.002));
#1546=CARTESIAN_POINT('',(-0.0673,0.0306,0.002));
#1547=CARTESIAN_POINT('',(-0.0673,0.0306,0.));
#1548=CARTESIAN_POINT('',(-0.0673,0.0279,0.));
#1549=CARTESIAN_POINT('',(-0.0673,0.0279,0.002));
#1550=CARTESIAN_POINT('',(-0.0673,0.0279,0.002));
#1551=CARTESIAN_POINT('',(-0.0673,0.0306,0.002));
#1552=CARTESIAN_POINT('',(0.016884,-0.0279,0.002));
#1553=CARTESIAN_POINT('',(0.016884,-0.0279,0.));
#1554=CARTESIAN_POINT('',(0.0178,-0.0279,0.));
#1555=CARTESIAN_POINT('',(0.015968,-0.0279,0.));
#1556=CARTESIAN_POINT('',(0.015968,-0.0279,0.002));
#1557=CARTESIAN_POINT('',(0.015968,-0.0279,0.002));
#1558=CARTESIAN_POINT('',(0.016884,-0.0279,0.002));
#1559=CARTESIAN_POINT('',(0.0178,-0.0279,0.002));
#1560=CARTESIAN_POINT('',(0.0178,-0.0279,0.002));
#1561=CARTESIAN_POINT('',(0.015968,3.46944695195361E-18,0.002));
#1562=CARTESIAN_POINT('',(0.015968,3.46944695195361E-18,0.));
#1563=CARTESIAN_POINT('',(0.015968,0.0279,0.));
#1564=CARTESIAN_POINT('',(0.015968,0.0279,0.002));
#1565=CARTESIAN_POINT('',(0.015968,0.0279,0.002));
#1566=CARTESIAN_POINT('',(0.015968,3.46944695195361E-18,0.002));
#1567=CARTESIAN_POINT('',(0.016884,0.0279,0.002));
#1568=CARTESIAN_POINT('',(0.016884,0.0279,0.));
#1569=CARTESIAN_POINT('',(0.0178,0.0279,0.));
#1570=CARTESIAN_POINT('',(0.0178,0.0279,0.002));
#1571=CARTESIAN_POINT('',(0.0178,0.0279,0.002));
#1572=CARTESIAN_POINT('',(0.016884,0.0279,0.002));
#1573=CARTESIAN_POINT('',(0.010568,3.46944695195361E-18,0.002));
#1574=CARTESIAN_POINT('',(0.010568,3.46944695195361E-18,0.));
#1575=CARTESIAN_POINT('',(0.010568,0.0279,0.));
#1576=CARTESIAN_POINT('',(0.010568,-0.0279,0.));
#1577=CARTESIAN_POINT('',(0.010568,-0.0279,0.002));
#1578=CARTESIAN_POINT('',(0.010568,-0.0279,0.002));
#1579=CARTESIAN_POINT('',(0.010568,3.46944695195361E-18,0.002));
#1580=CARTESIAN_POINT('',(0.010568,0.0279,0.002));
#1581=CARTESIAN_POINT('',(0.010568,0.0279,0.002));
#1582=CARTESIAN_POINT('',(0.005284,-0.0279,0.002));
#1583=CARTESIAN_POINT('',(0.005284,-0.0279,0.));
#1584=CARTESIAN_POINT('',(-0.0328,-0.0279,0.));
#1585=CARTESIAN_POINT('',(-0.0328,-0.0279,0.002));
#1586=CARTESIAN_POINT('',(-0.0328,-0.0279,0.002));
#1587=CARTESIAN_POINT('',(0.005284,-0.0279,0.002));
#1588=CARTESIAN_POINT('',(-0.0328,0.,0.002));
#1589=CARTESIAN_POINT('',(-0.0328,0.,0.));
#1590=CARTESIAN_POINT('',(-0.0328,0.0279,0.));
#1591=CARTESIAN_POINT('',(-0.0328,0.0279,0.002));
#1592=CARTESIAN_POINT('',(-0.0328,0.0279,0.002));
#1593=CARTESIAN_POINT('',(-0.0328,0.,0.002));
#1594=CARTESIAN_POINT('',(0.0619,-0.032,0.002));
#1595=CARTESIAN_POINT('',(0.0619,-0.032,0.002));
#1596=CARTESIAN_POINT('',(0.0636,-0.032,0.002));
#1597=CARTESIAN_POINT('',(0.0619,-0.032,0.));
#1598=CARTESIAN_POINT('',(0.0636,-0.032,0.));
#1599=CARTESIAN_POINT('',(0.0673,-0.0306,0.002));
#1600=CARTESIAN_POINT('',(0.0673,-0.0306,0.002));
#1601=CARTESIAN_POINT('',(0.069,-0.0306,0.002));
#1602=CARTESIAN_POINT('',(0.0673,-0.0306,0.));
#1603=CARTESIAN_POINT('',(0.069,-0.0306,0.));
#1604=CARTESIAN_POINT('',(0.0205,-0.032,0.002));
#1605=CARTESIAN_POINT('',(0.0205,-0.032,0.002));
#1606=CARTESIAN_POINT('',(0.0222,-0.032,0.002));
#1607=CARTESIAN_POINT('',(0.0205,-0.032,0.));
#1608=CARTESIAN_POINT('',(0.0222,-0.032,0.));
#1609=CARTESIAN_POINT('',(0.0673,0.0306,0.002));
#1610=CARTESIAN_POINT('',(0.0673,0.0306,0.002));
#1611=CARTESIAN_POINT('',(0.069,0.0306,0.002));
#1612=CARTESIAN_POINT('',(0.0673,0.0306,0.));
#1613=CARTESIAN_POINT('',(0.069,0.0306,0.));
#1614=CARTESIAN_POINT('',(0.0205,0.0306,0.002));
#1615=CARTESIAN_POINT('',(0.0205,0.0306,0.002));
#1616=CARTESIAN_POINT('',(0.0222,0.0306,0.002));
#1617=CARTESIAN_POINT('',(0.0205,0.0306,0.));
#1618=CARTESIAN_POINT('',(0.0222,0.0306,0.));
#1619=CARTESIAN_POINT('',(0.0619,0.0306,0.002));
#1620=CARTESIAN_POINT('',(0.0619,0.0306,0.002));
#1621=CARTESIAN_POINT('',(0.0636,0.0306,0.002));
#1622=CARTESIAN_POINT('',(0.0619,0.0306,0.));
#1623=CARTESIAN_POINT('',(0.0636,0.0306,0.));
#1624=CARTESIAN_POINT('',(0.0232,-3.46944695195361E-18,0.002));
#1625=CARTESIAN_POINT('',(0.0232,-3.46944695195361E-18,0.));
#1626=CARTESIAN_POINT('',(0.0232,-3.46944695195361E-18,0.002));
#1627=CARTESIAN_POINT('',(0.013268,0.04,0.002));
#1628=CARTESIAN_POINT('',(0.013268,0.04,0.002));
#1629=CARTESIAN_POINT('',(0.014968,0.04,0.002));
#1630=CARTESIAN_POINT('',(0.013268,0.04,0.));
#1631=CARTESIAN_POINT('',(0.014968,0.04,0.));
#1632=CARTESIAN_POINT('',(-0.0355,0.04,0.002));
#1633=CARTESIAN_POINT('',(-0.0355,0.04,0.002));
#1634=CARTESIAN_POINT('',(-0.0338,0.04,0.002));
#1635=CARTESIAN_POINT('',(-0.0355,0.04,0.));
#1636=CARTESIAN_POINT('',(-0.0338,0.04,0.));
#1637=CARTESIAN_POINT('',(-0.0355,-0.017658,0.002));
#1638=CARTESIAN_POINT('',(-0.0355,-0.017658,0.002));
#1639=CARTESIAN_POINT('',(-0.0338,-0.017658,0.002));
#1640=CARTESIAN_POINT('',(-0.0355,-0.017658,0.));
#1641=CARTESIAN_POINT('',(-0.0338,-0.017658,0.));
#1642=CARTESIAN_POINT('',(-0.0673,0.0306,0.002));
#1643=CARTESIAN_POINT('',(-0.0673,0.0306,0.002));
#1644=CARTESIAN_POINT('',(-0.0656,0.0306,0.002));
#1645=CARTESIAN_POINT('',(-0.0673,0.0306,0.));
#1646=CARTESIAN_POINT('',(-0.0656,0.0306,0.));
#1647=CARTESIAN_POINT('',(-0.05275,0.0279,0.002));
#1648=CARTESIAN_POINT('',(-0.05275,0.0279,0.));
#1649=CARTESIAN_POINT('',(-0.05275,0.0279,0.002));
#1650=CARTESIAN_POINT('',(-0.0673,-0.0306,0.002));
#1651=CARTESIAN_POINT('',(-0.0673,-0.0306,0.002));
#1652=CARTESIAN_POINT('',(-0.0656,-0.0306,0.002));
#1653=CARTESIAN_POINT('',(-0.0673,-0.0306,0.));
#1654=CARTESIAN_POINT('',(-0.0656,-0.0306,0.));
#1655=CARTESIAN_POINT('',(0.0178,-3.46944695195361E-18,0.002));
#1656=CARTESIAN_POINT('',(0.0178,-3.46944695195361E-18,0.));
#1657=CARTESIAN_POINT('',(0.0178,-3.46944695195361E-18,0.002));
#1658=CARTESIAN_POINT('',(0.005284,0.0279,0.002));
#1659=CARTESIAN_POINT('',(0.005284,0.0279,0.));
#1660=CARTESIAN_POINT('',(0.005284,0.0279,0.002));
#1661=CARTESIAN_POINT('',(0.013268,-0.017658,0.002));
#1662=CARTESIAN_POINT('',(0.013268,-0.017658,0.002));
#1663=CARTESIAN_POINT('',(0.014968,-0.017658,0.002));
#1664=CARTESIAN_POINT('',(0.013268,-0.017658,0.));
#1665=CARTESIAN_POINT('',(0.014968,-0.017658,0.));
#1666=CARTESIAN_POINT('',(0.,0.004,0.002));
#1667=CARTESIAN_POINT('',(0.,0.004,0.));
#1668=MECHANICAL_DESIGN_GEOMETRIC_PRESENTATION_REPRESENTATION('',(#1013),
#1669);
#1669=(
GEOMETRIC_REPRESENTATION_CONTEXT(3)
GLOBAL_UNCERTAINTY_ASSIGNED_CONTEXT((#1670))
GLOBAL_UNIT_ASSIGNED_CONTEXT((#1673,#1672,#1671))
REPRESENTATION_CONTEXT('Pis Mount','TOP_LEVEL_ASSEMBLY_PART')
);
#1670=UNCERTAINTY_MEASURE_WITH_UNIT(LENGTH_MEASURE(1.E-8),#1673,
'DISTANCE_ACCURACY_VALUE','Maximum Tolerance applied to model');
#1671=(
NAMED_UNIT(*)
SI_UNIT($,.STERADIAN.)
SOLID_ANGLE_UNIT()
);
#1672=(
NAMED_UNIT(*)
PLANE_ANGLE_UNIT()
SI_UNIT($,.RADIAN.)
);
#1673=(
LENGTH_UNIT()
NAMED_UNIT(*)
SI_UNIT($,.METRE.)
);
#1674=PRODUCT_DEFINITION_SHAPE('','',#1675);
#1675=PRODUCT_DEFINITION('','',#1677,#1676);
#1676=PRODUCT_DEFINITION_CONTEXT('',#1683,'design');
#1677=PRODUCT_DEFINITION_FORMATION_WITH_SPECIFIED_SOURCE('','',#1679,
 .NOT_KNOWN.);
#1678=PRODUCT_RELATED_PRODUCT_CATEGORY('','',(#1679));
#1679=PRODUCT('Pis Mount','Pis Mount','Pis Mount',(#1681));
#1680=PRODUCT_CATEGORY('','');
#1681=PRODUCT_CONTEXT('',#1683,'mechanical');
#1682=APPLICATION_PROTOCOL_DEFINITION('international standard',
'ap242_managed_model_based_3d_engineering',2011,#1683);
#1683=APPLICATION_CONTEXT('managed model based 3d engineering');
ENDSEC;
END-ISO-10303-21;
