<?xml version="1.0" encoding="UTF-8" standalone="no"?>
<svg
   viewBox="0 0 576.99999 673.00039"
   width="577"
   height="673.00037"
   version="1.1"
   id="svg94"
   xmlns="http://www.w3.org/2000/svg"
   xmlns:svg="http://www.w3.org/2000/svg">
  <desc
     id="desc1">Andrew Arcade - Deck.dxf - scale = 25.400000, origin = (0.000000, 0.000000), method = file</desc>
  <defs
     id="defs4" />
  <g
     id="g85"
     transform="translate(288.50001,-800.41965)">
    <path
       d="m 163.2,1340.4397 a 43.2,43.2 0 0 0 -86.4,0 43.2,43.2 0 0 0 86.4,0 z"
       style="fill:none;stroke:#000000"
       id="path33" />
    <path
       d="m 60.850368,1282.5449 a 6.425184,6.425184 0 0 0 -12.850368,0 6.425184,6.425184 0 0 0 12.850368,0 z"
       style="fill:none;stroke:#000000"
       id="path34" />
    <path
       d="m 192,1413.6945 a 6.425185,6.425185 0 0 0 -12.85037,0 6.425185,6.425185 0 0 0 12.85037,0 z"
       style="fill:none;stroke:#000000"
       id="path35" />
    <path
       style="fill:none;stroke:#000000"
       d="m 48.96,1472.92 v -10.56"
       id="path36" />
    <path
       style="fill:none;stroke:#000000"
       d="M 264,1472.92 H 48.96"
       id="path37" />
    <path
       d="m 264,1472.9197 a 24,24 0 0 0 24,-24"
       style="fill:none;stroke:#000000"
       id="path38" />
    <path
       style="fill:none;stroke:#000000"
       d="M 288,1448.92 V 1171.48"
       id="path39" />
    <path
       style="fill:none;stroke:#000000"
       d="M 288,1171.48 H 277.44"
       id="path40" />
    <path
       style="fill:none;stroke:#000000"
       d="m 277.44,1073.56 v 97.92"
       id="path41" />
    <path
       style="fill:none;stroke:#000000"
       d="M 288,1073.56 H 277.44"
       id="path42" />
    <path
       style="fill:none;stroke:#000000"
       d="M 288,1073.56 V 824.92"
       id="path43" />
    <path
       d="m 288,824.91968 a 24,24 0 0 0 -24,-24"
       style="fill:none;stroke:#000000"
       id="path44" />
    <path
       style="fill:none;stroke:#000000"
       d="M 264,800.92 H 48.96"
       id="path45" />
    <path
       style="fill:none;stroke:#000000"
       d="m 48.96,800.92 v 10.56"
       id="path46" />
    <path
       style="fill:none;stroke:#000000"
       d="M -48.96,811.48 H 48.96"
       id="path47" />
    <path
       style="fill:none;stroke:#000000"
       d="m -48.96,800.92 v 10.56"
       id="path48" />
    <path
       style="fill:none;stroke:#000000"
       d="M -48.96,800.92 H -264"
       id="path49" />
    <path
       d="m -264,800.91968 a 24,24 0 0 0 -24,24"
       style="fill:none;stroke:#000000"
       id="path50" />
    <path
       style="fill:none;stroke:#000000"
       d="M -288,1073.56 V 824.92"
       id="path51" />
    <path
       style="fill:none;stroke:#000000"
       d="m -288,1073.56 h 10.56"
       id="path52" />
    <path
       style="fill:none;stroke:#000000"
       d="m -277.44,1073.56 v 97.92"
       id="path53" />
    <path
       style="fill:none;stroke:#000000"
       d="m -288,1171.48 h 10.56"
       id="path54" />
    <path
       style="fill:none;stroke:#000000"
       d="M -288,1448.92 V 1171.48"
       id="path55" />
    <path
       d="m -288,1448.9197 a 24,24 0 0 0 24,24"
       style="fill:none;stroke:#000000"
       id="path56" />
    <path
       style="fill:none;stroke:#000000"
       d="M -48.96,1472.92 H -264"
       id="path57" />
    <path
       style="fill:none;stroke:#000000"
       d="m -48.96,1472.92 v -10.56"
       id="path58" />
    <path
       style="fill:none;stroke:#000000"
       d="M -48.96,1462.36 H 48.96"
       id="path59" />
    <path
       style="fill:none;stroke:#000000"
       d="M -43.2,1271.32 H -196.8"
       id="path60" />
    <path
       style="fill:none;stroke:#000000"
       d="m -43.2,1424.92 v -153.6"
       id="path61" />
    <path
       style="fill:none;stroke:#000000"
       d="M -43.2,1424.92 H -196.8"
       id="path62" />
    <path
       style="fill:none;stroke:#000000"
       d="m -196.8,1424.92 v -153.6"
       id="path63" />
    <path
       d="m -203.81482,1415.1345 a 6.425184,6.425184 0 0 0 -12.85036,0 6.425184,6.425184 0 0 0 12.85036,0 z"
       style="fill:none;stroke:#000000"
       id="path64" />
    <path
       d="m -203.81482,1281.1049 a 6.425184,6.425184 0 0 0 -12.85036,0 6.425184,6.425184 0 0 0 12.85036,0 z"
       style="fill:none;stroke:#000000"
       id="path65" />
    <path
       d="m -73.014816,1252.8945 a 6.425184,6.425184 0 0 0 -12.850368,0 6.425184,6.425184 0 0 0 12.850368,0 z"
       style="fill:none;stroke:#000000"
       id="path66" />
    <path
       d="m 85.865184,1252.8945 a 6.425184,6.425184 0 0 0 -12.850368,0 6.425184,6.425184 0 0 0 12.850368,0 z"
       style="fill:none;stroke:#000000"
       id="path67" />
    <path
       d="m 190.26518,1173.3997 a 6.425184,6.425184 0 0 0 -12.85036,0 6.425184,6.425184 0 0 0 12.85036,0 z"
       style="fill:none;stroke:#000000"
       id="path68" />
    <path
       d="m -177.41482,1173.3997 a 6.425184,6.425184 0 0 0 -12.85036,0 6.425184,6.425184 0 0 0 12.85036,0 z"
       style="fill:none;stroke:#000000"
       id="path69" />
    <path
       d="m 190.26518,835.47969 a 6.425184,6.425184 0 0 0 -12.85036,0 6.425184,6.425184 0 0 0 12.85036,0 z"
       style="fill:none;stroke:#000000"
       id="path70" />
    <path
       d="m -177.41482,835.47969 a 6.425184,6.425184 0 0 0 -12.85036,0 6.425184,6.425184 0 0 0 12.85036,0 z"
       style="fill:none;stroke:#000000"
       id="path71" />
    <path
       d="m 85.865184,1205.2649 a 6.425184,6.425184 0 0 0 -12.850368,0 6.425184,6.425184 0 0 0 12.850368,0 z"
       style="fill:none;stroke:#000000"
       id="path72" />
    <path
       d="m -73.014816,1205.2649 a 6.425184,6.425184 0 0 0 -12.850368,0 6.425184,6.425184 0 0 0 12.850368,0 z"
       style="fill:none;stroke:#000000"
       id="path73" />
    <path
       d="m -23.334816,1415.1345 a 6.425184,6.425184 0 0 0 -12.850368,0 6.425184,6.425184 0 0 0 12.850368,0 z"
       style="fill:none;stroke:#000000"
       id="path74" />
    <path
       d="m -23.334816,1281.1049 a 6.425184,6.425184 0 0 0 -12.850368,0 6.425184,6.425184 0 0 0 12.850368,0 z"
       style="fill:none;stroke:#000000"
       id="path75" />
    <path
       style="fill:none;stroke:#000000"
       d="m -66,1195.48 v 67.2"
       id="path76" />
    <path
       style="fill:none;stroke:#000000"
       d="M 66,1195.48 H -66"
       id="path77" />
    <path
       style="fill:none;stroke:#000000"
       d="m 66,1195.48 v 67.2"
       id="path78" />
    <path
       style="fill:none;stroke:#000000"
       d="M 66,1262.68 H -66"
       id="path79" />
    <path
       style="fill:none;stroke:#000000"
       d="M 238.08,1160.44 H -238.08"
       id="path80" />
    <path
       style="fill:none;stroke:#000000"
       d="m -238.08,1160.44 v -312"
       id="path81" />
    <path
       style="fill:none;stroke:#000000"
       d="M 238.08,848.44 H -238.08"
       id="path82" />
    <path
       style="fill:none;stroke:#000000"
       d="m 238.08,1160.44 v -312"
       id="path83" />
    <path
       d="m 192,1282.5449 a 6.425185,6.425185 0 0 0 -12.85037,0 6.425185,6.425185 0 0 0 12.85037,0 z"
       style="fill:none;stroke:#000000"
       id="path84" />
    <path
       d="m 60.850368,1413.6945 a 6.425184,6.425184 0 0 0 -12.850368,0 6.425184,6.425184 0 0 0 12.850368,0 z"
       style="fill:none;stroke:#000000"
       id="path85" />
  </g>
</svg>
