<?xml version="1.0" encoding="UTF-8" standalone="no"?>
<svg width="279.4mm" height="215.9mm"
 viewBox="0 0 3300 2550"
 xmlns="http://www.w3.org/2000/svg" xmlns:xlink="http://www.w3.org/1999/xlink"  version="1.2" baseProfile="tiny">
<defs>
</defs>
<g fill="none" stroke="black" stroke-width="1" fill-rule="evenodd" stroke-linecap="square" stroke-linejoin="bevel" >

<g fill="#ffffff" fill-opacity="1" stroke="none" transform="matrix(1,0,0,1,0,0)"
font-family="Arial" font-size="12" font-weight="400" font-style="normal" 
>
<rect x="0" y="0" width="3300" height="2550"/>
</g>

<g fill="none" stroke="#000000" stroke-opacity="1" stroke-width="1" stroke-linecap="square" stroke-linejoin="bevel" transform="matrix(1,0,0,1,0,0)"
font-family="Arial" font-size="12" font-weight="400" font-style="normal" 
>
</g>

<g fill="#000000" fill-opacity="1" stroke="#000000" stroke-opacity="1" stroke-width="1" stroke-linecap="butt" stroke-linejoin="miter" stroke-miterlimit="2" transform="matrix(1,0,0,1,0,0)"
font-family="Arial" font-size="12" font-weight="400" font-style="normal" 
>
</g>

<g fill="#000000" fill-opacity="1" stroke="#000000" stroke-opacity="1" stroke-width="5" stroke-linecap="round" stroke-linejoin="bevel" transform="matrix(1,0,0,1,0,0)"
font-family="Arial" font-size="12" font-weight="400" font-style="normal" 
>
<polyline fill="none" vector-effect="none" points="1659.81,1553.36 1659.8,1552.99 1659.78,1552.63 1659.75,1552.26 1659.7,1551.9 1659.64,1551.54 1659.57,1551.18 1659.48,1550.83 1659.39,1550.48 1659.27,1550.13 1659.15,1549.79 1659.02,1549.45 1658.87,1549.12 1658.71,1548.79 1658.54,1548.47 1658.35,1548.15 1658.16,1547.84 1657.95,1547.54 1657.74,1547.25 1657.51,1546.96 1657.27,1546.69 1657.03,1546.42 1656.77,1546.16 1656.5,1545.91 1656.23,1545.67 1655.94,1545.44 1655.65,1545.22 1655.35,1545.01 1655.05,1544.82 1654.73,1544.63 1654.41,1544.46 1654.09,1544.29 1653.76,1544.14 1653.42,1544 1653.08,1543.88 1652.73,1543.76 1652.38,1543.66 1652.03,1543.57 1651.67,1543.5 1651.31,1543.44 1650.95,1543.39 1650.59,1543.35 1650.22,1543.33 1649.86,1543.32 1649.49,1543.32 1649.13,1543.34 1648.77,1543.37 1648.4,1543.41 1648.04,1543.46 1647.69,1543.53 1647.33,1543.62 1646.98,1543.71 1646.63,1543.82 1646.29,1543.94 1645.95,1544.07 1645.61,1544.22 1645.28,1544.37 1644.96,1544.54 1644.64,1544.72 1644.33,1544.91 1644.03,1545.12 1643.73,1545.33 1643.45,1545.56 1643.17,1545.79 1642.9,1546.03 1642.64,1546.29 1642.38,1546.55 1642.14,1546.82 1641.91,1547.11 1641.69,1547.4 1641.48,1547.69 1641.28,1548 1641.09,1548.31 1640.91,1548.63 1640.74,1548.95 1640.59,1549.28 1640.45,1549.62 1640.32,1549.96 1640.2,1550.3 1640.1,1550.65 1640.01,1551.01 1639.93,1551.36 1639.86,1551.72 1639.81,1552.08 1639.77,1552.44 1639.74,1552.81 1639.73,1553.17 1639.73,1553.54 1639.74,1553.9 1639.77,1554.27 1639.81,1554.63 1639.86,1554.99 1639.93,1555.35 1640.01,1555.7 1640.1,1556.06 1640.2,1556.41 1640.32,1556.75 1640.45,1557.09 1640.59,1557.43 1640.74,1557.76 1640.91,1558.08 1641.09,1558.4 1641.28,1558.71 1641.48,1559.02 1641.69,1559.32 1641.91,1559.6 1642.14,1559.89 1642.38,1560.16 1642.64,1560.42 1642.9,1560.68 1643.17,1560.92 1643.45,1561.16 1643.73,1561.38 1644.03,1561.59 1644.33,1561.8 1644.64,1561.99 1644.96,1562.17 1645.28,1562.34 1645.61,1562.49 1645.95,1562.64 1646.29,1562.77 1646.63,1562.89 1646.98,1563 1647.33,1563.09 1647.69,1563.18 1648.04,1563.25 1648.4,1563.3 1648.77,1563.34 1649.13,1563.37 1649.49,1563.39 1649.86,1563.39 1650.22,1563.38 1650.59,1563.36 1650.95,1563.32 1651.31,1563.28 1651.67,1563.21 1652.03,1563.14 1652.38,1563.05 1652.73,1562.95 1653.08,1562.83 1653.42,1562.71 1653.76,1562.57 1654.09,1562.42 1654.41,1562.25 1654.73,1562.08 1655.05,1561.89 1655.35,1561.7 1655.65,1561.49 1655.94,1561.27 1656.23,1561.04 1656.5,1560.8 1656.77,1560.55 1657.03,1560.29 1657.27,1560.02 1657.51,1559.75 1657.74,1559.46 1657.95,1559.17 1658.16,1558.87 1658.35,1558.56 1658.54,1558.24 1658.71,1557.92 1658.87,1557.59 1659.02,1557.26 1659.15,1556.92 1659.27,1556.58 1659.39,1556.23 1659.48,1555.88 1659.57,1555.53 1659.64,1555.17 1659.7,1554.81 1659.75,1554.45 1659.78,1554.08 1659.8,1553.72 1659.81,1553.36 " />
<polyline fill="none" vector-effect="none" points="1864.73,1348.43 1864.72,1348.07 1864.7,1347.71 1864.67,1347.34 1864.62,1346.98 1864.56,1346.62 1864.49,1346.26 1864.4,1345.91 1864.31,1345.56 1864.2,1345.21 1864.07,1344.87 1863.94,1344.53 1863.79,1344.2 1863.63,1343.87 1863.46,1343.55 1863.27,1343.23 1863.08,1342.92 1862.87,1342.62 1862.66,1342.33 1862.43,1342.04 1862.19,1341.77 1861.95,1341.5 1861.69,1341.24 1861.42,1340.99 1861.15,1340.75 1860.87,1340.52 1860.57,1340.3 1860.28,1340.09 1859.97,1339.9 1859.66,1339.71 1859.34,1339.53 1859.01,1339.37 1858.68,1339.22 1858.34,1339.08 1858,1338.96 1857.65,1338.84 1857.3,1338.74 1856.95,1338.65 1856.59,1338.58 1856.23,1338.51 1855.87,1338.46 1855.51,1338.43 1855.14,1338.4 1854.78,1338.4 1854.41,1338.4 1854.05,1338.41 1853.69,1338.44 1853.33,1338.49 1852.96,1338.54 1852.61,1338.61 1852.25,1338.69 1851.9,1338.79 1851.55,1338.9 1851.21,1339.02 1850.87,1339.15 1850.53,1339.29 1850.2,1339.45 1849.88,1339.62 1849.56,1339.8 1849.25,1339.99 1848.95,1340.2 1848.66,1340.41 1848.37,1340.63 1848.09,1340.87 1847.82,1341.11 1847.56,1341.37 1847.31,1341.63 1847.06,1341.9 1846.83,1342.18 1846.61,1342.47 1846.4,1342.77 1846.2,1343.08 1846.01,1343.39 1845.83,1343.71 1845.67,1344.03 1845.51,1344.36 1845.37,1344.7 1845.24,1345.04 1845.12,1345.38 1845.02,1345.73 1844.93,1346.09 1844.85,1346.44 1844.78,1346.8 1844.73,1347.16 1844.69,1347.52 1844.66,1347.89 1844.65,1348.25 1844.65,1348.62 1844.66,1348.98 1844.69,1349.34 1844.73,1349.71 1844.78,1350.07 1844.85,1350.43 1844.93,1350.78 1845.02,1351.13 1845.12,1351.48 1845.24,1351.83 1845.37,1352.17 1845.51,1352.51 1845.67,1352.84 1845.83,1353.16 1846.01,1353.48 1846.2,1353.79 1846.4,1354.1 1846.61,1354.39 1846.83,1354.68 1847.06,1354.96 1847.31,1355.24 1847.56,1355.5 1847.82,1355.75 1848.09,1356 1848.37,1356.23 1848.66,1356.46 1848.95,1356.67 1849.25,1356.88 1849.56,1357.07 1849.88,1357.25 1850.2,1357.42 1850.53,1357.57 1850.87,1357.72 1851.21,1357.85 1851.55,1357.97 1851.9,1358.08 1852.25,1358.17 1852.61,1358.26 1852.96,1358.32 1853.33,1358.38 1853.69,1358.42 1854.05,1358.45 1854.41,1358.47 1854.78,1358.47 1855.14,1358.46 1855.51,1358.44 1855.87,1358.4 1856.23,1358.35 1856.59,1358.29 1856.95,1358.22 1857.3,1358.13 1857.65,1358.03 1858,1357.91 1858.34,1357.79 1858.68,1357.65 1859.01,1357.5 1859.34,1357.33 1859.66,1357.16 1859.97,1356.97 1860.28,1356.78 1860.57,1356.57 1860.87,1356.35 1861.15,1356.12 1861.42,1355.88 1861.69,1355.63 1861.95,1355.37 1862.19,1355.1 1862.43,1354.82 1862.66,1354.54 1862.87,1354.25 1863.08,1353.95 1863.27,1353.64 1863.46,1353.32 1863.63,1353 1863.79,1352.67 1863.94,1352.34 1864.07,1352 1864.2,1351.66 1864.31,1351.31 1864.4,1350.96 1864.49,1350.6 1864.56,1350.25 1864.62,1349.89 1864.67,1349.53 1864.7,1349.16 1864.72,1348.8 1864.73,1348.43 " />
<polyline fill="none" vector-effect="none" points="1936.73,1157.64 1936.73,670.145 " />
<polyline fill="none" vector-effect="none" points="1192.73,1157.64 1192.73,670.145 " />
<polyline fill="none" vector-effect="none" points="1936.73,1157.64 1192.73,1157.64 " />
<polyline fill="none" vector-effect="none" points="1667.85,1317.39 1461.6,1317.39 " />
<polyline fill="none" vector-effect="none" points="1667.85,1212.39 1667.85,1317.39 " />
<polyline fill="none" vector-effect="none" points="1667.85,1212.39 1461.6,1212.39 " />
<polyline fill="none" vector-effect="none" points="1461.6,1212.39 1461.6,1317.39 " />
<polyline fill="none" vector-effect="none" points="1508.19,1334.93 1508.19,1334.57 1508.21,1334.21 1508.25,1333.84 1508.29,1333.48 1508.35,1333.12 1508.43,1332.76 1508.51,1332.41 1508.61,1332.06 1508.72,1331.71 1508.84,1331.37 1508.98,1331.03 1509.13,1330.7 1509.29,1330.37 1509.46,1330.05 1509.64,1329.73 1509.84,1329.42 1510.04,1329.12 1510.26,1328.83 1510.49,1328.54 1510.72,1328.27 1510.97,1328 1511.23,1327.74 1511.49,1327.49 1511.77,1327.25 1512.05,1327.02 1512.34,1326.8 1512.64,1326.59 1512.95,1326.4 1513.26,1326.21 1513.58,1326.03 1513.91,1325.87 1514.24,1325.72 1514.58,1325.58 1514.92,1325.46 1515.26,1325.34 1515.61,1325.24 1515.97,1325.15 1516.32,1325.08 1516.68,1325.01 1517.05,1324.96 1517.41,1324.93 1517.77,1324.9 1518.14,1324.9 1518.5,1324.9 1518.87,1324.91 1519.23,1324.94 1519.59,1324.99 1519.95,1325.04 1520.31,1325.11 1520.66,1325.19 1521.02,1325.29 1521.36,1325.4 1521.71,1325.52 1522.05,1325.65 1522.38,1325.79 1522.71,1325.95 1523.04,1326.12 1523.35,1326.3 1523.66,1326.49 1523.97,1326.7 1524.26,1326.91 1524.55,1327.13 1524.83,1327.37 1525.1,1327.61 1525.36,1327.87 1525.61,1328.13 1525.85,1328.4 1526.08,1328.68 1526.31,1328.97 1526.52,1329.27 1526.72,1329.58 1526.91,1329.89 1527.08,1330.21 1527.25,1330.53 1527.4,1330.86 1527.55,1331.2 1527.68,1331.54 1527.79,1331.88 1527.9,1332.23 1527.99,1332.59 1528.07,1332.94 1528.13,1333.3 1528.19,1333.66 1528.23,1334.02 1528.25,1334.39 1528.27,1334.75 1528.27,1335.12 1528.25,1335.48 1528.23,1335.84 1528.19,1336.21 1528.13,1336.57 1528.07,1336.93 1527.99,1337.28 1527.9,1337.63 1527.79,1337.98 1527.68,1338.33 1527.55,1338.67 1527.4,1339.01 1527.25,1339.34 1527.08,1339.66 1526.91,1339.98 1526.72,1340.29 1526.52,1340.6 1526.31,1340.89 1526.08,1341.18 1525.85,1341.46 1525.61,1341.74 1525.36,1342 1525.1,1342.25 1524.83,1342.5 1524.55,1342.73 1524.26,1342.96 1523.97,1343.17 1523.66,1343.38 1523.35,1343.57 1523.04,1343.75 1522.71,1343.92 1522.38,1344.07 1522.05,1344.22 1521.71,1344.35 1521.36,1344.47 1521.02,1344.58 1520.66,1344.67 1520.31,1344.76 1519.95,1344.82 1519.59,1344.88 1519.23,1344.92 1518.87,1344.95 1518.5,1344.97 1518.14,1344.97 1517.77,1344.96 1517.41,1344.94 1517.05,1344.9 1516.68,1344.85 1516.32,1344.79 1515.97,1344.72 1515.61,1344.63 1515.26,1344.53 1514.92,1344.41 1514.58,1344.29 1514.24,1344.15 1513.91,1344 1513.58,1343.83 1513.26,1343.66 1512.95,1343.47 1512.64,1343.28 1512.34,1343.07 1512.05,1342.85 1511.77,1342.62 1511.49,1342.38 1511.23,1342.13 1510.97,1341.87 1510.72,1341.6 1510.49,1341.32 1510.26,1341.04 1510.04,1340.75 1509.84,1340.45 1509.64,1340.14 1509.46,1339.82 1509.29,1339.5 1509.13,1339.17 1508.98,1338.84 1508.84,1338.5 1508.72,1338.16 1508.61,1337.81 1508.51,1337.46 1508.43,1337.1 1508.35,1336.75 1508.29,1336.39 1508.25,1336.03 1508.21,1335.66 1508.19,1335.3 1508.19,1334.93 " />
<polyline fill="none" vector-effect="none" points="1528.27,1544.36 1528.26,1543.99 1528.24,1543.63 1528.21,1543.26 1528.16,1542.9 1528.1,1542.54 1528.03,1542.18 1527.94,1541.83 1527.85,1541.48 1527.74,1541.13 1527.61,1540.79 1527.48,1540.45 1527.33,1540.12 1527.17,1539.79 1527,1539.47 1526.81,1539.15 1526.62,1538.84 1526.41,1538.54 1526.2,1538.25 1525.97,1537.96 1525.73,1537.69 1525.49,1537.42 1525.23,1537.16 1524.96,1536.91 1524.69,1536.67 1524.41,1536.44 1524.11,1536.22 1523.81,1536.01 1523.51,1535.82 1523.19,1535.63 1522.87,1535.46 1522.55,1535.29 1522.22,1535.14 1521.88,1535 1521.54,1534.88 1521.19,1534.76 1520.84,1534.66 1520.49,1534.57 1520.13,1534.5 1519.77,1534.44 1519.41,1534.39 1519.05,1534.35 1518.68,1534.33 1518.32,1534.32 1517.95,1534.32 1517.59,1534.34 1517.23,1534.37 1516.86,1534.41 1516.5,1534.46 1516.15,1534.53 1515.79,1534.62 1515.44,1534.71 1515.09,1534.82 1514.75,1534.94 1514.41,1535.07 1514.07,1535.22 1513.74,1535.37 1513.42,1535.54 1513.1,1535.72 1512.79,1535.91 1512.49,1536.12 1512.19,1536.33 1511.91,1536.56 1511.63,1536.79 1511.36,1537.03 1511.1,1537.29 1510.84,1537.55 1510.6,1537.82 1510.37,1538.11 1510.15,1538.4 1509.94,1538.69 1509.74,1539 1509.55,1539.31 1509.37,1539.63 1509.21,1539.95 1509.05,1540.28 1508.91,1540.62 1508.78,1540.96 1508.66,1541.3 1508.56,1541.65 1508.47,1542.01 1508.39,1542.36 1508.32,1542.72 1508.27,1543.08 1508.23,1543.44 1508.2,1543.81 1508.19,1544.17 1508.19,1544.54 1508.2,1544.9 1508.23,1545.27 1508.27,1545.63 1508.32,1545.99 1508.39,1546.35 1508.47,1546.7 1508.56,1547.06 1508.66,1547.41 1508.78,1547.75 1508.91,1548.09 1509.05,1548.43 1509.21,1548.76 1509.37,1549.08 1509.55,1549.4 1509.74,1549.71 1509.94,1550.02 1510.15,1550.32 1510.37,1550.6 1510.6,1550.89 1510.84,1551.16 1511.1,1551.42 1511.36,1551.68 1511.63,1551.92 1511.91,1552.16 1512.19,1552.38 1512.49,1552.59 1512.79,1552.8 1513.1,1552.99 1513.42,1553.17 1513.74,1553.34 1514.07,1553.49 1514.41,1553.64 1514.75,1553.77 1515.09,1553.89 1515.44,1554 1515.79,1554.09 1516.15,1554.18 1516.5,1554.25 1516.86,1554.3 1517.23,1554.34 1517.59,1554.37 1517.95,1554.39 1518.32,1554.39 1518.68,1554.38 1519.05,1554.36 1519.41,1554.32 1519.77,1554.28 1520.13,1554.21 1520.49,1554.14 1520.84,1554.05 1521.19,1553.95 1521.54,1553.83 1521.88,1553.71 1522.22,1553.57 1522.55,1553.42 1522.87,1553.25 1523.19,1553.08 1523.51,1552.89 1523.81,1552.7 1524.11,1552.49 1524.41,1552.27 1524.69,1552.04 1524.96,1551.8 1525.23,1551.55 1525.49,1551.29 1525.73,1551.02 1525.97,1550.75 1526.2,1550.46 1526.41,1550.17 1526.62,1549.87 1526.81,1549.56 1527,1549.24 1527.17,1548.92 1527.33,1548.59 1527.48,1548.26 1527.61,1547.92 1527.74,1547.58 1527.85,1547.23 1527.94,1546.88 1528.03,1546.53 1528.1,1546.17 1528.16,1545.81 1528.21,1545.45 1528.24,1545.08 1528.26,1544.72 1528.27,1544.36 " />
<polyline fill="none" vector-effect="none" points="1450.64,1227.68 1450.64,1227.32 1450.62,1226.96 1450.58,1226.59 1450.54,1226.23 1450.48,1225.87 1450.4,1225.51 1450.32,1225.16 1450.22,1224.81 1450.11,1224.46 1449.99,1224.12 1449.85,1223.78 1449.7,1223.45 1449.54,1223.12 1449.37,1222.8 1449.19,1222.48 1448.99,1222.17 1448.79,1221.87 1448.57,1221.58 1448.34,1221.29 1448.11,1221.02 1447.86,1220.75 1447.6,1220.49 1447.34,1220.24 1447.06,1220 1446.78,1219.77 1446.49,1219.55 1446.19,1219.34 1445.88,1219.15 1445.57,1218.96 1445.25,1218.78 1444.92,1218.62 1444.59,1218.47 1444.25,1218.33 1443.91,1218.21 1443.57,1218.09 1443.22,1217.99 1442.86,1217.9 1442.51,1217.83 1442.15,1217.76 1441.78,1217.71 1441.42,1217.68 1441.06,1217.65 1440.69,1217.65 1440.33,1217.65 1439.96,1217.66 1439.6,1217.69 1439.24,1217.74 1438.88,1217.79 1438.52,1217.86 1438.17,1217.94 1437.81,1218.04 1437.47,1218.15 1437.12,1218.27 1436.78,1218.4 1436.45,1218.54 1436.12,1218.7 1435.79,1218.87 1435.48,1219.05 1435.17,1219.24 1434.87,1219.45 1434.57,1219.66 1434.28,1219.88 1434,1220.12 1433.73,1220.36 1433.47,1220.62 1433.22,1220.88 1432.98,1221.15 1432.75,1221.43 1432.52,1221.72 1432.31,1222.02 1432.11,1222.33 1431.92,1222.64 1431.75,1222.96 1431.58,1223.28 1431.43,1223.61 1431.28,1223.95 1431.15,1224.29 1431.04,1224.63 1430.93,1224.98 1430.84,1225.34 1430.76,1225.69 1430.7,1226.05 1430.64,1226.41 1430.6,1226.77 1430.58,1227.14 1430.56,1227.5 1430.56,1227.87 1430.58,1228.23 1430.6,1228.59 1430.64,1228.96 1430.7,1229.32 1430.76,1229.68 1430.84,1230.03 1430.93,1230.38 1431.04,1230.73 1431.15,1231.08 1431.28,1231.42 1431.43,1231.76 1431.58,1232.09 1431.75,1232.41 1431.92,1232.73 1432.11,1233.04 1432.31,1233.35 1432.52,1233.64 1432.75,1233.93 1432.98,1234.21 1433.22,1234.49 1433.47,1234.75 1433.73,1235 1434,1235.25 1434.28,1235.48 1434.57,1235.71 1434.87,1235.92 1435.17,1236.13 1435.48,1236.32 1435.79,1236.5 1436.12,1236.67 1436.45,1236.82 1436.78,1236.97 1437.12,1237.1 1437.47,1237.22 1437.81,1237.33 1438.17,1237.42 1438.52,1237.51 1438.88,1237.57 1439.24,1237.63 1439.6,1237.67 1439.96,1237.7 1440.33,1237.72 1440.69,1237.72 1441.06,1237.71 1441.42,1237.69 1441.78,1237.65 1442.15,1237.6 1442.51,1237.54 1442.86,1237.47 1443.22,1237.38 1443.57,1237.28 1443.91,1237.16 1444.25,1237.04 1444.59,1236.9 1444.92,1236.75 1445.25,1236.58 1445.57,1236.41 1445.88,1236.22 1446.19,1236.03 1446.49,1235.82 1446.78,1235.6 1447.06,1235.37 1447.34,1235.13 1447.6,1234.88 1447.86,1234.62 1448.11,1234.35 1448.34,1234.07 1448.57,1233.79 1448.79,1233.5 1448.99,1233.2 1449.19,1232.89 1449.37,1232.57 1449.54,1232.25 1449.7,1231.92 1449.85,1231.59 1449.99,1231.25 1450.11,1230.91 1450.22,1230.56 1450.32,1230.21 1450.4,1229.85 1450.48,1229.5 1450.54,1229.14 1450.58,1228.78 1450.62,1228.41 1450.64,1228.05 1450.64,1227.68 " />
<polyline fill="none" vector-effect="none" points="1678.81,1227.68 1678.82,1227.32 1678.84,1226.96 1678.87,1226.59 1678.92,1226.23 1678.98,1225.87 1679.05,1225.51 1679.14,1225.16 1679.23,1224.81 1679.34,1224.46 1679.47,1224.12 1679.6,1223.78 1679.75,1223.45 1679.91,1223.12 1680.08,1222.8 1680.27,1222.48 1680.46,1222.17 1680.67,1221.87 1680.88,1221.58 1681.11,1221.29 1681.35,1221.02 1681.59,1220.75 1681.85,1220.49 1682.12,1220.24 1682.39,1220 1682.67,1219.77 1682.97,1219.55 1683.27,1219.34 1683.57,1219.15 1683.89,1218.96 1684.21,1218.78 1684.53,1218.62 1684.86,1218.47 1685.2,1218.33 1685.54,1218.21 1685.89,1218.09 1686.24,1217.99 1686.59,1217.9 1686.95,1217.83 1687.31,1217.76 1687.67,1217.71 1688.03,1217.68 1688.4,1217.65 1688.76,1217.65 1689.13,1217.65 1689.49,1217.66 1689.85,1217.69 1690.22,1217.74 1690.58,1217.79 1690.93,1217.86 1691.29,1217.94 1691.64,1218.04 1691.99,1218.15 1692.33,1218.27 1692.67,1218.4 1693.01,1218.54 1693.34,1218.7 1693.66,1218.87 1693.98,1219.05 1694.29,1219.24 1694.59,1219.45 1694.89,1219.66 1695.17,1219.88 1695.45,1220.12 1695.72,1220.36 1695.98,1220.62 1696.24,1220.88 1696.48,1221.15 1696.71,1221.43 1696.93,1221.72 1697.14,1222.02 1697.34,1222.33 1697.53,1222.64 1697.71,1222.96 1697.87,1223.28 1698.03,1223.61 1698.17,1223.95 1698.3,1224.29 1698.42,1224.63 1698.52,1224.98 1698.61,1225.34 1698.69,1225.69 1698.76,1226.05 1698.81,1226.41 1698.85,1226.77 1698.88,1227.14 1698.89,1227.5 1698.89,1227.87 1698.88,1228.23 1698.85,1228.59 1698.81,1228.96 1698.76,1229.32 1698.69,1229.68 1698.61,1230.03 1698.52,1230.38 1698.42,1230.73 1698.3,1231.08 1698.17,1231.42 1698.03,1231.76 1697.87,1232.09 1697.71,1232.41 1697.53,1232.73 1697.34,1233.04 1697.14,1233.35 1696.93,1233.64 1696.71,1233.93 1696.48,1234.21 1696.24,1234.49 1695.98,1234.75 1695.72,1235 1695.45,1235.25 1695.17,1235.48 1694.89,1235.71 1694.59,1235.92 1694.29,1236.13 1693.98,1236.32 1693.66,1236.5 1693.34,1236.67 1693.01,1236.82 1692.67,1236.97 1692.33,1237.1 1691.99,1237.22 1691.64,1237.33 1691.29,1237.42 1690.93,1237.51 1690.58,1237.57 1690.22,1237.63 1689.85,1237.67 1689.49,1237.7 1689.13,1237.72 1688.76,1237.72 1688.4,1237.71 1688.03,1237.69 1687.67,1237.65 1687.31,1237.6 1686.95,1237.54 1686.59,1237.47 1686.24,1237.38 1685.89,1237.28 1685.54,1237.16 1685.2,1237.04 1684.86,1236.9 1684.53,1236.75 1684.21,1236.58 1683.89,1236.41 1683.57,1236.22 1683.27,1236.03 1682.97,1235.82 1682.67,1235.6 1682.39,1235.37 1682.12,1235.13 1681.85,1234.88 1681.59,1234.62 1681.35,1234.35 1681.11,1234.07 1680.88,1233.79 1680.67,1233.5 1680.46,1233.2 1680.27,1232.89 1680.08,1232.57 1679.91,1232.25 1679.75,1231.92 1679.6,1231.59 1679.47,1231.25 1679.34,1230.91 1679.23,1230.56 1679.14,1230.21 1679.05,1229.85 1678.98,1229.5 1678.92,1229.14 1678.87,1228.78 1678.84,1228.41 1678.82,1228.05 1678.81,1227.68 " />
<polyline fill="none" vector-effect="none" points="1267.44,649.895 1267.44,649.53 1267.46,649.166 1267.5,648.803 1267.54,648.441 1267.6,648.082 1267.68,647.724 1267.76,647.37 1267.86,647.019 1267.97,646.671 1268.09,646.328 1268.23,645.99 1268.38,645.656 1268.54,645.329 1268.71,645.007 1268.89,644.692 1269.09,644.384 1269.29,644.082 1269.51,643.789 1269.74,643.504 1269.97,643.227 1270.22,642.959 1270.48,642.7 1270.74,642.45 1271.02,642.211 1271.3,641.981 1271.59,641.762 1271.89,641.554 1272.2,641.356 1272.51,641.17 1272.83,640.995 1273.16,640.833 1273.49,640.682 1273.83,640.543 1274.17,640.416 1274.51,640.303 1274.86,640.201 1275.22,640.113 1275.57,640.037 1275.93,639.975 1276.3,639.925 1276.66,639.889 1277.02,639.866 1277.39,639.856 1277.75,639.859 1278.12,639.876 1278.48,639.905 1278.84,639.948 1279.2,640.004 1279.56,640.073 1279.91,640.155 1280.27,640.25 1280.61,640.358 1280.96,640.478 1281.3,640.611 1281.63,640.756 1281.96,640.913 1282.29,641.081 1282.6,641.262 1282.91,641.453 1283.22,641.656 1283.51,641.87 1283.8,642.094 1284.08,642.329 1284.35,642.574 1284.61,642.828 1284.86,643.092 1285.1,643.364 1285.33,643.645 1285.56,643.935 1285.77,644.232 1285.97,644.537 1286.16,644.849 1286.33,645.167 1286.5,645.492 1286.65,645.822 1286.8,646.158 1286.93,646.499 1287.04,646.844 1287.15,647.194 1287.24,647.547 1287.32,647.903 1287.38,648.261 1287.44,648.622 1287.48,648.984 1287.5,649.348 1287.52,649.712 1287.52,650.077 1287.5,650.441 1287.48,650.805 1287.44,651.167 1287.38,651.528 1287.32,651.887 1287.24,652.243 1287.15,652.596 1287.04,652.945 1286.93,653.29 1286.8,653.631 1286.65,653.967 1286.5,654.297 1286.33,654.622 1286.16,654.941 1285.97,655.252 1285.77,655.557 1285.56,655.854 1285.33,656.144 1285.1,656.425 1284.86,656.698 1284.61,656.961 1284.35,657.215 1284.08,657.46 1283.8,657.695 1283.51,657.919 1283.22,658.133 1282.91,658.336 1282.6,658.528 1282.29,658.708 1281.96,658.877 1281.63,659.034 1281.3,659.178 1280.96,659.311 1280.61,659.431 1280.27,659.539 1279.91,659.634 1279.56,659.716 1279.2,659.785 1278.84,659.841 1278.48,659.884 1278.12,659.914 1277.75,659.93 1277.39,659.934 1277.02,659.924 1276.66,659.9 1276.3,659.864 1275.93,659.815 1275.57,659.752 1275.22,659.676 1274.86,659.588 1274.51,659.487 1274.17,659.373 1273.83,659.246 1273.49,659.108 1273.16,658.957 1272.83,658.794 1272.51,658.619 1272.2,658.433 1271.89,658.236 1271.59,658.027 1271.3,657.808 1271.02,657.579 1270.74,657.339 1270.48,657.09 1270.22,656.831 1269.97,656.562 1269.74,656.286 1269.51,656 1269.29,655.707 1269.09,655.406 1268.89,655.097 1268.71,654.782 1268.54,654.461 1268.38,654.133 1268.23,653.8 1268.09,653.461 1267.97,653.118 1267.86,652.771 1267.76,652.42 1267.68,652.065 1267.6,651.708 1267.54,651.348 1267.5,650.986 1267.46,650.623 1267.44,650.259 1267.44,649.895 " />
<polyline fill="none" vector-effect="none" points="1862.02,649.895 1862.01,649.53 1861.99,649.166 1861.96,648.803 1861.91,648.441 1861.85,648.082 1861.78,647.724 1861.69,647.37 1861.6,647.019 1861.49,646.671 1861.36,646.328 1861.23,645.99 1861.08,645.656 1860.92,645.329 1860.75,645.007 1860.56,644.692 1860.37,644.384 1860.16,644.082 1859.95,643.789 1859.72,643.504 1859.48,643.227 1859.24,642.959 1858.98,642.7 1858.71,642.45 1858.44,642.211 1858.16,641.981 1857.86,641.762 1857.56,641.554 1857.26,641.356 1856.94,641.17 1856.62,640.995 1856.3,640.833 1855.97,640.682 1855.63,640.543 1855.29,640.416 1854.94,640.303 1854.59,640.201 1854.24,640.113 1853.88,640.037 1853.52,639.975 1853.16,639.925 1852.8,639.889 1852.43,639.866 1852.07,639.856 1851.7,639.859 1851.34,639.876 1850.98,639.905 1850.61,639.948 1850.25,640.004 1849.9,640.073 1849.54,640.155 1849.19,640.25 1848.84,640.358 1848.5,640.478 1848.16,640.611 1847.82,640.756 1847.49,640.913 1847.17,641.081 1846.85,641.262 1846.54,641.453 1846.24,641.656 1845.94,641.87 1845.66,642.094 1845.38,642.329 1845.11,642.574 1844.85,642.828 1844.59,643.092 1844.35,643.364 1844.12,643.645 1843.9,643.935 1843.69,644.232 1843.49,644.537 1843.3,644.849 1843.12,645.167 1842.96,645.492 1842.8,645.822 1842.66,646.158 1842.53,646.499 1842.41,646.844 1842.31,647.194 1842.22,647.547 1842.14,647.903 1842.07,648.261 1842.02,648.622 1841.98,648.984 1841.95,649.348 1841.94,649.712 1841.94,650.077 1841.95,650.441 1841.98,650.805 1842.02,651.167 1842.07,651.528 1842.14,651.887 1842.22,652.243 1842.31,652.596 1842.41,652.945 1842.53,653.29 1842.66,653.631 1842.8,653.967 1842.96,654.297 1843.12,654.622 1843.3,654.941 1843.49,655.252 1843.69,655.557 1843.9,655.854 1844.12,656.144 1844.35,656.425 1844.59,656.698 1844.85,656.961 1845.11,657.215 1845.38,657.46 1845.66,657.695 1845.94,657.919 1846.24,658.133 1846.54,658.336 1846.85,658.528 1847.17,658.708 1847.49,658.877 1847.82,659.034 1848.16,659.178 1848.5,659.311 1848.84,659.431 1849.19,659.539 1849.54,659.634 1849.9,659.716 1850.25,659.785 1850.61,659.841 1850.98,659.884 1851.34,659.914 1851.7,659.93 1852.07,659.934 1852.43,659.924 1852.8,659.9 1853.16,659.864 1853.52,659.815 1853.88,659.752 1854.24,659.676 1854.59,659.588 1854.94,659.487 1855.29,659.373 1855.63,659.246 1855.97,659.108 1856.3,658.957 1856.62,658.794 1856.94,658.619 1857.26,658.433 1857.56,658.236 1857.86,658.027 1858.16,657.808 1858.44,657.579 1858.71,657.339 1858.98,657.09 1859.24,656.831 1859.48,656.562 1859.72,656.286 1859.95,656 1860.16,655.707 1860.37,655.406 1860.56,655.097 1860.75,654.782 1860.92,654.461 1861.08,654.133 1861.23,653.8 1861.36,653.461 1861.49,653.118 1861.6,652.771 1861.69,652.42 1861.78,652.065 1861.85,651.708 1861.91,651.348 1861.96,650.986 1861.99,650.623 1862.01,650.259 1862.02,649.895 " />
<polyline fill="none" vector-effect="none" points="1287.52,1177.89 1287.51,1177.53 1287.49,1177.17 1287.46,1176.8 1287.41,1176.44 1287.35,1176.08 1287.28,1175.72 1287.19,1175.37 1287.1,1175.02 1286.99,1174.67 1286.86,1174.33 1286.73,1173.99 1286.58,1173.66 1286.42,1173.33 1286.25,1173.01 1286.06,1172.69 1285.87,1172.38 1285.66,1172.08 1285.45,1171.79 1285.22,1171.5 1284.98,1171.23 1284.74,1170.96 1284.48,1170.7 1284.21,1170.45 1283.94,1170.21 1283.66,1169.98 1283.36,1169.76 1283.06,1169.55 1282.76,1169.36 1282.44,1169.17 1282.12,1169 1281.8,1168.83 1281.47,1168.68 1281.13,1168.54 1280.79,1168.42 1280.44,1168.3 1280.09,1168.2 1279.74,1168.11 1279.38,1168.04 1279.02,1167.97 1278.66,1167.93 1278.3,1167.89 1277.93,1167.87 1277.57,1167.86 1277.2,1167.86 1276.84,1167.88 1276.48,1167.91 1276.11,1167.95 1275.75,1168 1275.4,1168.07 1275.04,1168.16 1274.69,1168.25 1274.34,1168.36 1274,1168.48 1273.66,1168.61 1273.32,1168.76 1272.99,1168.91 1272.67,1169.08 1272.35,1169.26 1272.04,1169.45 1271.74,1169.66 1271.44,1169.87 1271.16,1170.09 1270.88,1170.33 1270.61,1170.57 1270.35,1170.83 1270.09,1171.09 1269.85,1171.36 1269.62,1171.65 1269.4,1171.93 1269.19,1172.23 1268.99,1172.54 1268.8,1172.85 1268.62,1173.17 1268.46,1173.49 1268.3,1173.82 1268.16,1174.16 1268.03,1174.5 1267.91,1174.84 1267.81,1175.19 1267.72,1175.55 1267.64,1175.9 1267.57,1176.26 1267.52,1176.62 1267.48,1176.98 1267.45,1177.35 1267.44,1177.71 1267.44,1178.08 1267.45,1178.44 1267.48,1178.8 1267.52,1179.17 1267.57,1179.53 1267.64,1179.89 1267.72,1180.24 1267.81,1180.6 1267.91,1180.94 1268.03,1181.29 1268.16,1181.63 1268.3,1181.97 1268.46,1182.3 1268.62,1182.62 1268.8,1182.94 1268.99,1183.25 1269.19,1183.56 1269.4,1183.85 1269.62,1184.14 1269.85,1184.43 1270.09,1184.7 1270.35,1184.96 1270.61,1185.22 1270.88,1185.46 1271.16,1185.69 1271.44,1185.92 1271.74,1186.13 1272.04,1186.34 1272.35,1186.53 1272.67,1186.71 1272.99,1186.88 1273.32,1187.03 1273.66,1187.18 1274,1187.31 1274.34,1187.43 1274.69,1187.54 1275.04,1187.63 1275.4,1187.72 1275.75,1187.78 1276.11,1187.84 1276.48,1187.88 1276.84,1187.91 1277.2,1187.93 1277.57,1187.93 1277.93,1187.92 1278.3,1187.9 1278.66,1187.86 1279.02,1187.81 1279.38,1187.75 1279.74,1187.68 1280.09,1187.59 1280.44,1187.49 1280.79,1187.37 1281.13,1187.25 1281.47,1187.11 1281.8,1186.96 1282.12,1186.79 1282.44,1186.62 1282.76,1186.43 1283.06,1186.24 1283.36,1186.03 1283.66,1185.81 1283.94,1185.58 1284.21,1185.34 1284.48,1185.09 1284.74,1184.83 1284.98,1184.56 1285.22,1184.29 1285.45,1184 1285.66,1183.71 1285.87,1183.41 1286.06,1183.1 1286.25,1182.78 1286.42,1182.46 1286.58,1182.13 1286.73,1181.8 1286.86,1181.46 1286.99,1181.12 1287.1,1180.77 1287.19,1180.42 1287.28,1180.07 1287.35,1179.71 1287.41,1179.35 1287.46,1178.99 1287.49,1178.62 1287.51,1178.26 1287.52,1177.89 " />
<polyline fill="none" vector-effect="none" points="1841.94,1177.89 1841.94,1177.53 1841.96,1177.17 1842,1176.8 1842.04,1176.44 1842.1,1176.08 1842.18,1175.72 1842.26,1175.37 1842.36,1175.02 1842.47,1174.67 1842.59,1174.33 1842.73,1173.99 1842.88,1173.66 1843.04,1173.33 1843.21,1173.01 1843.39,1172.69 1843.59,1172.38 1843.79,1172.08 1844.01,1171.79 1844.24,1171.5 1844.47,1171.23 1844.72,1170.96 1844.98,1170.7 1845.24,1170.45 1845.52,1170.21 1845.8,1169.98 1846.09,1169.76 1846.39,1169.55 1846.7,1169.36 1847.01,1169.17 1847.33,1169 1847.66,1168.83 1847.99,1168.68 1848.33,1168.54 1848.67,1168.42 1849.01,1168.3 1849.36,1168.2 1849.72,1168.11 1850.07,1168.04 1850.43,1167.97 1850.8,1167.93 1851.16,1167.89 1851.52,1167.87 1851.89,1167.86 1852.25,1167.86 1852.62,1167.88 1852.98,1167.91 1853.34,1167.95 1853.7,1168 1854.06,1168.07 1854.41,1168.16 1854.77,1168.25 1855.11,1168.36 1855.46,1168.48 1855.8,1168.61 1856.13,1168.76 1856.46,1168.91 1856.79,1169.08 1857.1,1169.26 1857.41,1169.45 1857.72,1169.66 1858.01,1169.87 1858.3,1170.09 1858.58,1170.33 1858.85,1170.57 1859.11,1170.83 1859.36,1171.09 1859.6,1171.36 1859.83,1171.65 1860.06,1171.93 1860.27,1172.23 1860.47,1172.54 1860.66,1172.85 1860.83,1173.17 1861,1173.49 1861.15,1173.82 1861.3,1174.16 1861.43,1174.5 1861.54,1174.84 1861.65,1175.19 1861.74,1175.55 1861.82,1175.9 1861.88,1176.26 1861.94,1176.62 1861.98,1176.98 1862,1177.35 1862.02,1177.71 1862.02,1178.08 1862,1178.44 1861.98,1178.8 1861.94,1179.17 1861.88,1179.53 1861.82,1179.89 1861.74,1180.24 1861.65,1180.6 1861.54,1180.94 1861.43,1181.29 1861.3,1181.63 1861.15,1181.97 1861,1182.3 1860.83,1182.62 1860.66,1182.94 1860.47,1183.25 1860.27,1183.56 1860.06,1183.85 1859.83,1184.14 1859.6,1184.43 1859.36,1184.7 1859.11,1184.96 1858.85,1185.22 1858.58,1185.46 1858.3,1185.69 1858.01,1185.92 1857.72,1186.13 1857.41,1186.34 1857.1,1186.53 1856.79,1186.71 1856.46,1186.88 1856.13,1187.03 1855.8,1187.18 1855.46,1187.31 1855.11,1187.43 1854.77,1187.54 1854.41,1187.63 1854.06,1187.72 1853.7,1187.78 1853.34,1187.84 1852.98,1187.88 1852.62,1187.91 1852.25,1187.93 1851.89,1187.93 1851.52,1187.92 1851.16,1187.9 1850.8,1187.86 1850.43,1187.81 1850.07,1187.75 1849.72,1187.68 1849.36,1187.59 1849.01,1187.49 1848.67,1187.37 1848.33,1187.25 1847.99,1187.11 1847.66,1186.96 1847.33,1186.79 1847.01,1186.62 1846.7,1186.43 1846.39,1186.24 1846.09,1186.03 1845.8,1185.81 1845.52,1185.58 1845.24,1185.34 1844.98,1185.09 1844.72,1184.83 1844.47,1184.56 1844.24,1184.29 1844.01,1184 1843.79,1183.71 1843.59,1183.41 1843.39,1183.1 1843.21,1182.78 1843.04,1182.46 1842.88,1182.13 1842.73,1181.8 1842.59,1181.46 1842.47,1181.12 1842.36,1180.77 1842.26,1180.42 1842.18,1180.07 1842.1,1179.71 1842.04,1179.35 1842,1178.99 1841.96,1178.62 1841.94,1178.26 1841.94,1177.89 " />
<polyline fill="none" vector-effect="none" points="1698.89,1302.11 1698.89,1301.74 1698.87,1301.38 1698.83,1301.01 1698.79,1300.65 1698.73,1300.29 1698.65,1299.93 1698.57,1299.58 1698.47,1299.23 1698.36,1298.88 1698.24,1298.54 1698.1,1298.2 1697.95,1297.87 1697.79,1297.54 1697.62,1297.22 1697.44,1296.9 1697.24,1296.59 1697.04,1296.29 1696.82,1296 1696.59,1295.71 1696.36,1295.44 1696.11,1295.17 1695.85,1294.91 1695.59,1294.66 1695.31,1294.42 1695.03,1294.19 1694.74,1293.97 1694.44,1293.76 1694.13,1293.57 1693.82,1293.38 1693.5,1293.21 1693.17,1293.04 1692.84,1292.89 1692.5,1292.75 1692.16,1292.63 1691.82,1292.51 1691.47,1292.41 1691.11,1292.32 1690.76,1292.25 1690.4,1292.19 1690.03,1292.14 1689.67,1292.1 1689.31,1292.08 1688.94,1292.07 1688.58,1292.07 1688.21,1292.09 1687.85,1292.12 1687.49,1292.16 1687.13,1292.21 1686.77,1292.28 1686.42,1292.37 1686.06,1292.46 1685.72,1292.57 1685.37,1292.69 1685.03,1292.82 1684.7,1292.97 1684.37,1293.12 1684.04,1293.29 1683.73,1293.47 1683.42,1293.66 1683.12,1293.87 1682.82,1294.08 1682.53,1294.31 1682.25,1294.54 1681.98,1294.78 1681.72,1295.04 1681.47,1295.3 1681.23,1295.57 1681,1295.86 1680.77,1296.15 1680.56,1296.44 1680.36,1296.75 1680.17,1297.06 1680,1297.38 1679.83,1297.7 1679.68,1298.03 1679.53,1298.37 1679.4,1298.71 1679.29,1299.05 1679.18,1299.4 1679.09,1299.76 1679.01,1300.11 1678.95,1300.47 1678.89,1300.83 1678.85,1301.19 1678.83,1301.56 1678.81,1301.92 1678.81,1302.29 1678.83,1302.65 1678.85,1303.02 1678.89,1303.38 1678.95,1303.74 1679.01,1304.1 1679.09,1304.45 1679.18,1304.81 1679.29,1305.16 1679.4,1305.5 1679.53,1305.84 1679.68,1306.18 1679.83,1306.51 1680,1306.83 1680.17,1307.15 1680.36,1307.46 1680.56,1307.77 1680.77,1308.07 1681,1308.35 1681.23,1308.64 1681.47,1308.91 1681.72,1309.17 1681.98,1309.43 1682.25,1309.67 1682.53,1309.91 1682.82,1310.13 1683.12,1310.34 1683.42,1310.55 1683.73,1310.74 1684.04,1310.92 1684.37,1311.09 1684.7,1311.24 1685.03,1311.39 1685.37,1311.52 1685.72,1311.64 1686.06,1311.75 1686.42,1311.84 1686.77,1311.93 1687.13,1312 1687.49,1312.05 1687.85,1312.09 1688.21,1312.12 1688.58,1312.14 1688.94,1312.14 1689.31,1312.13 1689.67,1312.11 1690.03,1312.07 1690.4,1312.03 1690.76,1311.96 1691.11,1311.89 1691.47,1311.8 1691.82,1311.7 1692.16,1311.58 1692.5,1311.46 1692.84,1311.32 1693.17,1311.17 1693.5,1311 1693.82,1310.83 1694.13,1310.64 1694.44,1310.45 1694.74,1310.24 1695.03,1310.02 1695.31,1309.79 1695.59,1309.55 1695.85,1309.3 1696.11,1309.04 1696.36,1308.77 1696.59,1308.5 1696.82,1308.21 1697.04,1307.92 1697.24,1307.62 1697.44,1307.31 1697.62,1306.99 1697.79,1306.67 1697.95,1306.34 1698.1,1306.01 1698.24,1305.67 1698.36,1305.33 1698.47,1304.98 1698.57,1304.63 1698.65,1304.28 1698.73,1303.92 1698.79,1303.56 1698.83,1303.2 1698.87,1302.83 1698.89,1302.47 1698.89,1302.11 " />
<polyline fill="none" vector-effect="none" points="1430.56,1302.11 1430.57,1301.74 1430.59,1301.38 1430.62,1301.01 1430.67,1300.65 1430.73,1300.29 1430.8,1299.93 1430.89,1299.58 1430.98,1299.23 1431.09,1298.88 1431.22,1298.54 1431.35,1298.2 1431.5,1297.87 1431.66,1297.54 1431.83,1297.22 1432.02,1296.9 1432.21,1296.59 1432.42,1296.29 1432.63,1296 1432.86,1295.71 1433.1,1295.44 1433.34,1295.17 1433.6,1294.91 1433.87,1294.66 1434.14,1294.42 1434.42,1294.19 1434.72,1293.97 1435.02,1293.76 1435.32,1293.57 1435.64,1293.38 1435.96,1293.21 1436.28,1293.04 1436.61,1292.89 1436.95,1292.75 1437.29,1292.63 1437.64,1292.51 1437.99,1292.41 1438.34,1292.32 1438.7,1292.25 1439.06,1292.19 1439.42,1292.14 1439.78,1292.1 1440.15,1292.08 1440.51,1292.07 1440.88,1292.07 1441.24,1292.09 1441.6,1292.12 1441.97,1292.16 1442.33,1292.21 1442.68,1292.28 1443.04,1292.37 1443.39,1292.46 1443.74,1292.57 1444.08,1292.69 1444.42,1292.82 1444.76,1292.97 1445.09,1293.12 1445.41,1293.29 1445.73,1293.47 1446.04,1293.66 1446.34,1293.87 1446.64,1294.08 1446.92,1294.31 1447.2,1294.54 1447.47,1294.78 1447.73,1295.04 1447.99,1295.3 1448.23,1295.57 1448.46,1295.86 1448.68,1296.15 1448.89,1296.44 1449.09,1296.75 1449.28,1297.06 1449.46,1297.38 1449.62,1297.7 1449.78,1298.03 1449.92,1298.37 1450.05,1298.71 1450.17,1299.05 1450.27,1299.4 1450.36,1299.76 1450.44,1300.11 1450.51,1300.47 1450.56,1300.83 1450.6,1301.19 1450.63,1301.56 1450.64,1301.92 1450.64,1302.29 1450.63,1302.65 1450.6,1303.02 1450.56,1303.38 1450.51,1303.74 1450.44,1304.1 1450.36,1304.45 1450.27,1304.81 1450.17,1305.16 1450.05,1305.5 1449.92,1305.84 1449.78,1306.18 1449.62,1306.51 1449.46,1306.83 1449.28,1307.15 1449.09,1307.46 1448.89,1307.77 1448.68,1308.07 1448.46,1308.35 1448.23,1308.64 1447.99,1308.91 1447.73,1309.17 1447.47,1309.43 1447.2,1309.67 1446.92,1309.91 1446.64,1310.13 1446.34,1310.34 1446.04,1310.55 1445.73,1310.74 1445.41,1310.92 1445.09,1311.09 1444.76,1311.24 1444.42,1311.39 1444.08,1311.52 1443.74,1311.64 1443.39,1311.75 1443.04,1311.84 1442.68,1311.93 1442.33,1312 1441.97,1312.05 1441.6,1312.09 1441.24,1312.12 1440.88,1312.14 1440.51,1312.14 1440.15,1312.13 1439.78,1312.11 1439.42,1312.07 1439.06,1312.03 1438.7,1311.96 1438.34,1311.89 1437.99,1311.8 1437.64,1311.7 1437.29,1311.58 1436.95,1311.46 1436.61,1311.32 1436.28,1311.17 1435.96,1311 1435.64,1310.83 1435.32,1310.64 1435.02,1310.45 1434.72,1310.24 1434.42,1310.02 1434.14,1309.79 1433.87,1309.55 1433.6,1309.3 1433.34,1309.04 1433.1,1308.77 1432.86,1308.5 1432.63,1308.21 1432.42,1307.92 1432.21,1307.62 1432.02,1307.31 1431.83,1306.99 1431.66,1306.67 1431.5,1306.34 1431.35,1306.01 1431.22,1305.67 1431.09,1305.33 1430.98,1304.98 1430.89,1304.63 1430.8,1304.28 1430.73,1303.92 1430.67,1303.56 1430.62,1303.2 1430.59,1302.83 1430.57,1302.47 1430.56,1302.11 " />
<polyline fill="none" vector-effect="none" points="1246.27,1334.93 1246.26,1334.57 1246.24,1334.21 1246.21,1333.84 1246.16,1333.48 1246.1,1333.12 1246.03,1332.76 1245.94,1332.41 1245.85,1332.06 1245.74,1331.71 1245.61,1331.37 1245.48,1331.03 1245.33,1330.7 1245.17,1330.37 1245,1330.05 1244.81,1329.73 1244.62,1329.42 1244.41,1329.12 1244.2,1328.83 1243.97,1328.54 1243.73,1328.27 1243.49,1328 1243.23,1327.74 1242.96,1327.49 1242.69,1327.25 1242.41,1327.02 1242.11,1326.8 1241.81,1326.59 1241.51,1326.4 1241.19,1326.21 1240.87,1326.03 1240.55,1325.87 1240.22,1325.72 1239.88,1325.58 1239.54,1325.46 1239.19,1325.34 1238.84,1325.24 1238.49,1325.15 1238.13,1325.08 1237.77,1325.01 1237.41,1324.96 1237.05,1324.93 1236.68,1324.9 1236.32,1324.9 1235.95,1324.9 1235.59,1324.91 1235.23,1324.94 1234.86,1324.99 1234.5,1325.04 1234.15,1325.11 1233.79,1325.19 1233.44,1325.29 1233.09,1325.4 1232.75,1325.52 1232.41,1325.65 1232.07,1325.79 1231.74,1325.95 1231.42,1326.12 1231.1,1326.3 1230.79,1326.49 1230.49,1326.7 1230.19,1326.91 1229.91,1327.13 1229.63,1327.37 1229.36,1327.61 1229.1,1327.87 1228.84,1328.13 1228.6,1328.4 1228.37,1328.68 1228.15,1328.97 1227.94,1329.27 1227.74,1329.58 1227.55,1329.89 1227.37,1330.21 1227.21,1330.53 1227.05,1330.86 1226.91,1331.2 1226.78,1331.54 1226.66,1331.88 1226.56,1332.23 1226.47,1332.59 1226.39,1332.94 1226.32,1333.3 1226.27,1333.66 1226.23,1334.02 1226.2,1334.39 1226.19,1334.75 1226.19,1335.12 1226.2,1335.48 1226.23,1335.84 1226.27,1336.21 1226.32,1336.57 1226.39,1336.93 1226.47,1337.28 1226.56,1337.63 1226.66,1337.98 1226.78,1338.33 1226.91,1338.67 1227.05,1339.01 1227.21,1339.34 1227.37,1339.66 1227.55,1339.98 1227.74,1340.29 1227.94,1340.6 1228.15,1340.89 1228.37,1341.18 1228.6,1341.46 1228.84,1341.74 1229.1,1342 1229.36,1342.25 1229.63,1342.5 1229.91,1342.73 1230.19,1342.96 1230.49,1343.17 1230.79,1343.38 1231.1,1343.57 1231.42,1343.75 1231.74,1343.92 1232.07,1344.07 1232.41,1344.22 1232.75,1344.35 1233.09,1344.47 1233.44,1344.58 1233.79,1344.67 1234.15,1344.76 1234.5,1344.82 1234.86,1344.88 1235.23,1344.92 1235.59,1344.95 1235.95,1344.97 1236.32,1344.97 1236.68,1344.96 1237.05,1344.94 1237.41,1344.9 1237.77,1344.85 1238.13,1344.79 1238.49,1344.72 1238.84,1344.63 1239.19,1344.53 1239.54,1344.41 1239.88,1344.29 1240.22,1344.15 1240.55,1344 1240.87,1343.83 1241.19,1343.66 1241.51,1343.47 1241.81,1343.28 1242.11,1343.07 1242.41,1342.85 1242.69,1342.62 1242.96,1342.38 1243.23,1342.13 1243.49,1341.87 1243.73,1341.6 1243.97,1341.32 1244.2,1341.04 1244.41,1340.75 1244.62,1340.45 1244.81,1340.14 1245,1339.82 1245.17,1339.5 1245.33,1339.17 1245.48,1338.84 1245.61,1338.5 1245.74,1338.16 1245.85,1337.81 1245.94,1337.46 1246.03,1337.1 1246.1,1336.75 1246.16,1336.39 1246.21,1336.03 1246.24,1335.66 1246.26,1335.3 1246.27,1334.93 " />
<polyline fill="none" vector-effect="none" points="1226.19,1544.36 1226.19,1543.99 1226.21,1543.63 1226.25,1543.26 1226.29,1542.9 1226.35,1542.54 1226.43,1542.18 1226.51,1541.83 1226.61,1541.48 1226.72,1541.13 1226.84,1540.79 1226.98,1540.45 1227.13,1540.12 1227.29,1539.79 1227.46,1539.47 1227.64,1539.15 1227.84,1538.84 1228.04,1538.54 1228.26,1538.25 1228.49,1537.96 1228.72,1537.69 1228.97,1537.42 1229.23,1537.16 1229.49,1536.91 1229.77,1536.67 1230.05,1536.44 1230.34,1536.22 1230.64,1536.01 1230.95,1535.82 1231.26,1535.63 1231.58,1535.46 1231.91,1535.29 1232.24,1535.14 1232.58,1535 1232.92,1534.88 1233.26,1534.76 1233.61,1534.66 1233.97,1534.57 1234.32,1534.5 1234.68,1534.44 1235.05,1534.39 1235.41,1534.35 1235.77,1534.33 1236.14,1534.32 1236.5,1534.32 1236.87,1534.34 1237.23,1534.37 1237.59,1534.41 1237.95,1534.46 1238.31,1534.53 1238.66,1534.62 1239.02,1534.71 1239.36,1534.82 1239.71,1534.94 1240.05,1535.07 1240.38,1535.22 1240.71,1535.37 1241.04,1535.54 1241.35,1535.72 1241.66,1535.91 1241.97,1536.12 1242.26,1536.33 1242.55,1536.56 1242.83,1536.79 1243.1,1537.03 1243.36,1537.29 1243.61,1537.55 1243.85,1537.82 1244.08,1538.11 1244.31,1538.4 1244.52,1538.69 1244.72,1539 1244.91,1539.31 1245.08,1539.63 1245.25,1539.95 1245.4,1540.28 1245.55,1540.62 1245.68,1540.96 1245.79,1541.3 1245.9,1541.65 1245.99,1542.01 1246.07,1542.36 1246.13,1542.72 1246.19,1543.08 1246.23,1543.44 1246.25,1543.81 1246.27,1544.17 1246.27,1544.54 1246.25,1544.9 1246.23,1545.27 1246.19,1545.63 1246.13,1545.99 1246.07,1546.35 1245.99,1546.7 1245.9,1547.06 1245.79,1547.41 1245.68,1547.75 1245.55,1548.09 1245.4,1548.43 1245.25,1548.76 1245.08,1549.08 1244.91,1549.4 1244.72,1549.71 1244.52,1550.02 1244.31,1550.32 1244.08,1550.6 1243.85,1550.89 1243.61,1551.16 1243.36,1551.42 1243.1,1551.68 1242.83,1551.92 1242.55,1552.16 1242.26,1552.38 1241.97,1552.59 1241.66,1552.8 1241.35,1552.99 1241.04,1553.17 1240.71,1553.34 1240.38,1553.49 1240.05,1553.64 1239.71,1553.77 1239.36,1553.89 1239.02,1554 1238.66,1554.09 1238.31,1554.18 1237.95,1554.25 1237.59,1554.3 1237.23,1554.34 1236.87,1554.37 1236.5,1554.39 1236.14,1554.39 1235.77,1554.38 1235.41,1554.36 1235.05,1554.32 1234.68,1554.28 1234.32,1554.21 1233.97,1554.14 1233.61,1554.05 1233.26,1553.95 1232.92,1553.83 1232.58,1553.71 1232.24,1553.57 1231.91,1553.42 1231.58,1553.25 1231.26,1553.08 1230.95,1552.89 1230.64,1552.7 1230.34,1552.49 1230.05,1552.27 1229.77,1552.04 1229.49,1551.8 1229.23,1551.55 1228.97,1551.29 1228.72,1551.02 1228.49,1550.75 1228.26,1550.46 1228.04,1550.17 1227.84,1549.87 1227.64,1549.56 1227.46,1549.24 1227.29,1548.92 1227.13,1548.59 1226.98,1548.26 1226.84,1547.92 1226.72,1547.58 1226.61,1547.23 1226.51,1546.88 1226.43,1546.53 1226.35,1546.17 1226.29,1545.81 1226.25,1545.45 1226.21,1545.08 1226.19,1544.72 1226.19,1544.36 " />
<polyline fill="none" vector-effect="none" points="1257.23,1559.64 1257.23,1319.64 " />
<polyline fill="none" vector-effect="none" points="1497.23,1559.64 1257.23,1559.64 " />
<polyline fill="none" vector-effect="none" points="1497.23,1559.64 1497.23,1319.64 " />
<polyline fill="none" vector-effect="none" points="1497.23,1319.64 1257.23,1319.64 " />
<polyline fill="none" vector-effect="none" points="1488.23,1614.39 1641.23,1614.39 " />
<polyline fill="none" vector-effect="none" points="1488.23,1645.89 1488.23,1614.39 " />
<polyline fill="none" vector-effect="none" points="1488.23,1645.89 1189.73,1645.89 " />
<polyline fill="none" vector-effect="none" points="1152.23,1608.39 1152.24,1609.31 1152.27,1610.23 1152.33,1611.15 1152.41,1612.07 1152.51,1612.99 1152.63,1613.9 1152.78,1614.81 1152.95,1615.71 1153.14,1616.61 1153.35,1617.51 1153.59,1618.4 1153.84,1619.28 1154.12,1620.16 1154.42,1621.03 1154.74,1621.89 1155.08,1622.75 1155.44,1623.59 1155.83,1624.43 1156.23,1625.26 1156.66,1626.07 1157.1,1626.88 1157.56,1627.67 1158.05,1628.46 1158.55,1629.23 1159.07,1629.99 1159.61,1630.73 1160.16,1631.47 1160.74,1632.18 1161.33,1632.89 1161.94,1633.58 1162.57,1634.25 1163.21,1634.91 1163.87,1635.55 1164.54,1636.18 1165.23,1636.79 1165.94,1637.38 1166.66,1637.96 1167.39,1638.51 1168.13,1639.05 1168.89,1639.57 1169.67,1640.08 1170.45,1640.56 1171.24,1641.02 1172.05,1641.47 1172.87,1641.89 1173.69,1642.29 1174.53,1642.68 1175.38,1643.04 1176.23,1643.38 1177.09,1643.7 1177.96,1644 1178.84,1644.28 1179.73,1644.54 1180.62,1644.77 1181.51,1644.98 1182.41,1645.17 1183.32,1645.34 1184.23,1645.49 1185.14,1645.61 1186.05,1645.71 1186.97,1645.79 1187.89,1645.85 1188.81,1645.88 1189.73,1645.89 " />
<polyline fill="none" vector-effect="none" points="1152.23,1608.39 1152.23,1174.89 " />
<polyline fill="none" vector-effect="none" points="1152.23,1174.89 1183.73,1174.89 " />
<polyline fill="none" vector-effect="none" points="1183.73,1021.89 1183.73,1174.89 " />
<polyline fill="none" vector-effect="none" points="1152.23,1021.89 1183.73,1021.89 " />
<polyline fill="none" vector-effect="none" points="1152.23,1021.89 1152.23,633.395 " />
<polyline fill="none" vector-effect="none" points="1189.73,595.895 1188.81,595.906 1187.89,595.94 1186.97,595.996 1186.05,596.075 1185.14,596.177 1184.23,596.3 1183.32,596.447 1182.41,596.615 1181.51,596.806 1180.62,597.018 1179.73,597.253 1178.84,597.509 1177.96,597.787 1177.09,598.087 1176.23,598.407 1175.38,598.749 1174.53,599.112 1173.69,599.495 1172.87,599.899 1172.05,600.323 1171.24,600.766 1170.45,601.23 1169.67,601.713 1168.89,602.215 1168.13,602.735 1167.39,603.274 1166.66,603.832 1165.94,604.407 1165.23,604.999 1164.54,605.609 1163.87,606.235 1163.21,606.878 1162.57,607.537 1161.94,608.211 1161.33,608.901 1160.74,609.605 1160.16,610.323 1159.61,611.056 1159.07,611.802 1158.55,612.561 1158.05,613.332 1157.56,614.116 1157.1,614.911 1156.66,615.717 1156.23,616.534 1155.83,617.361 1155.44,618.198 1155.08,619.044 1154.74,619.899 1154.42,620.761 1154.12,621.632 1153.84,622.509 1153.59,623.393 1153.35,624.283 1153.14,625.178 1152.95,626.079 1152.78,626.984 1152.63,627.892 1152.51,628.804 1152.41,629.719 1152.33,630.636 1152.27,631.555 1152.24,632.474 1152.23,633.395 " />
<polyline fill="none" vector-effect="none" points="1488.23,595.895 1189.73,595.895 " />
<polyline fill="none" vector-effect="none" points="1488.23,595.895 1488.23,627.395 " />
<polyline fill="none" vector-effect="none" points="1488.23,627.395 1641.23,627.395 " />
<polyline fill="none" vector-effect="none" points="1641.23,595.895 1641.23,627.395 " />
<polyline fill="none" vector-effect="none" points="1939.73,595.895 1641.23,595.895 " />
<polyline fill="none" vector-effect="none" points="1977.23,633.395 1977.22,632.474 1977.18,631.555 1977.13,630.636 1977.05,629.719 1976.95,628.804 1976.82,627.892 1976.68,626.984 1976.51,626.079 1976.32,625.178 1976.1,624.283 1975.87,623.393 1975.61,622.509 1975.33,621.632 1975.04,620.761 1974.71,619.899 1974.37,619.044 1974.01,618.198 1973.63,617.361 1973.22,616.534 1972.8,615.717 1972.36,614.911 1971.89,614.116 1971.41,613.332 1970.91,612.561 1970.39,611.802 1969.85,611.056 1969.29,610.323 1968.72,609.605 1968.12,608.901 1967.51,608.211 1966.89,607.537 1966.24,606.878 1965.59,606.235 1964.91,605.609 1964.22,604.999 1963.52,604.407 1962.8,603.832 1962.07,603.274 1961.32,602.735 1960.56,602.215 1959.79,601.713 1959.01,601.23 1958.21,600.766 1957.4,600.323 1956.59,599.899 1955.76,599.495 1954.92,599.112 1954.08,598.749 1953.22,598.407 1952.36,598.087 1951.49,597.787 1950.61,597.509 1949.73,597.253 1948.84,597.018 1947.94,596.806 1947.04,596.615 1946.14,596.447 1945.23,596.3 1944.32,596.177 1943.4,596.075 1942.49,595.996 1941.57,595.94 1940.65,595.906 1939.73,595.895 " />
<polyline fill="none" vector-effect="none" points="1977.23,1021.89 1977.23,633.395 " />
<polyline fill="none" vector-effect="none" points="1977.23,1021.89 1945.73,1021.89 " />
<polyline fill="none" vector-effect="none" points="1945.73,1021.89 1945.73,1174.89 " />
<polyline fill="none" vector-effect="none" points="1977.23,1174.89 1945.73,1174.89 " />
<polyline fill="none" vector-effect="none" points="1977.23,1608.39 1977.23,1174.89 " />
<polyline fill="none" vector-effect="none" points="1939.73,1645.89 1940.65,1645.88 1941.57,1645.85 1942.49,1645.79 1943.4,1645.71 1944.32,1645.61 1945.23,1645.49 1946.14,1645.34 1947.04,1645.17 1947.94,1644.98 1948.84,1644.77 1949.73,1644.54 1950.61,1644.28 1951.49,1644 1952.36,1643.7 1953.22,1643.38 1954.08,1643.04 1954.92,1642.68 1955.76,1642.29 1956.59,1641.89 1957.4,1641.47 1958.21,1641.02 1959.01,1640.56 1959.79,1640.08 1960.56,1639.57 1961.32,1639.05 1962.07,1638.51 1962.8,1637.96 1963.52,1637.38 1964.22,1636.79 1964.91,1636.18 1965.59,1635.55 1966.24,1634.91 1966.89,1634.25 1967.51,1633.58 1968.12,1632.89 1968.72,1632.18 1969.29,1631.47 1969.85,1630.73 1970.39,1629.99 1970.91,1629.23 1971.41,1628.46 1971.89,1627.67 1972.36,1626.88 1972.8,1626.07 1973.22,1625.26 1973.63,1624.43 1974.01,1623.59 1974.37,1622.75 1974.71,1621.89 1975.04,1621.03 1975.33,1620.16 1975.61,1619.28 1975.87,1618.4 1976.1,1617.51 1976.32,1616.61 1976.51,1615.71 1976.68,1614.81 1976.82,1613.9 1976.95,1612.99 1977.05,1612.07 1977.13,1611.15 1977.18,1610.23 1977.22,1609.31 1977.23,1608.39 " />
<polyline fill="none" vector-effect="none" points="1939.73,1645.89 1641.23,1645.89 " />
<polyline fill="none" vector-effect="none" points="1641.23,1645.89 1641.23,1614.39 " />
<polyline fill="none" vector-effect="none" points="1844.65,1553.36 1844.66,1552.99 1844.68,1552.63 1844.71,1552.26 1844.75,1551.9 1844.81,1551.54 1844.89,1551.18 1844.97,1550.83 1845.07,1550.48 1845.18,1550.13 1845.3,1549.79 1845.44,1549.45 1845.59,1549.12 1845.75,1548.79 1845.92,1548.47 1846.1,1548.15 1846.3,1547.84 1846.5,1547.54 1846.72,1547.25 1846.95,1546.96 1847.18,1546.69 1847.43,1546.42 1847.69,1546.16 1847.95,1545.91 1848.23,1545.67 1848.51,1545.44 1848.8,1545.22 1849.1,1545.01 1849.41,1544.82 1849.72,1544.63 1850.04,1544.46 1850.37,1544.29 1850.7,1544.14 1851.04,1544 1851.38,1543.88 1851.72,1543.76 1852.08,1543.66 1852.43,1543.57 1852.79,1543.5 1853.14,1543.44 1853.51,1543.39 1853.87,1543.35 1854.23,1543.33 1854.6,1543.32 1854.96,1543.32 1855.33,1543.34 1855.69,1543.37 1856.05,1543.41 1856.41,1543.46 1856.77,1543.53 1857.12,1543.62 1857.48,1543.71 1857.83,1543.82 1858.17,1543.94 1858.51,1544.07 1858.84,1544.22 1859.17,1544.37 1859.5,1544.54 1859.81,1544.72 1860.12,1544.91 1860.43,1545.12 1860.72,1545.33 1861.01,1545.56 1861.29,1545.79 1861.56,1546.03 1861.82,1546.29 1862.07,1546.55 1862.31,1546.82 1862.55,1547.11 1862.77,1547.4 1862.98,1547.69 1863.18,1548 1863.37,1548.31 1863.54,1548.63 1863.71,1548.95 1863.86,1549.28 1864.01,1549.62 1864.14,1549.96 1864.25,1550.3 1864.36,1550.65 1864.45,1551.01 1864.53,1551.36 1864.59,1551.72 1864.65,1552.08 1864.69,1552.44 1864.71,1552.81 1864.73,1553.17 1864.73,1553.54 1864.71,1553.9 1864.69,1554.27 1864.65,1554.63 1864.59,1554.99 1864.53,1555.35 1864.45,1555.7 1864.36,1556.06 1864.25,1556.41 1864.14,1556.75 1864.01,1557.09 1863.86,1557.43 1863.71,1557.76 1863.54,1558.08 1863.37,1558.4 1863.18,1558.71 1862.98,1559.02 1862.77,1559.32 1862.55,1559.6 1862.31,1559.89 1862.07,1560.16 1861.82,1560.42 1861.56,1560.68 1861.29,1560.92 1861.01,1561.16 1860.72,1561.38 1860.43,1561.59 1860.12,1561.8 1859.81,1561.99 1859.5,1562.17 1859.17,1562.34 1858.84,1562.49 1858.51,1562.64 1858.17,1562.77 1857.83,1562.89 1857.48,1563 1857.12,1563.09 1856.77,1563.18 1856.41,1563.25 1856.05,1563.3 1855.69,1563.34 1855.33,1563.37 1854.96,1563.39 1854.6,1563.39 1854.23,1563.38 1853.87,1563.36 1853.51,1563.32 1853.14,1563.28 1852.79,1563.21 1852.43,1563.14 1852.08,1563.05 1851.72,1562.95 1851.38,1562.83 1851.04,1562.71 1850.7,1562.57 1850.37,1562.42 1850.04,1562.25 1849.72,1562.08 1849.41,1561.89 1849.1,1561.7 1848.8,1561.49 1848.51,1561.27 1848.23,1561.04 1847.95,1560.8 1847.69,1560.55 1847.43,1560.29 1847.18,1560.02 1846.95,1559.75 1846.72,1559.46 1846.5,1559.17 1846.3,1558.87 1846.1,1558.56 1845.92,1558.24 1845.75,1557.92 1845.59,1557.59 1845.44,1557.26 1845.3,1556.92 1845.18,1556.58 1845.07,1556.23 1844.97,1555.88 1844.89,1555.53 1844.81,1555.17 1844.75,1554.81 1844.71,1554.45 1844.68,1554.08 1844.66,1553.72 1844.65,1553.36 " />
<polyline fill="none" vector-effect="none" points="1639.73,1348.43 1639.73,1348.07 1639.75,1347.71 1639.79,1347.34 1639.83,1346.98 1639.89,1346.62 1639.97,1346.26 1640.05,1345.91 1640.15,1345.56 1640.26,1345.21 1640.38,1344.87 1640.52,1344.53 1640.67,1344.2 1640.83,1343.87 1641,1343.55 1641.18,1343.23 1641.38,1342.92 1641.58,1342.62 1641.8,1342.33 1642.02,1342.04 1642.26,1341.77 1642.51,1341.5 1642.77,1341.24 1643.03,1340.99 1643.31,1340.75 1643.59,1340.52 1643.88,1340.3 1644.18,1340.09 1644.49,1339.9 1644.8,1339.71 1645.12,1339.53 1645.45,1339.37 1645.78,1339.22 1646.12,1339.08 1646.46,1338.96 1646.8,1338.84 1647.15,1338.74 1647.51,1338.65 1647.86,1338.58 1648.22,1338.51 1648.58,1338.46 1648.95,1338.43 1649.31,1338.4 1649.68,1338.4 1650.04,1338.4 1650.4,1338.41 1650.77,1338.44 1651.13,1338.49 1651.49,1338.54 1651.85,1338.61 1652.2,1338.69 1652.56,1338.79 1652.9,1338.9 1653.25,1339.02 1653.59,1339.15 1653.92,1339.29 1654.25,1339.45 1654.57,1339.62 1654.89,1339.8 1655.2,1339.99 1655.5,1340.2 1655.8,1340.41 1656.09,1340.63 1656.37,1340.87 1656.64,1341.11 1656.9,1341.37 1657.15,1341.63 1657.39,1341.9 1657.62,1342.18 1657.85,1342.47 1658.06,1342.77 1658.26,1343.08 1658.45,1343.39 1658.62,1343.71 1658.79,1344.03 1658.94,1344.36 1659.09,1344.7 1659.21,1345.04 1659.33,1345.38 1659.44,1345.73 1659.53,1346.09 1659.61,1346.44 1659.67,1346.8 1659.73,1347.16 1659.76,1347.52 1659.79,1347.89 1659.8,1348.25 1659.8,1348.62 1659.79,1348.98 1659.76,1349.34 1659.73,1349.71 1659.67,1350.07 1659.61,1350.43 1659.53,1350.78 1659.44,1351.13 1659.33,1351.48 1659.21,1351.83 1659.09,1352.17 1658.94,1352.51 1658.79,1352.84 1658.62,1353.16 1658.45,1353.48 1658.26,1353.79 1658.06,1354.1 1657.85,1354.39 1657.62,1354.68 1657.39,1354.96 1657.15,1355.24 1656.9,1355.5 1656.64,1355.75 1656.37,1356 1656.09,1356.23 1655.8,1356.46 1655.5,1356.67 1655.2,1356.88 1654.89,1357.07 1654.57,1357.25 1654.25,1357.42 1653.92,1357.57 1653.59,1357.72 1653.25,1357.85 1652.9,1357.97 1652.56,1358.08 1652.2,1358.17 1651.85,1358.26 1651.49,1358.32 1651.13,1358.38 1650.77,1358.42 1650.4,1358.45 1650.04,1358.47 1649.68,1358.47 1649.31,1358.46 1648.95,1358.44 1648.58,1358.4 1648.22,1358.35 1647.86,1358.29 1647.51,1358.22 1647.15,1358.13 1646.8,1358.03 1646.46,1357.91 1646.12,1357.79 1645.78,1357.65 1645.45,1357.5 1645.12,1357.33 1644.8,1357.16 1644.49,1356.97 1644.18,1356.78 1643.88,1356.57 1643.59,1356.35 1643.31,1356.12 1643.03,1355.88 1642.77,1355.63 1642.51,1355.37 1642.26,1355.1 1642.02,1354.82 1641.8,1354.54 1641.58,1354.25 1641.38,1353.95 1641.18,1353.64 1641,1353.32 1640.83,1353 1640.67,1352.67 1640.52,1352.34 1640.38,1352 1640.26,1351.66 1640.15,1351.31 1640.05,1350.96 1639.97,1350.6 1639.89,1350.25 1639.83,1349.89 1639.79,1349.53 1639.75,1349.16 1639.73,1348.8 1639.73,1348.43 " />
<polyline fill="none" vector-effect="none" points="1684.73,1438.89 1684.75,1437.24 1684.81,1435.58 1684.91,1433.93 1685.05,1432.28 1685.24,1430.63 1685.46,1428.99 1685.72,1427.35 1686.02,1425.73 1686.37,1424.11 1686.75,1422.49 1687.17,1420.89 1687.63,1419.3 1688.13,1417.72 1688.67,1416.15 1689.25,1414.6 1689.87,1413.06 1690.52,1411.54 1691.21,1410.03 1691.93,1408.55 1692.7,1407.08 1693.5,1405.62 1694.33,1404.19 1695.2,1402.78 1696.1,1401.39 1697.04,1400.03 1698.01,1398.68 1699.01,1397.37 1700.05,1396.07 1701.12,1394.81 1702.21,1393.56 1703.34,1392.35 1704.5,1391.16 1705.68,1390.01 1706.9,1388.88 1708.14,1387.78 1709.41,1386.72 1710.7,1385.68 1712.02,1384.68 1713.36,1383.71 1714.73,1382.77 1716.12,1381.87 1717.53,1381 1718.96,1380.16 1720.41,1379.36 1721.88,1378.6 1723.37,1377.88 1724.87,1377.19 1726.4,1376.53 1727.93,1375.92 1729.49,1375.34 1731.05,1374.8 1732.63,1374.3 1734.22,1373.84 1735.83,1373.42 1737.44,1373.03 1739.06,1372.69 1740.69,1372.39 1742.32,1372.13 1743.96,1371.9 1745.61,1371.72 1747.26,1371.58 1748.92,1371.48 1750.57,1371.41 1752.23,1371.39 1753.88,1371.41 1755.54,1371.48 1757.19,1371.58 1758.84,1371.72 1760.49,1371.9 1762.13,1372.13 1763.77,1372.39 1765.4,1372.69 1767.02,1373.03 1768.63,1373.42 1770.23,1373.84 1771.82,1374.3 1773.4,1374.8 1774.97,1375.34 1776.52,1375.92 1778.06,1376.53 1779.58,1377.19 1781.09,1377.88 1782.58,1378.6 1784.05,1379.36 1785.5,1380.16 1786.93,1381 1788.34,1381.87 1789.73,1382.77 1791.09,1383.71 1792.44,1384.68 1793.76,1385.68 1795.05,1386.72 1796.32,1387.78 1797.56,1388.88 1798.77,1390.01 1799.96,1391.16 1801.11,1392.35 1802.24,1393.56 1803.34,1394.81 1804.41,1396.07 1805.44,1397.37 1806.44,1398.68 1807.41,1400.03 1808.35,1401.39 1809.26,1402.78 1810.12,1404.19 1810.96,1405.62 1811.76,1407.08 1812.52,1408.55 1813.25,1410.03 1813.94,1411.54 1814.59,1413.06 1815.2,1414.6 1815.78,1416.15 1816.32,1417.72 1816.82,1419.3 1817.28,1420.89 1817.7,1422.49 1818.09,1424.11 1818.43,1425.73 1818.73,1427.35 1819,1428.99 1819.22,1430.63 1819.4,1432.28 1819.54,1433.93 1819.65,1435.58 1819.71,1437.24 1819.73,1438.89 1819.71,1440.55 1819.65,1442.21 1819.54,1443.86 1819.4,1445.51 1819.22,1447.16 1819,1448.8 1818.73,1450.43 1818.43,1452.06 1818.09,1453.68 1817.7,1455.3 1817.28,1456.9 1816.82,1458.49 1816.32,1460.07 1815.78,1461.63 1815.2,1463.19 1814.59,1464.73 1813.94,1466.25 1813.25,1467.75 1812.52,1469.24 1811.76,1470.71 1810.96,1472.17 1810.12,1473.6 1809.26,1475.01 1808.35,1476.4 1807.41,1477.76 1806.44,1479.1 1805.44,1480.42 1804.41,1481.72 1803.34,1482.98 1802.24,1484.22 1801.11,1485.44 1799.96,1486.62 1798.77,1487.78 1797.56,1488.91 1796.32,1490.01 1795.05,1491.07 1793.76,1492.11 1792.44,1493.11 1791.09,1494.08 1789.73,1495.02 1788.34,1495.92 1786.93,1496.79 1785.5,1497.63 1784.05,1498.42 1782.58,1499.19 1781.09,1499.91 1779.58,1500.6 1778.06,1501.26 1776.52,1501.87 1774.97,1502.45 1773.4,1502.99 1771.82,1503.49 1770.23,1503.95 1768.63,1504.37 1767.02,1504.75 1765.4,1505.1 1763.77,1505.4 1762.13,1505.66 1760.49,1505.89 1758.84,1506.07 1757.19,1506.21 1755.54,1506.31 1753.88,1506.37 1752.23,1506.39 1750.57,1506.37 1748.92,1506.31 1747.26,1506.21 1745.61,1506.07 1743.96,1505.89 1742.32,1505.66 1740.69,1505.4 1739.06,1505.1 1737.44,1504.75 1735.83,1504.37 1734.22,1503.95 1732.63,1503.49 1731.05,1502.99 1729.49,1502.45 1727.93,1501.87 1726.4,1501.26 1724.87,1500.6 1723.37,1499.91 1721.88,1499.19 1720.41,1498.42 1718.96,1497.63 1717.53,1496.79 1716.12,1495.92 1714.73,1495.02 1713.36,1494.08 1712.02,1493.11 1710.7,1492.11 1709.41,1491.07 1708.14,1490.01 1706.9,1488.91 1705.68,1487.78 1704.5,1486.62 1703.34,1485.44 1702.21,1484.22 1701.12,1482.98 1700.05,1481.72 1699.01,1480.42 1698.01,1479.1 1697.04,1477.76 1696.1,1476.4 1695.2,1475.01 1694.33,1473.6 1693.5,1472.17 1692.7,1470.71 1691.93,1469.24 1691.21,1467.75 1690.52,1466.25 1689.87,1464.73 1689.25,1463.19 1688.67,1461.63 1688.13,1460.07 1687.63,1458.49 1687.17,1456.9 1686.75,1455.3 1686.37,1453.68 1686.02,1452.06 1685.72,1450.43 1685.46,1448.8 1685.24,1447.16 1685.05,1445.51 1684.91,1443.86 1684.81,1442.21 1684.75,1440.55 1684.73,1438.89 " />
<polyline fill="none" vector-effect="none" points="1936.73,670.145 1192.73,670.145 " />
<polyline fill="none" vector-effect="none" points="1812.23,1438.89 1812.21,1437.42 1812.16,1435.95 1812.07,1434.48 1811.94,1433.01 1811.78,1431.55 1811.58,1430.09 1811.34,1428.64 1811.07,1427.19 1810.77,1425.75 1810.43,1424.32 1810.05,1422.89 1809.64,1421.48 1809.2,1420.07 1808.72,1418.68 1808.21,1417.3 1807.66,1415.93 1807.08,1414.58 1806.47,1413.24 1805.82,1411.92 1805.14,1410.61 1804.43,1409.32 1803.69,1408.05 1802.92,1406.79 1802.12,1405.56 1801.28,1404.35 1800.42,1403.15 1799.53,1401.98 1798.61,1400.83 1797.66,1399.7 1796.68,1398.6 1795.68,1397.52 1794.65,1396.47 1793.6,1395.44 1792.52,1394.44 1791.42,1393.46 1790.29,1392.51 1789.14,1391.59 1787.97,1390.7 1786.78,1389.84 1785.56,1389.01 1784.33,1388.2 1783.07,1387.43 1781.8,1386.69 1780.51,1385.98 1779.2,1385.3 1777.88,1384.66 1776.54,1384.04 1775.19,1383.46 1773.82,1382.92 1772.44,1382.4 1771.05,1381.92 1769.64,1381.48 1768.23,1381.07 1766.81,1380.69 1765.37,1380.35 1763.93,1380.05 1762.49,1379.78 1761.03,1379.54 1759.57,1379.35 1758.11,1379.18 1756.64,1379.06 1755.17,1378.97 1753.7,1378.91 1752.23,1378.89 1750.76,1378.91 1749.28,1378.97 1747.81,1379.06 1746.35,1379.18 1744.88,1379.35 1743.42,1379.54 1741.97,1379.78 1740.52,1380.05 1739.08,1380.35 1737.65,1380.69 1736.22,1381.07 1734.81,1381.48 1733.41,1381.92 1732.01,1382.4 1730.63,1382.92 1729.27,1383.46 1727.91,1384.04 1726.57,1384.66 1725.25,1385.3 1723.94,1385.98 1722.65,1386.69 1721.38,1387.43 1720.13,1388.2 1718.89,1389.01 1717.68,1389.84 1716.49,1390.7 1715.31,1391.59 1714.16,1392.51 1713.04,1393.46 1711.93,1394.44 1710.86,1395.44 1709.8,1396.47 1708.77,1397.52 1707.77,1398.6 1706.8,1399.7 1705.85,1400.83 1704.93,1401.98 1704.04,1403.15 1703.17,1404.35 1702.34,1405.56 1701.54,1406.79 1700.76,1408.05 1700.02,1409.32 1699.31,1410.61 1698.63,1411.92 1697.99,1413.24 1697.37,1414.58 1696.79,1415.93 1696.25,1417.3 1695.73,1418.68 1695.26,1420.07 1694.81,1421.48 1694.4,1422.89 1694.03,1424.32 1693.69,1425.75 1693.38,1427.19 1693.11,1428.64 1692.88,1430.09 1692.68,1431.55 1692.52,1433.01 1692.39,1434.48 1692.3,1435.95 1692.25,1437.42 1692.23,1438.89 1692.25,1440.37 1692.3,1441.84 1692.39,1443.31 1692.52,1444.78 1692.68,1446.24 1692.88,1447.7 1693.11,1449.15 1693.38,1450.6 1693.69,1452.04 1694.03,1453.47 1694.4,1454.9 1694.81,1456.31 1695.26,1457.72 1695.73,1459.11 1696.25,1460.49 1696.79,1461.86 1697.37,1463.21 1697.99,1464.55 1698.63,1465.87 1699.31,1467.18 1700.02,1468.47 1700.76,1469.74 1701.54,1470.99 1702.34,1472.23 1703.17,1473.44 1704.04,1474.64 1704.93,1475.81 1705.85,1476.96 1706.8,1478.08 1707.77,1479.19 1708.77,1480.27 1709.8,1481.32 1710.86,1482.35 1711.93,1483.35 1713.04,1484.33 1714.16,1485.28 1715.31,1486.2 1716.49,1487.09 1717.68,1487.95 1718.89,1488.78 1720.13,1489.59 1721.38,1490.36 1722.65,1491.1 1723.94,1491.81 1725.25,1492.49 1726.57,1493.13 1727.91,1493.75 1729.27,1494.33 1730.63,1494.87 1732.01,1495.39 1733.41,1495.87 1734.81,1496.31 1736.22,1496.72 1737.65,1497.1 1739.08,1497.44 1740.52,1497.74 1741.97,1498.01 1743.42,1498.25 1744.88,1498.44 1746.35,1498.61 1747.81,1498.73 1749.28,1498.82 1750.76,1498.88 1752.23,1498.89 1753.7,1498.88 1755.17,1498.82 1756.64,1498.73 1758.11,1498.61 1759.57,1498.44 1761.03,1498.25 1762.49,1498.01 1763.93,1497.74 1765.37,1497.44 1766.81,1497.1 1768.23,1496.72 1769.64,1496.31 1771.05,1495.87 1772.44,1495.39 1773.82,1494.87 1775.19,1494.33 1776.54,1493.75 1777.88,1493.13 1779.2,1492.49 1780.51,1491.81 1781.8,1491.1 1783.07,1490.36 1784.33,1489.59 1785.56,1488.78 1786.78,1487.95 1787.97,1487.09 1789.14,1486.2 1790.29,1485.28 1791.42,1484.33 1792.52,1483.35 1793.6,1482.35 1794.65,1481.32 1795.68,1480.27 1796.68,1479.19 1797.66,1478.08 1798.61,1476.96 1799.53,1475.81 1800.42,1474.64 1801.28,1473.44 1802.12,1472.23 1802.92,1470.99 1803.69,1469.74 1804.43,1468.47 1805.14,1467.18 1805.82,1465.87 1806.47,1464.55 1807.08,1463.21 1807.66,1461.86 1808.21,1460.49 1808.72,1459.11 1809.2,1457.72 1809.64,1456.31 1810.05,1454.9 1810.43,1453.47 1810.77,1452.04 1811.07,1450.6 1811.34,1449.15 1811.58,1447.7 1811.78,1446.24 1811.94,1444.78 1812.07,1443.31 1812.16,1441.84 1812.21,1440.37 1812.23,1438.89 " />
</g>

<g fill="#000000" fill-opacity="1" stroke="#000000" stroke-opacity="1" stroke-width="2" stroke-linecap="round" stroke-linejoin="bevel" transform="matrix(1,0,0,1,0,0)"
font-family="Arial" font-size="12" font-weight="400" font-style="normal" 
>
<polyline fill="none" vector-effect="none" points="1646.25,1553.36 1653.28,1553.36 " />
<polyline fill="none" vector-effect="none" points="1649.77,1556.87 1649.77,1549.84 " />
<polyline fill="none" vector-effect="none" points="1642.74,1553.36 1632.7,1553.36 " />
<polyline fill="none" vector-effect="none" points="1656.79,1553.36 1666.83,1553.36 " />
<polyline fill="none" vector-effect="none" points="1649.77,1546.33 1649.77,1536.29 " />
<polyline fill="none" vector-effect="none" points="1649.77,1560.38 1649.77,1570.42 " />
<polyline fill="none" vector-effect="none" points="1851.17,1348.43 1858.2,1348.43 " />
<polyline fill="none" vector-effect="none" points="1854.69,1351.95 1854.69,1344.92 " />
<polyline fill="none" vector-effect="none" points="1847.66,1348.43 1837.62,1348.43 " />
<polyline fill="none" vector-effect="none" points="1861.72,1348.43 1871.76,1348.43 " />
<polyline fill="none" vector-effect="none" points="1854.69,1341.41 1854.69,1331.37 " />
<polyline fill="none" vector-effect="none" points="1854.69,1355.46 1854.69,1365.5 " />
<polyline fill="none" vector-effect="none" points="1514.71,1334.93 1521.74,1334.93 " />
<polyline fill="none" vector-effect="none" points="1518.23,1338.45 1518.23,1331.42 " />
<polyline fill="none" vector-effect="none" points="1511.2,1334.93 1501.16,1334.93 " />
<polyline fill="none" vector-effect="none" points="1525.26,1334.93 1535.29,1334.93 " />
<polyline fill="none" vector-effect="none" points="1518.23,1327.91 1518.23,1317.87 " />
<polyline fill="none" vector-effect="none" points="1518.23,1341.96 1518.23,1352 " />
<polyline fill="none" vector-effect="none" points="1514.71,1544.36 1521.74,1544.36 " />
<polyline fill="none" vector-effect="none" points="1518.23,1547.87 1518.23,1540.84 " />
<polyline fill="none" vector-effect="none" points="1511.2,1544.36 1501.16,1544.36 " />
<polyline fill="none" vector-effect="none" points="1525.26,1544.36 1535.29,1544.36 " />
<polyline fill="none" vector-effect="none" points="1518.23,1537.33 1518.23,1527.29 " />
<polyline fill="none" vector-effect="none" points="1518.23,1551.38 1518.23,1561.42 " />
<polyline fill="none" vector-effect="none" points="1437.09,1227.68 1444.12,1227.68 " />
<polyline fill="none" vector-effect="none" points="1440.6,1231.2 1440.6,1224.17 " />
<polyline fill="none" vector-effect="none" points="1433.58,1227.68 1423.54,1227.68 " />
<polyline fill="none" vector-effect="none" points="1447.63,1227.68 1457.67,1227.68 " />
<polyline fill="none" vector-effect="none" points="1440.6,1220.66 1440.6,1210.62 " />
<polyline fill="none" vector-effect="none" points="1440.6,1234.71 1440.6,1244.75 " />
<polyline fill="none" vector-effect="none" points="1685.34,1227.68 1692.37,1227.68 " />
<polyline fill="none" vector-effect="none" points="1688.85,1231.2 1688.85,1224.17 " />
<polyline fill="none" vector-effect="none" points="1681.83,1227.68 1671.79,1227.68 " />
<polyline fill="none" vector-effect="none" points="1695.88,1227.68 1705.92,1227.68 " />
<polyline fill="none" vector-effect="none" points="1688.85,1220.66 1688.85,1210.62 " />
<polyline fill="none" vector-effect="none" points="1688.85,1234.71 1688.85,1244.75 " />
<polyline fill="none" vector-effect="none" points="1273.96,649.895 1280.99,649.895 " />
<polyline fill="none" vector-effect="none" points="1277.48,653.408 1277.48,646.381 " />
<polyline fill="none" vector-effect="none" points="1270.45,649.895 1260.41,649.895 " />
<polyline fill="none" vector-effect="none" points="1284.51,649.895 1294.54,649.895 " />
<polyline fill="none" vector-effect="none" points="1277.48,642.867 1277.48,632.828 " />
<polyline fill="none" vector-effect="none" points="1277.48,656.922 1277.48,666.962 " />
<polyline fill="none" vector-effect="none" points="1848.46,649.895 1855.49,649.895 " />
<polyline fill="none" vector-effect="none" points="1851.98,653.408 1851.98,646.381 " />
<polyline fill="none" vector-effect="none" points="1844.95,649.895 1834.91,649.895 " />
<polyline fill="none" vector-effect="none" points="1859.01,649.895 1869.04,649.895 " />
<polyline fill="none" vector-effect="none" points="1851.98,642.867 1851.98,632.828 " />
<polyline fill="none" vector-effect="none" points="1851.98,656.922 1851.98,666.962 " />
<polyline fill="none" vector-effect="none" points="1273.96,1177.89 1280.99,1177.89 " />
<polyline fill="none" vector-effect="none" points="1277.48,1181.41 1277.48,1174.38 " />
<polyline fill="none" vector-effect="none" points="1270.45,1177.89 1260.41,1177.89 " />
<polyline fill="none" vector-effect="none" points="1284.51,1177.89 1294.54,1177.89 " />
<polyline fill="none" vector-effect="none" points="1277.48,1170.87 1277.48,1160.83 " />
<polyline fill="none" vector-effect="none" points="1277.48,1184.92 1277.48,1194.96 " />
<polyline fill="none" vector-effect="none" points="1848.46,1177.89 1855.49,1177.89 " />
<polyline fill="none" vector-effect="none" points="1851.98,1181.41 1851.98,1174.38 " />
<polyline fill="none" vector-effect="none" points="1844.95,1177.89 1834.91,1177.89 " />
<polyline fill="none" vector-effect="none" points="1859.01,1177.89 1869.04,1177.89 " />
<polyline fill="none" vector-effect="none" points="1851.98,1170.87 1851.98,1160.83 " />
<polyline fill="none" vector-effect="none" points="1851.98,1184.92 1851.98,1194.96 " />
<polyline fill="none" vector-effect="none" points="1685.34,1302.11 1692.37,1302.11 " />
<polyline fill="none" vector-effect="none" points="1688.85,1305.62 1688.85,1298.59 " />
<polyline fill="none" vector-effect="none" points="1681.83,1302.11 1671.79,1302.11 " />
<polyline fill="none" vector-effect="none" points="1695.88,1302.11 1705.92,1302.11 " />
<polyline fill="none" vector-effect="none" points="1688.85,1295.08 1688.85,1285.04 " />
<polyline fill="none" vector-effect="none" points="1688.85,1309.13 1688.85,1319.17 " />
<polyline fill="none" vector-effect="none" points="1437.09,1302.11 1444.12,1302.11 " />
<polyline fill="none" vector-effect="none" points="1440.6,1305.62 1440.6,1298.59 " />
<polyline fill="none" vector-effect="none" points="1433.58,1302.11 1423.54,1302.11 " />
<polyline fill="none" vector-effect="none" points="1447.63,1302.11 1457.67,1302.11 " />
<polyline fill="none" vector-effect="none" points="1440.6,1295.08 1440.6,1285.04 " />
<polyline fill="none" vector-effect="none" points="1440.6,1309.13 1440.6,1319.17 " />
<polyline fill="none" vector-effect="none" points="1232.71,1334.93 1239.74,1334.93 " />
<polyline fill="none" vector-effect="none" points="1236.23,1338.45 1236.23,1331.42 " />
<polyline fill="none" vector-effect="none" points="1229.2,1334.93 1219.16,1334.93 " />
<polyline fill="none" vector-effect="none" points="1243.26,1334.93 1253.29,1334.93 " />
<polyline fill="none" vector-effect="none" points="1236.23,1327.91 1236.23,1317.87 " />
<polyline fill="none" vector-effect="none" points="1236.23,1341.96 1236.23,1352 " />
<polyline fill="none" vector-effect="none" points="1232.71,1544.36 1239.74,1544.36 " />
<polyline fill="none" vector-effect="none" points="1236.23,1547.87 1236.23,1540.84 " />
<polyline fill="none" vector-effect="none" points="1229.2,1544.36 1219.16,1544.36 " />
<polyline fill="none" vector-effect="none" points="1243.26,1544.36 1253.29,1544.36 " />
<polyline fill="none" vector-effect="none" points="1236.23,1537.33 1236.23,1527.29 " />
<polyline fill="none" vector-effect="none" points="1236.23,1551.38 1236.23,1561.42 " />
<polyline fill="none" vector-effect="none" points="1851.17,1553.36 1858.2,1553.36 " />
<polyline fill="none" vector-effect="none" points="1854.69,1556.87 1854.69,1549.84 " />
<polyline fill="none" vector-effect="none" points="1847.66,1553.36 1837.62,1553.36 " />
<polyline fill="none" vector-effect="none" points="1861.72,1553.36 1871.76,1553.36 " />
<polyline fill="none" vector-effect="none" points="1854.69,1546.33 1854.69,1536.29 " />
<polyline fill="none" vector-effect="none" points="1854.69,1560.38 1854.69,1570.42 " />
<polyline fill="none" vector-effect="none" points="1646.25,1348.43 1653.28,1348.43 " />
<polyline fill="none" vector-effect="none" points="1649.77,1351.95 1649.77,1344.92 " />
<polyline fill="none" vector-effect="none" points="1642.74,1348.43 1632.7,1348.43 " />
<polyline fill="none" vector-effect="none" points="1656.79,1348.43 1666.83,1348.43 " />
<polyline fill="none" vector-effect="none" points="1649.77,1341.41 1649.77,1331.37 " />
<polyline fill="none" vector-effect="none" points="1649.77,1355.46 1649.77,1365.5 " />
<polyline fill="none" vector-effect="none" points="1738.73,1438.89 1765.73,1438.89 " />
<polyline fill="none" vector-effect="none" points="1752.23,1452.39 1752.23,1425.39 " />
<polyline fill="none" vector-effect="none" points="1725.23,1438.89 1657.73,1438.89 " />
<polyline fill="none" vector-effect="none" points="1779.23,1438.89 1846.73,1438.89 " />
<polyline fill="none" vector-effect="none" points="1752.23,1411.89 1752.23,1344.39 " />
<polyline fill="none" vector-effect="none" points="1752.23,1465.89 1752.23,1533.39 " />
</g>

<g fill="none" stroke="#000000" stroke-opacity="1" stroke-width="1" stroke-linecap="square" stroke-linejoin="bevel" transform="matrix(1,0,0,1,0,0)"
font-family="Arial" font-size="12" font-weight="400" font-style="normal" 
>
</g>
</g>
</svg>
